<?xml version="1.0" standalone="no"?>
<!DOCTYPE svg PUBLIC "-//W3C//DTD SVG 1.1//EN" "http://www.w3.org/Graphics/SVG/1.1/DTD/svg11.dtd" >
<svg xmlns="http://www.w3.org/2000/svg" xmlns:xlink="http://www.w3.org/1999/xlink" version="1.1">
<metadata>
Created by FontForge 20170731 at Thu Jul 27 16:27:04 2017
 By Aleksey,,,
Copyright (c) 2017 Design210. All rights reserved.
Tel : 02-376-0210 / www.design210.com
webmaster@design210.com
</metadata>
<defs>
<font id="TTSsiatR" horiz-adv-x="920" >
  <font-face 
    font-family="210 Ssiat R"
    font-weight="400"
    font-stretch="normal"
    units-per-em="1000"
    panose-1="2 2 6 3 2 1 1 2 1 1"
    ascent="800"
    descent="-200"
    x-height="470"
    cap-height="662"
    bbox="-40 -264 940 800"
    underline-thickness="25"
    underline-position="-181"
    unicode-range="U+0020-FFE6"
  />
<missing-glyph horiz-adv-x="900" 
d="M50 -150v900h800v-900h-800zM115 -114h670l-335 385zM424 301l-334 384v-768zM783 714h-667l333 -384zM476 300l334 -384v770z" />
    <glyph glyph-name=".notdef" horiz-adv-x="900" 
d="M50 -150v900h800v-900h-800zM115 -114h670l-335 385zM424 301l-334 384v-768zM783 714h-667l333 -384zM476 300l334 -384v770z" />
    <glyph glyph-name="glyph1" horiz-adv-x="0" 
 />
    <glyph glyph-name="glyph2" horiz-adv-x="1024" 
 />
    <glyph glyph-name="space" unicode=" " horiz-adv-x="280" 
 />
    <glyph glyph-name="exclam" unicode="!" horiz-adv-x="254" 
d="M93 84l-7 645h81l-8 -645h-66zM88 -137v96h75v-96h-75z" />
    <glyph glyph-name="quotedbl" unicode="&#x22;" horiz-adv-x="326" 
d="M123 515h-57l-8 252h74zM256 515h-56l-9 252h76z" />
    <glyph glyph-name="numbersign" unicode="#" horiz-adv-x="626" 
d="M502 476h91v-64h-105l-44 -216h113v-64h-126l-47 -229h-70l47 229h-170l-47 -229h-70l47 229h-89v64h103l44 216h-111v64h125l46 223h69l-46 -223h171l46 223h69zM204 196h171l44 216h-171z" />
    <glyph glyph-name="dollar" unicode="$" horiz-adv-x="516" 
d="M243 -74q-65 1 -117.5 21.5t-95.5 52.5l34 56q45 -36 88 -49t91 -15v290q-45 19 -80 39t-59 44t-37 54t-13 70q0 75 47.5 123t141.5 56v61h59v-61q50 -3 87.5 -19t76.5 -47l-32 -53q-29 23 -58 38.5t-74 20.5v-281q43 -20 75.5 -40t54.5 -43.5t33.5 -53t11.5 -68.5
q0 -41 -13 -74t-36.5 -57t-55.5 -39.5t-70 -21.5v-61h-59v57zM121 490q0 -27 9.5 -47.5t26 -36.5t38.5 -28t48 -24v253q-24 -3 -46 -10.5t-39 -22t-27 -35.5t-10 -49zM409 125q0 48 -27.5 77.5t-79.5 54.5v-262q20 4 39.5 14t34.5 26t24 38.5t9 51.5z" />
    <glyph glyph-name="percent" unicode="%" horiz-adv-x="836" 
d="M597 709h69l-419 -820h-69zM124 503q0 -30 3.5 -55t12.5 -43t25 -27.5t41 -9.5q49 0 65.5 37t16.5 98t-16.5 98t-65.5 37q-25 0 -41 -9.5t-25 -27.5t-12.5 -43t-3.5 -55zM60 503q0 95 34.5 145.5t111.5 50.5t111.5 -50.5t34.5 -145.5t-34.5 -145.5t-111.5 -50.5
t-111.5 50.5t-34.5 145.5zM547 97q0 -30 3.5 -55t12.5 -43t25 -27.5t41 -9.5q49 0 65.5 37t16.5 98t-16.5 98t-65.5 37q-25 0 -41 -9.5t-25 -27.5t-12.5 -43t-3.5 -55zM483 97q0 95 34.5 145.5t111.5 50.5t111.5 -50.5t34.5 -145.5t-34.5 -145.5t-111.5 -50.5t-111.5 50.5
t-34.5 145.5z" />
    <glyph glyph-name="ampersand" unicode="&#x26;" horiz-adv-x="766" 
d="M565 -36q-45 -48 -103.5 -76t-133.5 -28q-55 0 -105 12.5t-88 40t-60.5 71t-22.5 106.5q0 45 15 82t41 68t61 57t76 49q-18 22 -34.5 46.5t-30 50.5t-21.5 54t-8 57q0 91 53 138t143 47q57 0 96 -15t63 -40t34.5 -58.5t10.5 -69.5q0 -39 -15 -71t-41.5 -59.5t-63 -51.5
t-80.5 -48l210 -252q25 44 39.5 95t20.5 105h69q-7 -69 -27.5 -134.5t-55.5 -120.5l123 -148h-87zM325 -73q63 0 111.5 24t84.5 65l-232 277q-81 -46 -121.5 -93t-40.5 -104q0 -53 17.5 -85.5t45.5 -51.5t63.5 -25.5t71.5 -6.5zM226 554q0 -42 25 -88t56 -87q79 42 125 82
t46 94q0 118 -131 118q-36 0 -59.5 -9t-37 -25t-19 -38t-5.5 -47z" />
    <glyph glyph-name="quotesingle" unicode="'" horiz-adv-x="182" 
d="M119 513h-57l-8 254h74z" />
    <glyph glyph-name="parenleft" unicode="(" horiz-adv-x="326" 
d="M157 299q0 -131 34.5 -239t97.5 -203h-67q-68 92 -102.5 200t-34.5 242t34.5 242t102.5 200h67q-63 -95 -97.5 -203t-34.5 -239z" />
    <glyph glyph-name="parenright" unicode=")" horiz-adv-x="326" 
d="M171 299q0 131 -34.5 239t-97.5 203h67q68 -92 102.5 -200t34.5 -242t-34.5 -242t-102.5 -200h-67q63 95 97.5 203t34.5 239z" />
    <glyph glyph-name="asterisk" unicode="*" horiz-adv-x="407" 
d="M287 420l-84 113l-82 -112l-51 35l85 111l-125 39l23 58l121 -49v133h60v-131l115 46l22 -58l-120 -38l83 -110z" />
    <glyph glyph-name="plus" unicode="+" horiz-adv-x="616" 
d="M342 268v-224h-70v224h-217v65h217v224h70v-224h219v-65h-219z" />
    <glyph glyph-name="comma" unicode="," horiz-adv-x="264" 
d="M193 -84q0 -31 -10 -51.5t-26.5 -33t-38 -19.5t-44.5 -11v66q19 3 30 6t16.5 7.5t7 11t1.5 14.5h-54v113h118v-103z" />
    <glyph glyph-name="hyphen" unicode="-" horiz-adv-x="456" 
d="M45 333h366v-65h-366v65z" />
    <glyph glyph-name="period" unicode="." horiz-adv-x="264" 
d="M186 -94h-109v114h109v-114z" />
    <glyph glyph-name="slash" unicode="/" horiz-adv-x="476" 
d="M363 699h73l-326 -800h-70z" />
    <glyph glyph-name="zero" unicode="0" horiz-adv-x="576" 
d="M134 148q0 -41 6 -74.5t23 -57.5t47 -37t78 -13t78 13t47 37t23 57.5t6 74.5v342q0 41 -6 74.5t-23 57.5t-47 37t-78 13t-78 -13t-47 -37t-23 -57.5t-6 -74.5v-342zM60 490q0 60 12 106t39 78t70.5 48.5t106.5 16.5t106.5 -16.5t70.5 -48.5t39 -78t12 -106v-342
q0 -60 -12 -106t-39 -78t-70.5 -48.5t-106.5 -16.5t-106.5 16.5t-70.5 48.5t-39 78t-12 106v342z" />
    <glyph glyph-name="one" unicode="1" horiz-adv-x="430" 
d="M203 -91v741l-130 -71l-29 61l167 89h66v-820h-74z" />
    <glyph glyph-name="two" unicode="2" horiz-adv-x="576" 
d="M48 -91q14 80 47.5 152t107.5 131q29 23 57.5 47t57.5 47q54 44 86 98.5t32 124.5q0 27 -5.5 56t-21.5 52.5t-45 39t-76 15.5q-43 0 -72 -17t-48 -46t-28 -68t-11 -84h-77q4 61 19 112.5t43 89t71 59t104 21.5q65 0 108 -21t68.5 -54.5t36 -75t10.5 -81.5
q0 -48 -14.5 -89.5t-39 -78.5t-57 -69t-68.5 -62q-20 -17 -41.5 -33.5t-41.5 -33.5q-42 -33 -66.5 -73t-39.5 -93h381v-66h-477z" />
    <glyph glyph-name="three" unicode="3" horiz-adv-x="576" 
d="M116 150q0 -39 10 -72t30.5 -57.5t53 -38t77.5 -13.5q85 0 124.5 42t39.5 129q0 34 -6.5 64.5t-25 53.5t-51.5 36.5t-86 13.5h-58v66h58q28 0 55 10t48 29t34 47t13 64q0 28 -7 54.5t-23.5 47.5t-44.5 34t-70 13q-37 0 -63.5 -12.5t-45 -35.5t-29 -55.5t-14.5 -72.5h-74
q6 56 22.5 100.5t44.5 76t68.5 48.5t93.5 17q57 0 98 -17.5t67 -47t38.5 -68t12.5 -81.5q0 -62 -30.5 -108t-89.5 -70q72 -19 105.5 -70.5t33.5 -132.5q0 -116 -61 -178.5t-182 -62.5q-54 0 -98 15.5t-75.5 46t-49 77t-17.5 108.5h74z" />
    <glyph glyph-name="four" unicode="4" horiz-adv-x="576" 
d="M383 72h-358v57l351 600h78v-592h112v-65h-112v-163h-71v163zM383 604l-272 -467h272v467z" />
    <glyph glyph-name="five" unicode="5" horiz-adv-x="576" 
d="M141 663v-287q32 35 75 51.5t93 16.5q60 0 101 -20.5t66.5 -55.5t36.5 -82t11 -100q0 -149 -64 -218t-179 -69q-108 0 -163.5 65.5t-69.5 192.5h75q8 -94 46 -143t117 -49q49 0 80.5 16.5t50 47t26 73t7.5 94.5q0 91 -34.5 136.5t-108.5 45.5q-65 0 -102.5 -26.5
t-63.5 -74.5h-72v452h426v-66h-354z" />
    <glyph glyph-name="six" unicode="6" horiz-adv-x="576" 
d="M432 537q-5 39 -16.5 64.5t-28.5 41.5t-38 22.5t-44 6.5q-55 0 -89.5 -27t-54.5 -71.5t-28 -101.5t-10 -117q31 40 74 64.5t111 24.5q58 0 99.5 -20t68 -56t39 -85.5t12.5 -107.5q0 -62 -13 -113t-41.5 -87t-73 -56t-107.5 -20q-126 0 -185 100.5t-59 286.5q0 99 11 182
t40 143.5t79.5 94t129.5 33.5q51 0 85.5 -16.5t57 -44.5t35 -64.5t20.5 -76.5h-74zM300 378q-29 0 -52.5 -7t-44.5 -22t-40.5 -37.5t-40.5 -52.5q-3 -150 40 -222t135 -72q85 0 122.5 52.5t36.5 151.5q0 44 -8 82t-26 66t-48 44t-74 17z" />
    <glyph glyph-name="seven" unicode="7" horiz-adv-x="576" 
d="M526 672l-308 -763h-78l302 752h-387v68h471v-57z" />
    <glyph glyph-name="eight" unicode="8" horiz-adv-x="576" 
d="M29 117q0 48 14 85.5t38 65t55 46t64 28.5q-26 8 -50.5 23.5t-44.5 38.5t-32 55t-12 74q0 53 18 91.5t48.5 64t72.5 38t90 12.5q107 0 166.5 -51.5t59.5 -145.5q0 -75 -35 -122.5t-110 -76.5q40 -9 72 -29t55 -48t35.5 -64t12.5 -76q0 -115 -69 -171t-191 -56
q-118 0 -187.5 55.5t-69.5 162.5zM472 118q0 33 -7.5 61.5t-27.5 52.5t-56 44t-94 36q-61 -15 -97 -35t-55.5 -43.5t-25.5 -50.5t-6 -55q0 -83 48 -123t138 -40q36 0 69 6.5t58.5 23.5t40.5 46.5t15 76.5zM442 534q0 63 -37 101t-115 38q-72 0 -113.5 -34t-41.5 -102
q0 -32 8.5 -60t27 -50.5t47 -37t68.5 -18.5q86 23 121 63.5t35 99.5z" />
    <glyph glyph-name="nine" unicode="9" horiz-adv-x="576" 
d="M143 101q4 -39 16 -64.5t29 -41.5t38 -22.5t44 -6.5q54 0 88.5 27t54.5 71.5t28 101.5t10 117q-30 -41 -73 -65t-111 -24q-58 0 -99.5 20t-68 56t-39 85.5t-12.5 107.5q0 62 13 113t41.5 87t73 56t107.5 20q126 0 185 -100.5t59 -286.5q0 -99 -11 -182t-40 -143.5
t-79.5 -94t-129.5 -33.5q-51 0 -85.5 16.5t-57 44.5t-35.5 64.5t-20 76.5h74zM275 260q29 0 52.5 7t44.5 22t40.5 37.5t40.5 52.5q3 150 -40 222t-135 72q-85 0 -122.5 -52.5t-36.5 -151.5q0 -44 8 -82t26 -66t48 -44t74 -17z" />
    <glyph glyph-name="colon" unicode=":" horiz-adv-x="264" 
d="M182 449h-103v112h103v-112zM182 37h-103v112h103v-112z" />
    <glyph glyph-name="semicolon" unicode=";" horiz-adv-x="264" 
d="M182 449h-103v112h103v-112zM193 46q0 -31 -10 -51.5t-26.5 -34t-38 -20.5t-44.5 -11v66q19 3 30 6.5t16.5 8.5t7 11.5t1.5 14.5h-54v111h118v-101z" />
    <glyph glyph-name="less" unicode="&#x3c;" horiz-adv-x="556" 
d="M501 726v-88l-371 -338l371 -341v-86l-438 401v51z" />
    <glyph glyph-name="equal" unicode="=" horiz-adv-x="564" 
d="M57 447h451v-65h-451v65zM57 219h451v-65h-451v65z" />
    <glyph glyph-name="greater" unicode="&#x3e;" horiz-adv-x="556" 
d="M493 325v-51l-438 -401v86l370 341l-370 338v88z" />
    <glyph glyph-name="question" unicode="?" horiz-adv-x="460" 
d="M174 235q0 52 10 98t52 86q19 18 35.5 35.5t29 37t20 41t7.5 47.5q0 19 -4 36t-16 30t-32.5 20.5t-53.5 7.5q-47 0 -83 -20t-67 -51l-38 47q41 43 90 66t100 23q45 0 78.5 -11.5t55 -32t32 -47.5t10.5 -58q0 -55 -26 -101.5t-74 -91.5q-19 -18 -30.5 -37.5t-18 -39.5
t-8.5 -41t-2 -42v-153h-67v151zM170 -137v96h75v-96h-75z" />
    <glyph glyph-name="at" unicode="@" horiz-adv-x="820" 
d="M410 -101q-85 0 -150.5 23t-110 65.5t-67.5 104t-23 139.5q0 81 24.5 155t73 130.5t121.5 90t169 33.5q73 0 131 -22t98.5 -62.5t62 -98t21.5 -127.5q0 -66 -15 -114.5t-41 -81t-61 -48t-76 -15.5q-30 0 -52.5 10.5t-34.5 33.5q-18 -17 -51 -31.5t-77 -14.5
q-54 0 -84.5 37t-30.5 105q0 116 49.5 181t132.5 65q32 0 58 -10.5t43 -24.5l6 29h61l-55 -283q-9 -47 47 -47q54 0 85.5 50.5t31.5 153.5q0 49 -13 95.5t-42.5 82.5t-77.5 58t-118 22q-85 0 -145.5 -31t-99.5 -81.5t-57.5 -113t-18.5 -125.5q0 -59 16.5 -109t51 -86.5
t88.5 -57.5t130 -21q59 0 106.5 10t91.5 24v-57q-44 -17 -98.5 -26.5t-99.5 -9.5zM374 123q32 0 54 13t41 30l38 205q-14 14 -36 22.5t-52 8.5q-34 0 -56.5 -14t-36 -39t-19 -60t-5.5 -77q0 -47 17 -68t55 -21z" />
    <glyph glyph-name="A" unicode="A" horiz-adv-x="641" 
d="M476 137h-310l-72 -228h-73l260 820h79l261 -820h-73zM187 203h268l-134 425z" />
    <glyph glyph-name="B" unicode="B" horiz-adv-x="616" 
d="M530 535q0 -62 -28.5 -114.5t-92.5 -78.5q42 -9 72.5 -29t50 -47.5t29 -60.5t9.5 -68q0 -117 -64.5 -172.5t-188.5 -55.5h-243v820h200q61 0 109 -10t80.5 -32.5t49.5 -60t17 -91.5zM317 -25q41 0 74 7t56.5 25.5t36 50t12.5 80.5q0 43 -14 73.5t-39.5 50.5t-61 29.5
t-78.5 9.5h-155v-326h169zM277 367q80 0 129.5 40t49.5 126q0 40 -13 65.5t-35.5 40t-53.5 19.5t-67 5h-139v-296h129z" />
    <glyph glyph-name="C" unicode="C" horiz-adv-x="666" 
d="M68 319q0 118 13 198.5t46 129.5t88.5 70.5t140.5 21.5q75 0 123 -23t76.5 -61t42 -89t20.5 -106h-74q-5 53 -17 92.5t-34.5 65.5t-56.5 39t-82 13q-63 0 -104 -14t-65 -53t-33.5 -107.5t-9.5 -176.5q0 -107 9.5 -175.5t33.5 -107.5t65.5 -53.5t105.5 -14.5
q96 0 141.5 55t50.5 179h74q-5 -63 -18.5 -118t-42.5 -96t-78 -65t-125 -24q-88 0 -144 21.5t-88.5 71t-45 130t-12.5 197.5z" />
    <glyph glyph-name="D" unicode="D" horiz-adv-x="656" 
d="M288 729q80 0 139.5 -23t98.5 -72t58.5 -127t19.5 -187q0 -110 -19 -187.5t-58 -127.5t-98.5 -73t-140.5 -23h-214v820h214zM293 -25q49 0 92 12t75 49t51 105t19 179t-19.5 178t-53.5 104t-78.5 49t-95.5 12h-135v-688h145z" />
    <glyph glyph-name="E" unicode="E" horiz-adv-x="626" 
d="M149 370h407v-70h-407v-321h440v-70h-515v820h498v-70h-423v-289z" />
    <glyph glyph-name="F" unicode="F" horiz-adv-x="626" 
d="M74 -91v820h498v-70h-423v-289h407v-70h-407v-391h-75z" />
    <glyph glyph-name="G" unicode="G" horiz-adv-x="686" 
d="M68 319q0 118 13 198.5t45.5 129.5t88 70.5t141.5 21.5q74 0 122 -19.5t76.5 -54t42.5 -82t21 -103.5h-74q-5 53 -16.5 89.5t-34 59t-56.5 32.5t-83 10q-64 0 -105 -14.5t-64.5 -53.5t-32.5 -107.5t-9 -176.5q0 -107 9 -175.5t33 -107.5t65.5 -54t105.5 -15q51 0 87.5 11
t59.5 35.5t34 64t11 97.5v119h-198v67h270v-166q0 -84 -17 -141t-50.5 -91.5t-82.5 -49t-112 -14.5q-87 0 -143.5 22t-89 71.5t-45 129.5t-12.5 197z" />
    <glyph glyph-name="H" unicode="H" horiz-adv-x="706" 
d="M632 729v-820h-75v392h-408v-392h-75v820h75v-361h408v361h75z" />
    <glyph glyph-name="I" unicode="I" horiz-adv-x="225" 
d="M150 729v-820h-76v820h76z" />
    <glyph glyph-name="J" unicode="J" horiz-adv-x="376" 
d="M304 729v-582q0 -69 -14 -116.5t-40.5 -76.5t-65.5 -41.5t-90 -12.5q-21 0 -49 2.5t-47 7.5l12 67q16 -5 38 -7t39 -2q40 0 67.5 8t44 28.5t23.5 55.5t7 89v580h75z" />
    <glyph glyph-name="K" unicode="K" horiz-adv-x="641" 
d="M149 729v-384l342 384h84l-298 -336l328 -484h-83l-292 430l-81 -91v-339h-75v820h75z" />
    <glyph glyph-name="L" unicode="L" horiz-adv-x="586" 
d="M149 729v-752h393v-68h-468v820h75z" />
    <glyph glyph-name="M" unicode="M" horiz-adv-x="801" 
d="M158 729l241 -730l243 730h84v-820h-70v641l-215 -641h-84l-213 641v-641h-70v820h84z" />
    <glyph glyph-name="N" unicode="N" horiz-adv-x="686" 
d="M611 -91h-78l-389 700v-700h-71v820h80l387 -692v692h71v-820z" />
    <glyph glyph-name="O" unicode="O" horiz-adv-x="694" 
d="M147 186q0 -69 16.5 -112t44 -67t63.5 -32t76 -8t76 8t63 32t43 67t16 112v266q0 69 -16 112t-43 67t-63 32t-76 8t-76 -8t-63.5 -32t-44 -67t-16.5 -112v-266zM73 452q0 79 20 133.5t56 88.5t86.5 49.5t111.5 15.5t111 -15.5t86 -49.5t55.5 -88.5t19.5 -133.5v-266
q0 -79 -19.5 -133.5t-55.5 -88.5t-86 -49.5t-111 -15.5t-111.5 15.5t-86.5 49.5t-56 88.5t-20 133.5v266z" />
    <glyph glyph-name="P" unicode="P" horiz-adv-x="596" 
d="M292 729q79 0 129.5 -21t80 -56t40.5 -81t11 -96t-11.5 -96t-40.5 -81t-79.5 -56.5t-129.5 -21.5h-146v-311h-73v820h219zM286 288q64 0 102.5 14.5t59 40t27 59t6.5 71.5q0 37 -6.5 71t-26.5 60t-59 41t-103 15h-140v-372h140z" />
    <glyph glyph-name="Q" unicode="Q" horiz-adv-x="694" 
d="M73 452q0 79 20 133.5t56 88.5t86.5 49.5t111.5 15.5t111 -15.5t86 -49.5t55.5 -88.5t19.5 -133.5v-266q0 -74 -17.5 -126.5t-49.5 -87t-76.5 -52t-99.5 -20.5l-3 -81h-73l3 82q-52 5 -94.5 23.5t-72.5 53t-46.5 86t-16.5 122.5v266zM147 186q0 -60 12.5 -100t33.5 -65
t50 -36.5t62 -15.5l5 120h73l-5 -121q34 3 64.5 13.5t53.5 35.5t36 65.5t13 103.5v266q0 69 -16 112t-43 67t-63 32t-76 8t-76 -8t-63.5 -32t-44 -67t-16.5 -112v-266z" />
    <glyph glyph-name="R" unicode="R" horiz-adv-x="596" 
d="M292 729q79 0 129.5 -21t80 -56t40.5 -81t11 -96q0 -40 -7.5 -78t-25.5 -70.5t-48.5 -57t-77.5 -37.5l177 -323h-78l-170 312q-8 -1 -15.5 -1h-15.5h-146v-311h-73v820h219zM286 288q64 0 102.5 14.5t59 40t27 59t6.5 71.5q0 37 -6.5 71t-26.5 60t-59 41t-103 15h-140
v-372h140z" />
    <glyph glyph-name="S" unicode="S" horiz-adv-x="646" 
d="M137 121q0 -33 9.5 -61.5t32 -49.5t59.5 -33t91 -12q50 0 85 10.5t57.5 29.5t32.5 44t10 55q0 39 -12.5 65t-34.5 45t-50.5 33t-61.5 28l-108 47q-83 36 -130 90t-47 135q0 43 15 78t45 60.5t75.5 39.5t107.5 14q64 0 110.5 -14.5t76.5 -40t44.5 -61.5t14.5 -79v-25h-74
v24q0 29 -9.5 53t-29.5 41t-52.5 26.5t-78.5 9.5q-90 0 -130.5 -33t-40.5 -93q0 -35 11.5 -61t34.5 -47.5t56.5 -40t78.5 -36.5l93 -38q39 -16 70.5 -35t53.5 -44t34 -56.5t12 -72.5q0 -47 -15 -87t-46.5 -69t-80.5 -45t-118 -16q-75 0 -126 19.5t-82 51t-44 71.5t-13 82v32
h74v-34z" />
    <glyph glyph-name="T" unicode="T" horiz-adv-x="582" 
d="M15 729h552v-67h-242v-753h-74v753h-236v67z" />
    <glyph glyph-name="U" unicode="U" horiz-adv-x="674" 
d="M147 186q0 -69 15 -112t40.5 -67t60 -32t74.5 -8t74 8t59.5 32t40 67t14.5 112v543h74v-543q0 -79 -18 -133.5t-52 -88.5t-82.5 -49.5t-109.5 -15.5t-109.5 15.5t-83 49.5t-53 88.5t-18.5 133.5v543h74v-543z" />
    <glyph glyph-name="V" unicode="V" horiz-adv-x="641" 
d="M548 729h73l-261 -820h-79l-260 820h73l227 -719z" />
    <glyph glyph-name="W" unicode="W" horiz-adv-x="852" 
d="M424 590l-164 -681h-74l-163 820h72l131 -683l164 683h70l163 -685l132 685h72l-163 -820h-74z" />
    <glyph glyph-name="X" unicode="X" horiz-adv-x="626" 
d="M312 251l-206 -342h-81l246 410l-246 410h82l205 -342l206 342h82l-247 -410l247 -410h-81z" />
    <glyph glyph-name="Y" unicode="Y" horiz-adv-x="652" 
d="M288 240l-279 489h81l233 -415l238 415h80l-282 -490v-330h-71v331z" />
    <glyph glyph-name="Z" unicode="Z" horiz-adv-x="636" 
d="M488 661h-433v68h529l1 -51l-446 -701h456v-68h-553v49z" />
    <glyph glyph-name="bracketleft" unicode="[" horiz-adv-x="326" 
d="M89 729h192v-62h-123v-734h123v-64h-192v860z" />
    <glyph glyph-name="backslash" unicode="\" horiz-adv-x="900" 
d="M513 273h-122l-83 -328h-74l-81 328h-111v66h94l-74 301h69l73 -301h139l76 301h67l75 -301h139l74 301h69l-75 -301h90v-66h-106l-81 -328h-74zM631 55l53 218h-107zM272 56l55 217h-107zM408 339h88l-44 170z" />
    <glyph glyph-name="bracketright" unicode="]" horiz-adv-x="326" 
d="M239 -131h-192v64h123v734h-123v62h192v-860z" />
    <glyph glyph-name="asciicircum" unicode="^" horiz-adv-x="400" 
d="M199 699l-95 -171h-76l147 255h48l149 -255h-76z" />
    <glyph glyph-name="underscore" unicode="_" horiz-adv-x="430" 
d="M447 -128h-464v63h464v-63z" />
    <glyph glyph-name="grave" unicode="`" horiz-adv-x="319" 
d="M165 775l106 -168h-69l-133 168h96z" />
    <glyph glyph-name="a" unicode="a" horiz-adv-x="513" 
d="M256 480q58 0 91.5 -20.5t50.5 -46.5l7 57h58v-561h-58l-7 58q-20 -29 -55 -48.5t-87 -19.5q-49 0 -87.5 16t-65.5 51.5t-41.5 91t-14.5 133.5q0 77 14 132t41 90t65.5 51t88.5 16zM396 273q0 29 -6.5 55t-22 45.5t-42.5 31t-68 11.5q-73 0 -105.5 -57t-32.5 -170
q0 -56 6.5 -98.5t22 -71t42 -42.5t67.5 -14q40 0 67 11t43 30.5t22.5 45.5t6.5 56v167z" />
    <glyph glyph-name="b" unicode="b" horiz-adv-x="526" 
d="M269 -101q-35 0 -74.5 17t-68.5 54l-6 -61h-58v797h70v-288q23 28 60.5 45t76.5 17q49 0 88 -13t66 -46t41 -89t14 -141q0 -87 -14.5 -143.5t-42 -89.5t-66 -46t-86.5 -13zM129 106q0 -29 10.5 -54.5t29.5 -45.5t44.5 -31.5t54.5 -11.5q41 0 67.5 11.5t42 38t21.5 70
t6 106.5t-7.5 106.5t-24 70.5t-42.5 38.5t-63 11.5q-29 0 -54.5 -11.5t-44.5 -31.5t-29.5 -46t-10.5 -54v-167z" />
    <glyph glyph-name="c" unicode="c" horiz-adv-x="506" 
d="M256 -101q-51 0 -90 12.5t-65.5 45t-40 89t-13.5 145.5q0 87 13.5 143t39.5 88.5t65.5 45t90.5 12.5q45 0 79.5 -10.5t59.5 -34t41.5 -62.5t25.5 -96h-71q-6 39 -15 66t-24 43t-38 23t-59 7q-39 0 -65 -11.5t-41.5 -38.5t-22 -70.5t-6.5 -106.5t6.5 -106.5t22 -70t42 -38
t66.5 -11.5q36 0 59 7t38 23t23.5 43t14.5 66h71q-9 -57 -25.5 -96t-41.5 -62.5t-59.5 -34t-80.5 -10.5z" />
    <glyph glyph-name="d" unicode="d" horiz-adv-x="519" 
d="M258 -101q-48 0 -86.5 13t-66 46t-42 89.5t-14.5 143.5q0 85 14 141t41 89t66 46t88 13q38 0 75.5 -17t61.5 -45v288h70v-797h-58l-7 61q-28 -37 -67.5 -54t-74.5 -17zM398 273q0 28 -11 54t-29.5 46t-44 31.5t-54.5 11.5q-37 0 -63 -11.5t-42.5 -38.5t-24 -70.5
t-7.5 -106.5t6 -106.5t21.5 -70t42 -38t67.5 -11.5q29 0 54.5 11.5t44 31.5t29.5 45.5t11 54.5v167z" />
    <glyph glyph-name="e" unicode="e" horiz-adv-x="506" 
d="M465 162h-347q2 -58 11 -96t25.5 -61t42 -32.5t60.5 -9.5q25 0 47 4t39.5 16.5t30 36t18.5 62.5h70q-8 -57 -28.5 -93t-48.5 -56t-61.5 -27t-67.5 -7q-47 0 -85.5 12.5t-66 45.5t-42.5 89.5t-15 144.5q0 87 15 143t42.5 88.5t66 45t85.5 12.5q45 0 83.5 -12t66 -43.5
t43.5 -87t16 -141.5v-34zM255 416q-34 0 -58.5 -9.5t-41.5 -32t-26 -58.5t-11 -89h275q-2 54 -11.5 90.5t-26.5 58t-42 31t-58 9.5z" />
    <glyph glyph-name="f" unicode="f" horiz-adv-x="341" 
d="M181 409v-500h-71v500h-89v64h89v99q0 34 7.5 61.5t23.5 47.5t41 31t59 11h62v-60h-40q-26 0 -42 -5t-25 -16.5t-12 -28.5t-3 -41v-99h126v-64h-126z" />
    <glyph glyph-name="g" unicode="g" horiz-adv-x="523" 
d="M253 -136q44 0 71.5 8.5t42.5 27t20.5 47.5t5.5 70v27q-20 -26 -56 -46t-91 -19q-47 0 -83.5 14.5t-62.5 45t-39.5 78t-13.5 114.5q0 133 55 191t154 58q57 0 90.5 -21t52.5 -47l6 58h58v-431q0 -46 -4.5 -89t-25 -76t-62.5 -53t-117 -20q-57 0 -96 11.5t-74 30.5l22 60
q16 -9 31 -16t32 -12t37 -8t47 -3zM395 273q0 29 -10.5 55t-29 45.5t-43.5 31t-55 11.5q-41 0 -67.5 -12.5t-42 -36t-22 -58.5t-6.5 -80t6.5 -79.5t22.5 -58.5t42.5 -36t66.5 -12q33 0 58.5 11.5t43.5 31t27 45.5t9 55v87z" />
    <glyph glyph-name="h" unicode="h" horiz-adv-x="536" 
d="M408 286q0 37 -6 62.5t-19 40.5t-34.5 21.5t-51.5 6.5q-26 0 -50.5 -12t-46 -31.5t-39 -45.5t-27.5 -54v-365h-72v797h72v-318q28 40 69.5 66t96.5 26q99 0 139.5 -48.5t40.5 -142.5v-380h-72v377z" />
    <glyph glyph-name="i" unicode="i" horiz-adv-x="220" 
d="M145 567h-70v115h70v-115zM146 470v-561h-74v561h74z" />
    <glyph glyph-name="j" unicode="j" horiz-adv-x="252" 
d="M-40 -138q74 10 106.5 39t32.5 92v477h70v-477q0 -40 -10 -72.5t-33.5 -57.5t-62.5 -41t-97 -22zM169 567h-70v115h70v-115z" />
    <glyph glyph-name="k" unicode="k" horiz-adv-x="516" 
d="M136 706v-476l259 260h89l-240 -244l246 -337h-79l-212 291l-63 -64v-227h-74v797h74z" />
    <glyph glyph-name="l" unicode="l" horiz-adv-x="222" 
d="M148 706v-797h-74v797h74z" />
    <glyph glyph-name="m" unicode="m" horiz-adv-x="781" 
d="M127 412q24 28 60.5 48.5t87.5 20.5q58 0 88 -21.5t48 -55.5q28 36 66 56.5t92 20.5q81 0 118 -41t37 -114v-417h-71v403q0 32 -5 52.5t-15 32.5t-26 17t-38 5q-51 0 -82 -19t-60 -62v-429h-71v413q0 55 -20.5 76t-71.5 21q-85 0 -131 -90v-420h-71v561h57z" />
    <glyph glyph-name="n" unicode="n" horiz-adv-x="523" 
d="M131 386q33 51 77 72.5t92 21.5q43 0 74 -15t50 -41t28 -60.5t9 -74.5v-380h-72v377q0 30 -4.5 54t-16 41t-30 26.5t-46.5 9.5q-31 0 -56 -12.5t-44 -33.5t-33.5 -47.5t-24.5 -54.5v-360h-72v561h59z" />
    <glyph glyph-name="o" unicode="o" horiz-adv-x="528" 
d="M132 116q0 -37 5.5 -66t20.5 -48.5t41.5 -29.5t68.5 -10t68.5 10t41.5 29.5t20 48.5t5 66v147q0 37 -5 66t-20 48.5t-41.5 29.5t-68.5 10t-68.5 -10t-41.5 -29.5t-20.5 -48.5t-5.5 -66v-147zM62 264q0 114 53.5 165t152.5 51t152 -51t53 -165v-149q0 -114 -53 -165
t-152 -51t-152.5 51t-53.5 165v149z" />
    <glyph glyph-name="p" unicode="p" horiz-adv-x="526" 
d="M62 -199v669h59l5 -60q22 32 57.5 51t85.5 19q49 0 88 -14t66 -44t41 -77.5t14 -113.5q0 -68 -14 -116t-40 -78t-62.5 -44t-82.5 -14q-48 0 -85 16t-63 50v-244h-69zM130 186q0 -30 9 -56t27 -45.5t43.5 -30.5t58.5 -11q40 0 66.5 12t42.5 36t22 58.5t6 79.5t-6.5 80
t-22 58.5t-42 36t-66.5 12.5q-30 0 -55.5 -11t-43.5 -30.5t-28.5 -45.5t-10.5 -56v-87z" />
    <glyph glyph-name="q" unicode="q" horiz-adv-x="519" 
d="M394 -199v244q-26 -34 -63.5 -50t-84.5 -16q-46 0 -82.5 14t-62.5 44t-40 78t-14 116q0 66 14 113.5t41 77.5t66 44t88 14q50 0 85.5 -19t57.5 -51l5 60h59v-669h-69zM395 273q0 30 -10.5 56t-28.5 45.5t-43.5 30.5t-55.5 11q-40 0 -66.5 -12.5t-42 -36t-22 -58.5
t-6.5 -80t6 -79.5t22 -58.5t42 -36t67 -12q33 0 58.5 11t43.5 30.5t27 45.5t9 56v87z" />
    <glyph glyph-name="r" unicode="r" horiz-adv-x="356" 
d="M136 415q12 18 27 30.5t31 20.5t32 11.5t29 3.5q32 0 52.5 -7t34.5 -15l-21 -59q-11 7 -28 12.5t-43 4.5q-45 -2 -70.5 -33t-36.5 -83v-392h-71v561h58z" />
    <glyph glyph-name="s" unicode="s" horiz-adv-x="501" 
d="M253 -101q-54 0 -91.5 14t-61 37.5t-34.5 55t-12 66.5h70q2 -33 10.5 -54.5t24.5 -34t40 -17.5t57 -5q59 0 96.5 18t37.5 62q0 28 -7.5 46t-21.5 29.5t-33.5 19.5t-43.5 17l-82 29q-75 26 -111.5 65t-36.5 97q0 69 51.5 102.5t139.5 33.5q44 0 78.5 -7.5t59 -25.5
t37.5 -47.5t13 -72.5h-69q-4 49 -30 69.5t-88 21.5q-61 1 -91 -16.5t-30 -62.5q0 -21 8 -36.5t24.5 -28t41 -23t56.5 -22.5l78 -28q28 -10 51.5 -22.5t41 -30.5t27 -42.5t9.5 -57.5q0 -35 -15.5 -63t-43 -47t-66 -29t-84.5 -10z" />
    <glyph glyph-name="t" unicode="t" horiz-adv-x="336" 
d="M179 409v-367q0 -26 2.5 -40t11.5 -26t26 -16.5t36 -3.5t38 4t33 6l6 -52q-19 -5 -48 -11t-60 -4q-33 1 -55 13t-35.5 32t-19.5 46t-6 56v363h-87v64h87v135h71v-135h123v-64h-123z" />
    <glyph glyph-name="u" unicode="u" horiz-adv-x="516" 
d="M391 -7q-32 -51 -76.5 -72.5t-91.5 -21.5q-44 0 -74.5 15t-49.5 41t-28 60.5t-9 74.5v380h72v-377q0 -30 4.5 -54t16 -41t30 -26.5t46.5 -9.5q31 0 56 12.5t44 33.5t33.5 47.5t24.5 54.5v360h72v-561h-59z" />
    <glyph glyph-name="v" unicode="v" horiz-adv-x="492" 
d="M97 470l147 -461l152 461h71l-189 -561h-64l-189 561h72z" />
    <glyph glyph-name="w" unicode="w" horiz-adv-x="693" 
d="M347 356l-121 -447h-63l-149 561h68l113 -449l119 449h66l118 -449l114 449h68l-149 -561h-63z" />
    <glyph glyph-name="x" unicode="x" horiz-adv-x="506" 
d="M253 136l-165 -227h-77l204 280l-204 281h77l165 -228l166 228h77l-204 -281l204 -280h-77z" />
    <glyph glyph-name="y" unicode="y" horiz-adv-x="469" 
d="M218 19l-206 451h73l163 -372l142 372h66l-209 -556q-21 -57 -55.5 -81t-91.5 -25q-18 0 -39 4.5t-40 12.5l9 60q14 -6 31 -10t27 -4q20 0 35 2t26.5 9t21 21.5t18.5 38.5z" />
    <glyph glyph-name="z" unicode="z" horiz-adv-x="446" 
d="M35 470h371l2 -59l-299 -439h306v-63h-388v59l297 439h-289v63z" />
    <glyph glyph-name="braceleft" unicode="{" horiz-adv-x="356" 
d="M55 330q18 0 30 8t19 20.5t9.5 28t2.5 31.5v207q0 26 8 45.5t20.5 32.5t28.5 19.5t33 6.5h103v-62h-67q-34 0 -44.5 -17.5t-10.5 -50.5v-181q0 -45 -16.5 -74.5t-39.5 -43.5q24 -14 40 -43t16 -76v-183q0 -33 10.5 -50.5t44.5 -17.5h67v-61h-101q-17 0 -33.5 6.5
t-29.5 19.5t-21 33t-8 47v206q0 16 -2.5 32t-9.5 28.5t-19 20t-30 7.5h-32v61h32z" />
    <glyph glyph-name="bar" unicode="|" horiz-adv-x="225" 
d="M150 779v-952h-74v952h74z" />
    <glyph glyph-name="braceright" unicode="}" horiz-adv-x="356" 
d="M333 330v-61h-32q-18 0 -30 -7.5t-19 -20t-9.5 -28.5t-2.5 -32v-206q0 -27 -8 -47t-21 -33t-29.5 -19.5t-33.5 -6.5h-101v61h67q34 0 44.5 17.5t10.5 50.5v183q0 47 16 76t39 43q-23 14 -39 43.5t-16 74.5v181q0 33 -10.5 50.5t-44.5 17.5h-67v62h103q16 0 32.5 -6.5
t29 -19.5t20.5 -32.5t8 -45.5v-207q0 -16 2.5 -31.5t9.5 -28t19 -20.5t30 -8h32z" />
    <glyph glyph-name="asciitilde" unicode="~" horiz-adv-x="574" 
d="M50 221q0 41 9 70t24.5 47t36 26t41.5 8q15 0 27.5 -1.5t27 -6.5t33 -14t45.5 -23q46 -24 70 -33t43 -9q16 0 26 3.5t16 13t8 27t3 45.5h61q0 -45 -8.5 -74t-23 -46t-33.5 -23.5t-40 -6.5q-15 0 -29 2.5t-29.5 7.5t-34.5 14t-43 21q-20 10 -34 18t-26 13.5t-23.5 8.5
t-24.5 3q-16 0 -26.5 -3.5t-17.5 -13.5t-10.5 -28t-4.5 -46h-63z" />
    <glyph glyph-name="exclamdown" unicode="&#xa1;" horiz-adv-x="240" 
d="M153 277l8 -485h-83l7 485h68zM156 482v-95h-77v95h77z" />
    <glyph glyph-name="currency" unicode="&#xa4;" horiz-adv-x="560" 
d="M278 533q35 0 65 -12t53 -32l73 76l35 -37l-78 -74q15 -21 25 -51.5t10 -66.5q0 -42 -10.5 -73.5t-24.5 -51.5l75 -76l-35 -34l-71 77q-26 -24 -58 -35.5t-61 -11.5q-32 0 -63 11.5t-53 31.5l-71 -74l-33 34l73 74q-15 21 -26 52.5t-11 69.5q0 40 11.5 71.5t27.5 53.5
l-75 73l35 37l71 -76q23 20 53 32t63 12zM277 473q-29 0 -51.5 -11t-38.5 -30.5t-24.5 -45t-8.5 -55.5q0 -37 11.5 -63.5t29.5 -43.5t39.5 -25t41.5 -8q21 0 43 8t40 25t29 44.5t11 66.5q0 26 -8 50.5t-23.5 44t-38 31.5t-52.5 12z" />
    <glyph glyph-name="section" unicode="&#xa7;" horiz-adv-x="450" 
d="M201 -52q-41 0 -75 9.5t-60 26.5l19 57q22 -14 53.5 -24.5t64.5 -10.5q53 0 84.5 21t31.5 57q0 38 -27.5 60.5t-81.5 43.5q-68 26 -100.5 62.5t-32.5 81.5q0 39 20.5 69t58.5 49q-79 53 -79 120q0 63 45.5 99t123.5 36q34 0 64.5 -8t50.5 -20l-18 -54q-16 9 -41.5 17
t-57.5 8q-46 0 -73.5 -18.5t-27.5 -53.5q0 -36 29 -56.5t81 -41.5q61 -25 96.5 -62t35.5 -90q0 -77 -70 -118q34 -24 52 -53t18 -67q0 -66 -48.5 -103t-135.5 -37zM319 322q0 38 -27 59t-81 44q-31 -13 -49.5 -37t-18.5 -50q0 -24 12 -40.5t30 -28.5t39 -20.5t39 -15.5
q26 14 41 40.5t15 48.5z" />
    <glyph glyph-name="dieresis" unicode="&#xa8;" horiz-adv-x="520" 
d="M197 561h-91v91h91v-91zM414 561h-91v91h91v-91z" />
    <glyph glyph-name="ordfeminine" unicode="&#xaa;" horiz-adv-x="380" 
d="M260 471q-23 -21 -51.5 -34t-56.5 -13q-26 0 -44.5 9t-30.5 23.5t-18 32.5t-6 37q0 62 56 95.5t146 35.5q0 10 -3 24t-10.5 26t-22.5 20.5t-39 8.5q-19 0 -42.5 -8.5t-43.5 -22.5l-18 48q23 17 53 26.5t60 9.5q39 0 64.5 -12.5t39.5 -32.5t19.5 -45.5t5.5 -52.5v-213h-58
v38zM167 478q15 0 31 5t29.5 15t22 23.5t8.5 31.5v52q-22 0 -47 -2.5t-46 -10.5t-34.5 -22t-13.5 -36q0 -29 13.5 -42.5t36.5 -13.5z" />
    <glyph glyph-name="uni00AD" unicode="&#xad;" horiz-adv-x="500" 
d="M103 331h294v-61h-294v61z" />
    <glyph glyph-name="degree" unicode="&#xb0;" horiz-adv-x="420" 
d="M327 621q0 -24 -9.5 -45t-26 -37t-37.5 -25.5t-44 -9.5t-44 9.5t-37.5 25.5t-26 37t-9.5 45t9.5 45t26 37t37.5 25.5t44 9.5t44 -9.5t37.5 -25.5t26 -37t9.5 -45zM276 621q0 29 -18 47.5t-48 18.5q-31 0 -48.5 -18.5t-17.5 -47.5t17.5 -48t48.5 -19q30 0 48 19t18 48z
" />
    <glyph glyph-name="plusminus" unicode="&#xb1;" horiz-adv-x="660" 
d="M106 3v58h448v-58h-448zM360 616v-196h195v-61h-195v-197h-60v197h-195v61h195v196h60z" />
    <glyph glyph-name="uni00B2" unicode="&#xb2;" horiz-adv-x="340" 
d="M56 416v39q46 45 78 77t51.5 56.5t28.5 43.5t11 38q2 27 -12.5 45.5t-51.5 18.5q-21 0 -41.5 -13.5t-40.5 -33.5l-30 42q26 26 57.5 41t63.5 15q27 0 47.5 -10t34 -25.5t20.5 -34.5t7 -38q0 -26 -9.5 -49.5t-27.5 -48.5t-45 -52.5t-62 -60.5h155v-50h-234z" />
    <glyph glyph-name="uni00B3" unicode="&#xb3;" horiz-adv-x="340" 
d="M156 412q-28 0 -55.5 8.5t-50.5 21.5l25 44q17 -9 37 -16t43 -7q44 0 62 20t18 41q0 34 -27 48.5t-64 14.5h-26v44h26q29 0 53.5 14t24.5 43q0 18 -13.5 32.5t-47.5 14.5q-18 0 -38.5 -9t-34.5 -19l-23 41q23 17 50.5 27.5t54.5 10.5t47 -8t33.5 -21t20.5 -29.5t7 -32.5
q0 -22 -11 -44t-39 -39q35 -17 49 -38t14 -51q0 -21 -8.5 -41t-25.5 -35.5t-42 -25t-59 -9.5z" />
    <glyph glyph-name="acute" unicode="&#xb4;" horiz-adv-x="400" 
d="M199 746h98l-113 -144h-70z" />
    <glyph glyph-name="paragraph" unicode="&#xb6;" horiz-adv-x="560" 
d="M271 265h-15q-29 0 -61.5 12t-59.5 37t-45 62t-18 87q0 40 12 80.5t42.5 73.5t83.5 53.5t134 20.5q38 0 65 -2t46 -6v-746h-49v701h-84v-701h-51v328z" />
    <glyph glyph-name="periodcentered" unicode="&#xb7;" horiz-adv-x="300" 
d="M200 251h-101v101h101v-101z" />
    <glyph glyph-name="cedilla" unicode="&#xb8;" horiz-adv-x="300" 
d="M185 -13l-16 -37q32 -5 50 -25t18 -48q0 -20 -8 -34t-21.5 -22.5t-32 -12.5t-38.5 -4q-21 0 -41.5 4t-33.5 12l15 41q14 -8 30 -10.5t27 -2.5q17 0 29 7.5t12 23.5q0 22 -20 31.5t-57 13.5l33 76z" />
    <glyph glyph-name="uni00B9" unicode="&#xb9;" horiz-adv-x="340" 
d="M85 738l88 47h42v-364h-54v307l-55 -30z" />
    <glyph glyph-name="ordmasculine" unicode="&#xba;" horiz-adv-x="420" 
d="M212 795q36 0 66 -13.5t52 -38t34.5 -58t12.5 -72.5q0 -49 -15 -84.5t-39.5 -59t-55 -34.5t-60.5 -11q-34 0 -63.5 13.5t-52 37.5t-35.5 57.5t-13 74.5q0 43 13.5 77.5t37 59t54 38t64.5 13.5zM211 740q-26 0 -44.5 -10.5t-31.5 -28.5t-19 -41.5t-6 -50.5q0 -61 28 -95.5
t71 -34.5q42 0 71 34.5t29 98.5q0 24 -5.5 47t-17.5 41t-30.5 29t-44.5 11z" />
    <glyph glyph-name="onequarter" unicode="&#xbc;" horiz-adv-x="720" 
d="M52 598l88 47h42v-364h-54v307l-55 -30zM155 -36h-49l429 683h49zM414 51v40l152 260h60v-253h44v-47h-44v-68h-52v68h-160zM473 98h101v177z" />
    <glyph glyph-name="onehalf" unicode="&#xbd;" horiz-adv-x="720" 
d="M435 -17v39q46 45 78 77t51.5 56.5t28.5 43.5t11 38q2 27 -12.5 45.5t-51.5 18.5q-21 0 -41.5 -13.5t-40.5 -33.5l-30 42q26 26 57.5 41t63.5 15q27 0 47.5 -10t34 -25.5t20.5 -34.5t7 -38q0 -26 -9.5 -49.5t-27.5 -48.5t-45 -52.5t-62 -60.5h155v-50h-234zM131 -36h-49
l429 683h49zM52 598l88 47h42v-364h-54v307l-55 -30z" />
    <glyph glyph-name="threequarters" unicode="&#xbe;" horiz-adv-x="720" 
d="M191 -36h-49l429 683h49zM155 274q-28 0 -55.5 8.5t-50.5 21.5l25 44q17 -9 37 -16t43 -7q44 0 62 20t18 41q0 34 -27 48.5t-64 14.5h-26v44h26q29 0 53.5 14t24.5 43q0 18 -13.5 32.5t-47.5 14.5q-18 0 -38.5 -9t-34.5 -19l-23 41q23 17 50.5 27.5t54.5 10.5t47 -8
t33.5 -21t20.5 -29.5t7 -32.5q0 -22 -11 -44t-39 -39q35 -17 49 -38t14 -51q0 -21 -8.5 -41t-25.5 -35.5t-42 -25t-59 -9.5zM413 51v40l152 260h60v-253h44v-47h-44v-68h-52v68h-160zM472 98h101v177z" />
    <glyph glyph-name="questiondown" unicode="&#xbf;" horiz-adv-x="440" 
d="M268 267q0 -21 -1.5 -42.5t-7.5 -43.5t-17.5 -45t-32.5 -45q-39 -43 -60.5 -76t-21.5 -70q0 -43 27 -69.5t75 -26.5q38 0 73 16.5t61 45.5l35 -45q-37 -40 -82.5 -59.5t-95.5 -19.5q-42 0 -74 12t-53.5 32t-32 46.5t-10.5 55.5q0 51 27.5 92t68.5 85q19 21 30.5 41
t17.5 39t8 38.5t2 39.5v32h64v-33zM274 482v-95h-77v95h77z" />
    <glyph glyph-name="AE" unicode="&#xc6;" horiz-adv-x="870" 
d="M480 293v-262h346v-65h-419v184h-218l-87 -184h-74l328 696h454v-65h-330v-240h314v-64h-314zM216 207h191v372l-14 2z" />
    <glyph glyph-name="Eth" unicode="&#xd0;" horiz-adv-x="650" 
d="M85 341v321h213q79 0 135.5 -25.5t93 -71.5t53.5 -110t17 -140q0 -77 -17 -141t-53.5 -110t-93 -72t-135.5 -26h-213v318h-77v57h77zM305 31q46 0 86 14.5t68.5 48t45 87.5t16.5 134q0 79 -17 133t-47.5 87t-72 47.5t-89.5 14.5h-138v-256h145v-57h-145v-253h148z" />
    <glyph glyph-name="multiply" unicode="&#xd7;" horiz-adv-x="650" 
d="M324 257l-166 -228h-76l204 280l-204 281h76l166 -229l167 229h76l-205 -281l205 -280h-76z" />
    <glyph glyph-name="Oslash" unicode="&#xd8;" horiz-adv-x="700" 
d="M353 668q27 0 53.5 -5t53.5 -14l19 45h64l-31 -73q64 -47 98.5 -124.5t34.5 -178.5q0 -89 -23.5 -156.5t-64 -114t-95.5 -70t-118 -23.5q-25 0 -49 4.5t-49 12.5l-27 -66h-62l38 92q-67 45 -103.5 124t-36.5 185q0 81 22 148t61.5 114.5t94 73.5t120.5 26zM350 607
q-56 0 -97.5 -25t-69.5 -66.5t-41.5 -95.5t-13.5 -112q0 -72 23.5 -136t70.5 -109l214 524q-44 20 -86 20zM572 314q0 65 -21 128.5t-65 111.5l-215 -524q39 -14 78 -14q54 0 95.5 23.5t70 64t43 95t14.5 115.5z" />
    <glyph glyph-name="Thorn" unicode="&#xde;" horiz-adv-x="537" 
d="M279 522q106 0 157 -54t51 -154q0 -97 -51.5 -153t-156.5 -56h-123v-139h-72v696h72v-140h123zM275 170q64 0 103 35t39 107t-39 108.5t-103 36.5h-119v-287h119z" />
    <glyph glyph-name="germandbls" unicode="&#xdf;" horiz-adv-x="610" 
d="M383 -46q-41 0 -75 9.5t-60 26.5l19 57q22 -14 53.5 -24.5t64.5 -10.5q53 0 84.5 21t31.5 57q0 38 -27.5 61t-81.5 44q-133 52 -133 143q0 28 8.5 48t22.5 34.5t31 24.5t34 18q29 14 50.5 30t21.5 46q0 18 -10 31t-27.5 21t-39.5 12t-46 4q-34 0 -61.5 -11t-46.5 -35.5
t-29 -64.5t-10 -97v-433h-73v435q0 72 15.5 123t44 84t69 48.5t91.5 15.5q36 0 70 -7t61 -23.5t43 -42.5t15 -65q-1 -24 -9.5 -41.5t-21.5 -30t-29.5 -22t-32.5 -17.5q-29 -15 -52 -32t-23 -47q0 -36 29 -58t81 -43q61 -25 96.5 -60.5t35.5 -88.5q0 -66 -48.5 -103
t-135.5 -37z" />
    <glyph glyph-name="ae" unicode="&#xe6;" horiz-adv-x="820" 
d="M581 13q37 0 76 10.5t74 30.5l15 -46q-43 -27 -85 -39.5t-88 -12.5q-55 0 -103.5 24.5t-83.5 72.5q-38 -48 -87.5 -73.5t-119.5 -25.5q-35 0 -61 12t-42.5 31.5t-24.5 45t-8 51.5q0 45 22 79t61.5 57.5t95 35t122.5 11.5v17q0 16 -4 37t-16.5 40t-37 32t-65.5 13
q-29 0 -63.5 -12.5t-60.5 -29.5l-19 51q29 22 70.5 35t86.5 13q60 0 98.5 -24t60.5 -62q32 40 73 63t93 23q58 0 98 -21.5t64.5 -58t34.5 -86t8 -105.5h-349v-24q8 -85 53.5 -125t111.5 -40zM346 222q-35 2 -75 -1.5t-74.5 -16.5t-57.5 -37t-23 -62q0 -49 23.5 -71.5
t61.5 -22.5q27 0 50 8t41.5 20.5t31.5 29t18 33.5q2 8 3 15.5t1 15.5v89zM698 258q-1 21 -8 48.5t-22.5 51.5t-41.5 41t-66 17t-66 -14.5t-42.5 -36.5t-24.5 -46.5t-11 -45.5v-15h282z" />
    <glyph glyph-name="eth" unicode="&#xf0;" horiz-adv-x="560" 
d="M338 608q24 -17 49 -42q51 -52 82 -131t31 -185q0 -67 -16.5 -121.5t-46.5 -93.5t-72.5 -60t-94.5 -21t-92.5 20.5t-68.5 54.5t-42.5 78t-14.5 92q0 49 14.5 90t40.5 70.5t62 45.5t79 16q54 0 100 -19t78 -64q-7 62 -29 106.5t-54 76.5q-27 25 -57 45l-120 -97l-39 48
q24 20 48.5 39t48.5 39q-55 17 -113 16l7 62q45 -2 85 -9.5t76 -23.5q20 16 38.5 31t38.5 31l39 -48zM268 15q38 0 68 16t50.5 44.5t31.5 67t11 83.5q0 23 -10 43q-21 41 -59.5 67.5t-83.5 26.5q-75 0 -113 -46t-38 -125q0 -81 36.5 -129t106.5 -48z" />
    <glyph glyph-name="divide" unicode="&#xf7;" horiz-adv-x="550" 
d="M337 462q0 -27 -18 -44.5t-45 -17.5t-44.5 17.5t-17.5 44.5t17.5 45t44.5 18t45 -18t18 -45zM47 333h456v-65h-456v65zM337 138q0 -27 -18 -44.5t-45 -17.5t-44.5 17.5t-17.5 44.5t17.5 45t44.5 18t45 -18t18 -45z" />
    <glyph glyph-name="oslash" unicode="&#xf8;" horiz-adv-x="580" 
d="M294 473q30 0 65 -8l24 57h58l-33 -79q54 -32 83.5 -89.5t29.5 -135.5q0 -69 -21 -119t-54.5 -82.5t-75.5 -47.5t-84 -15q-34 0 -74 12l-21 -51h-57l30 74q-48 32 -76.5 88t-28.5 133q0 61 18.5 110t50 83t74.5 52t92 18zM449 215q0 43 -15.5 88.5t-49.5 80.5l-149 -362
q17 -8 30 -10t25 -2q34 0 63 14.5t50.5 41.5t33.5 65t12 84zM292 417q-41 0 -71 -17.5t-50 -46t-30 -65t-10 -75.5q0 -98 58 -162l147 359q-13 3 -24 5t-20 2z" />
    <glyph glyph-name="thorn" unicode="&#xfe;" horiz-adv-x="570" 
d="M144 396q20 29 40 47.5t42 29.5t46.5 15.5t53.5 4.5q45 0 82 -18.5t64 -52t42 -80t15 -102.5q0 -66 -18.5 -116t-49.5 -83.5t-70 -50t-79 -16.5q-24 0 -45.5 3t-42 12t-40 25.5t-40.5 43.5v-271h-72v895h72v-286zM144 184q0 -30 11 -56.5t31 -47t47.5 -32.5t60.5 -12
q38 0 68 14.5t50.5 41t31.5 63.5t11 82q0 39 -10.5 74.5t-30.5 62.5t-49.5 42.5t-68.5 15.5q-32 0 -59 -13t-47.5 -34t-32.5 -48.5t-13 -56.5v-96z" />
    <glyph glyph-name="dcroat" unicode="&#x111;" horiz-adv-x="620" 
d="M499 553v-587h-63v78q-20 -29 -40.5 -46.5t-42 -27t-45.5 -13t-49 -3.5q-41 0 -79.5 16.5t-69.5 50t-49.5 83.5t-18.5 116q0 56 15 102.5t42 80t64 52t82 18.5q59 0 105 -20.5t78 -71.5l-1 172h-139v64h139v75h72v-75h89v-64h-89zM427 254q0 30 -12 58.5t-32.5 50.5
t-48 35.5t-59.5 13.5q-39 0 -68.5 -15.5t-49.5 -42.5t-30.5 -62.5t-10.5 -74.5q0 -45 11 -82t31.5 -63.5t50.5 -41t68 -14.5q33 0 60.5 12t47.5 32.5t31 47t11 56.5v90z" />
    <glyph glyph-name="Hbar" unicode="&#x126;" horiz-adv-x="720" 
d="M605 473v-507h-73v327h-345v-327h-73v507h-70v64h70v125h73v-125h345v125h73v-125h70v-64h-70zM187 357h345v116h-345v-116z" />
    <glyph glyph-name="hbar" unicode="&#x127;" horiz-adv-x="610" 
d="M188 553v-180q16 27 38 46t46 31t49 17.5t47 5.5q42 0 74 -12.5t54 -35t33.5 -53.5t11.5 -68v-338h-70v339q0 52 -28.5 81.5t-84.5 29.5q-26 0 -51.5 -10.5t-48.5 -28t-41 -40.5t-29 -48v-323h-70v587h-89v64h89v75h70v-75h141v-64h-141z" />
    <glyph glyph-name="dotlessi" unicode="&#x131;" horiz-adv-x="240" 
d="M85 465h70v-499h-70v499z" />
    <glyph glyph-name="IJ" unicode="&#x132;" horiz-adv-x="620" 
d="M157 -34h-73v696h73v-696zM534 662v-475q0 -67 -16 -112t-43.5 -72t-64.5 -38t-79 -11q-21 0 -45 2.5t-41 7.5l10 63q14 -3 31 -5t38 -2q31 0 56.5 6.5t43.5 25.5t27.5 52t9.5 87v471h73z" />
    <glyph glyph-name="ij" unicode="&#x133;" horiz-adv-x="460" 
d="M83 465h70v-499h-70v499zM153 560h-70v102h70v-102zM177 -174q61 8 94.5 35.5t33.5 92.5v511h70v-511q0 -40 -10 -72.5t-32.5 -56t-59 -38.5t-89.5 -19zM375 560h-70v102h70v-102z" />
    <glyph glyph-name="kgreenlandic" unicode="&#x138;" horiz-adv-x="482" 
d="M243 259l209 -293h-77l-174 250l-59 -60v-190h-69v499h69v-227l220 227h83z" />
    <glyph glyph-name="Ldot" unicode="&#x13f;" horiz-adv-x="520" 
d="M157 662v-631h321v-65h-394v696h73zM411 304h-101v101h101v-101z" />
    <glyph glyph-name="ldot" unicode="&#x140;" horiz-adv-x="440" 
d="M153 692v-726h-70v726h70zM370 283h-101v101h101v-101z" />
    <glyph glyph-name="Lslash" unicode="&#x141;" horiz-adv-x="550" 
d="M197 266v-235h321v-65h-394v259l-105 -59v72l105 59v365h73v-324l190 107v-72z" />
    <glyph glyph-name="lslash" unicode="&#x142;" horiz-adv-x="340" 
d="M203 349v-383h-70v327l-58 -47l-39 48l97 78v320h70v-263l62 50l39 -48z" />
    <glyph glyph-name="napostrophe" unicode="&#x149;" horiz-adv-x="690" 
d="M558 298q0 29 -10.5 49.5t-28.5 33t-41 18.5t-47 6q-18 0 -37 -6t-37.5 -17t-34.5 -27.5t-27 -37.5v-362h-70v496h70v-66q16 21 35.5 36t40.5 24t41.5 13t38.5 4q36 0 68 -11t56 -32t38 -51t14 -69v-344h-69v343zM152 475q0 -57 -24 -94.5t-82 -48.5v44q30 5 45.5 25.5
t15.5 61.5v10h-57v101h102v-99z" />
    <glyph glyph-name="Eng" unicode="&#x14a;" horiz-adv-x="665" 
d="M584 -94q0 -109 -92 -109q-53 0 -97 55l27 31q12 -13 26.5 -21.5t28.5 -8.5q21 0 29.5 11.5t8.5 34.5v66l-351 627l-13 -3v-623h-67v696h110l323 -580v580h67v-756z" />
    <glyph glyph-name="eng" unicode="&#x14b;" horiz-adv-x="543" 
d="M406 309q0 29 -10.5 49.5t-28.5 33t-41 18.5t-47 6q-18 0 -37 -6t-37.5 -17t-34.5 -27.5t-27 -37.5v-362h-70v496h70v-66q16 21 35.5 36t40.5 24t41.5 13t38.5 4q36 0 68 -11t56 -32t38 -51t14 -69v-404q0 -109 -92 -109q-53 0 -97 55l27 31q12 -13 26.5 -21.5t28.5 -8.5
q21 0 29.5 11.5t8.5 34.5v410z" />
    <glyph glyph-name="OE" unicode="&#x152;" horiz-adv-x="900" 
d="M513 293v-262h346v-65h-509q-65 0 -119 22.5t-93 65.5t-61 106.5t-22 145.5q0 85 21.5 151.5t60.5 112t93 69t120 23.5h493v-65h-330v-240h314v-64h-314zM128 306q0 -62 14.5 -113.5t43 -88t70 -56.5t94.5 -20h90v573h-90q-56 0 -97.5 -23t-69.5 -62.5t-41.5 -93.5
t-13.5 -116z" />
    <glyph glyph-name="oe" unicode="&#x153;" horiz-adv-x="900" 
d="M670 13q38 0 75.5 9.5t76.5 32.5l18 -43q-43 -28 -86 -42t-92 -14q-60 0 -110 26.5t-81 80.5q-31 -53 -82.5 -81t-112.5 -28q-48 0 -90 17t-73.5 50t-49.5 80.5t-18 108.5q0 64 18 113t49 82.5t73 50.5t91 17q61 0 111.5 -26.5t81.5 -78.5q26 49 72 77t108 28
q58 0 98 -21.5t64.5 -59t34.5 -87.5t8 -106h-352q1 -48 15 -83.5t36.5 -58t52.5 -33.5t64 -11zM276 417q-41 0 -71 -16.5t-49.5 -45t-29 -66t-9.5 -79.5q0 -48 12 -85t33 -62.5t50 -39t64 -13.5q71 0 115.5 52t44.5 148q0 42 -9.5 79.5t-29 66t-49.5 45t-72 16.5zM787 258
q-1 22 -7.5 49.5t-22.5 51.5t-42 40.5t-66 16.5q-42 0 -69.5 -17t-44.5 -41t-24.5 -51.5t-9.5 -48.5h286z" />
    <glyph glyph-name="Tbar" unicode="&#x166;" horiz-adv-x="530" 
d="M298 397v-431h-73v431h-148v64h148v136h-198v65h476v-65h-205v-136h159v-64h-159z" />
    <glyph glyph-name="tbar" unicode="&#x167;" horiz-adv-x="333" 
d="M117 312v95h-84v58h84v131h70v-131h117v-58h-117v-95h117v-58h-117v-155q0 -25 3 -41t16 -29q9 -9 21 -12.5t25.5 -4t27.5 0.5t27 3l7 -52q-8 -3 -19 -5t-23 -3t-23 -1.5t-20 -0.5q-33 1 -55 13.5t-34.5 33t-17.5 46t-5 52.5v155h-84v58h84z" />
    <glyph glyph-name="caron" unicode="&#x2c7;" horiz-adv-x="360" 
d="M219 602h-80l-91 145h72l60 -103l61 103h70z" />
    <glyph glyph-name="uni02D0" unicode="&#x2d0;" horiz-adv-x="300" 
d="M152 378l-87 149h170zM236 72h-171l87 149z" />
    <glyph glyph-name="breve" unicode="&#x2d8;" horiz-adv-x="375" 
d="M189 633q-48 0 -82.5 29t-39.5 84h64q3 -29 18 -46t40 -17t40 17t18 46h64q-5 -55 -39.5 -84t-82.5 -29z" />
    <glyph glyph-name="dotaccent" unicode="&#x2d9;" horiz-adv-x="300" 
d="M108 659v85h84v-85h-84z" />
    <glyph glyph-name="ring" unicode="&#x2da;" horiz-adv-x="300" 
d="M240 676q0 -20 -7.5 -36.5t-20 -28.5t-28.5 -19t-34 -7t-34.5 7t-29 19t-20 28.5t-7.5 36.5t7.5 36.5t20.5 28.5t29 18.5t34 6.5q17 0 33 -7t29 -19t20.5 -28.5t7.5 -35.5zM189 675q0 16 -11 28t-28 12q-18 0 -29 -12t-11 -28t11 -27.5t29 -11.5q17 0 28 11.5t11 27.5z
" />
    <glyph glyph-name="ogonek" unicode="&#x2db;" horiz-adv-x="300" 
d="M194 -42q-30 -7 -49.5 -28t-19.5 -48q0 -18 13.5 -26.5t33.5 -8.5q12 0 27 3.5t25 8.5l12 -29q-17 -11 -38.5 -18t-47.5 -7q-16 0 -31.5 4t-27.5 13t-19.5 23.5t-7.5 35.5q0 20 9 39t24.5 34.5t37 26.5t45.5 16z" />
    <glyph glyph-name="hungarumlaut" unicode="&#x2dd;" horiz-adv-x="440" 
d="M133 746h98l-113 -144h-70zM280 746h98l-113 -144h-70z" />
    <glyph glyph-name="Alpha" unicode="&#x391;" horiz-adv-x="600" 
d="M28 -34l229 696h85l229 -696h-72l-59 184h-282l-58 -184h-72zM299 594l-123 -387h246z" />
    <glyph glyph-name="Beta" unicode="&#x392;" horiz-adv-x="570" 
d="M275 662q102 0 156 -42t54 -130q0 -52 -22.5 -92.5t-79.5 -67.5q71 -14 103 -59t32 -106q0 -102 -52.5 -150.5t-155.5 -48.5h-226v696h191zM297 31q34 0 61.5 7.5t47 23.5t30.5 42t11 63q0 33 -12 56.5t-33 39t-50.5 23t-64.5 7.5h-131v-262h141zM264 357q66 0 108 31.5
t42 99.5q0 30 -11 51t-30 33.5t-45 18.5t-55 6h-117v-240h108z" />
    <glyph glyph-name="Gamma" unicode="&#x393;" horiz-adv-x="530" 
d="M487 662v-65h-330v-631h-73v696h403z" />
    <glyph glyph-name="uni0394" unicode="&#x394;" horiz-adv-x="640" 
d="M29 -34l269 696h56l256 -696h-581zM325 561l-204 -531h398z" />
    <glyph glyph-name="Epsilon" unicode="&#x395;" horiz-adv-x="560" 
d="M157 293v-262h346v-65h-419v696h403v-65h-330v-240h314v-64h-314z" />
    <glyph glyph-name="Zeta" unicode="&#x396;" horiz-adv-x="570" 
d="M429 597h-373v65h463v-49l-385 -582h390v-65h-481v46z" />
    <glyph glyph-name="Eta" unicode="&#x397;" horiz-adv-x="660" 
d="M157 357h345v305h73v-696h-73v327h-345v-327h-73v696h73v-305z" />
    <glyph glyph-name="Theta" unicode="&#x398;" horiz-adv-x="700" 
d="M350 -46q-65 0 -119 24t-93 69.5t-61 111t-22 147.5q0 85 21.5 152.5t60.5 114t93 71t120 24.5t120 -24.5t93 -71t60.5 -114t21.5 -152.5q0 -82 -22 -147.5t-61 -111t-93 -69.5t-119 -24zM350 607q-56 0 -97.5 -24t-69.5 -65t-41.5 -95.5t-13.5 -116.5t14.5 -115t43 -92
t70 -61t94.5 -22t94.5 22t70 61t43 92t14.5 115t-13.5 116.5t-41.5 95.5t-69.5 65t-97.5 24zM204 273v64h292v-64h-292z" />
    <glyph glyph-name="Iota" unicode="&#x399;" horiz-adv-x="241" 
d="M157 -34h-73v696h73v-696z" />
    <glyph glyph-name="Kappa" unicode="&#x39a;" horiz-adv-x="593" 
d="M157 325l312 337h86l-272 -295l292 -401h-87l-253 350l-78 -84v-266h-73v696h73v-337z" />
    <glyph glyph-name="Lambda" unicode="&#x39b;" horiz-adv-x="600" 
d="M101 -34h-73l229 696h85l229 -696h-73l-198 625z" />
    <glyph glyph-name="Mu" unicode="&#x39c;" horiz-adv-x="780" 
d="M628 -34v602l-191 -602h-94l-191 608v-608h-68v696h109l197 -635l197 635h109v-696h-68z" />
    <glyph glyph-name="Nu" unicode="&#x39d;" horiz-adv-x="665" 
d="M584 -34h-108l-325 650v-650h-67v696h109l324 -644v644h67v-696z" />
    <glyph glyph-name="Xi" unicode="&#x39e;" horiz-adv-x="660" 
d="M83 597v65h492v-65h-492zM157 293v64h345v-64h-345zM83 -34v65h492v-65h-492z" />
    <glyph glyph-name="Omicron" unicode="&#x39f;" horiz-adv-x="700" 
d="M350 -46q-65 0 -119 24t-93 69.5t-61 111t-22 147.5q0 85 21.5 152.5t60.5 114t93 71t120 24.5t120 -24.5t93 -71t60.5 -114t21.5 -152.5q0 -82 -22 -147.5t-61 -111t-93 -69.5t-119 -24zM350 607q-56 0 -97.5 -24t-69.5 -65t-41.5 -95.5t-13.5 -116.5t14.5 -115t43 -92
t70 -61t94.5 -22t94.5 22t70 61t43 92t14.5 115t-13.5 116.5t-41.5 95.5t-69.5 65t-97.5 24z" />
    <glyph glyph-name="Pi" unicode="&#x3a0;" horiz-adv-x="660" 
d="M575 -34h-73v632h-345v-632h-73v696h491v-696z" />
    <glyph glyph-name="Rho" unicode="&#x3a1;" horiz-adv-x="557" 
d="M300 662q105 0 156.5 -54.5t51.5 -153.5q0 -97 -52 -153t-156 -56h-144v-279h-72v696h216zM296 310q64 0 103 35t39 107t-39 108.5t-103 36.5h-140v-287h140z" />
    <glyph glyph-name="Sigma" unicode="&#x3a3;" horiz-adv-x="570" 
d="M57 -34v27l307 321l-307 299v49h462v-66h-355l288 -276l-274 -287h342v-67h-463z" />
    <glyph glyph-name="Tau" unicode="&#x3a4;" horiz-adv-x="530" 
d="M27 597v65h476v-65h-205v-631h-73v631h-198z" />
    <glyph glyph-name="Upsilon" unicode="&#x3a5;" horiz-adv-x="600" 
d="M262 261l-236 401h82l191 -336l195 336h80l-239 -400v-296h-73v295z" />
    <glyph glyph-name="Phi" unicode="&#x3a6;" horiz-adv-x="640" 
d="M356 559q48 -6 89 -26.5t71 -53t47 -76.5t17 -97t-17 -97t-47 -77t-71 -53t-89 -26v-87h-73v87q-48 6 -89 26t-71 53t-47 77t-17 97t17 97t47 76.5t71 53t89 26.5v103h73v-103zM508 306q0 76 -41 126.5t-111 61.5v-376q70 11 111 61.5t41 126.5zM131 307
q0 -77 41.5 -127.5t110.5 -61.5v376q-34 -6 -62 -21.5t-48 -40t-31 -56.5t-11 -69z" />
    <glyph glyph-name="Chi" unicode="&#x3a7;" horiz-adv-x="590" 
d="M295 378l182 284h81l-222 -348l222 -348h-80l-183 285l-182 -285h-80l222 348l-222 348h81z" />
    <glyph glyph-name="Psi" unicode="&#x3a8;" horiz-adv-x="680" 
d="M377 230q34 4 64 17t52 36.5t34.5 57.5t12.5 80v241h73v-228q0 -67 -18.5 -116t-50.5 -81.5t-75 -50t-92 -21.5v-199h-73v199q-49 4 -92 21.5t-75.5 50t-51 81t-18.5 116.5v228h73v-241q0 -47 12.5 -81t34.5 -57t52 -36t65 -17v432h73v-432z" />
    <glyph glyph-name="uni03A9" unicode="&#x3a9;" horiz-adv-x="760" 
d="M380 606q-59 0 -103 -20.5t-73.5 -55.5t-44 -83.5t-14.5 -103.5q0 -52 14 -101.5t37.5 -92.5t54.5 -76.5t64 -54.5v-52h-257v64h155q-64 51 -102.5 132t-38.5 180q0 73 21 133t60.5 103t97 66t129.5 23t129.5 -23t97 -66t60.5 -103t21 -133q0 -99 -38.5 -180t-103.5 -132
h156v-64h-257v52q33 21 64 54.5t54.5 76.5t37.5 92.5t14 101.5q0 55 -14.5 103.5t-44 83.5t-73.5 55.5t-103 20.5z" />
    <glyph glyph-name="alpha" unicode="&#x3b1;" horiz-adv-x="623" 
d="M498 7q23 0 36.5 17t21.5 43l48 -18q-17 -54 -44 -76.5t-67 -22.5q-16 0 -30.5 5t-27.5 18t-24.5 35.5t-20.5 57.5q-31 -63 -71 -87.5t-86 -24.5q-51 0 -87.5 20.5t-60 55t-33.5 79.5t-8 93q2 53 15 102t39 86.5t64.5 60t91.5 22.5q27 0 53.5 -9t49 -28.5t38.5 -49
t23 -69.5l44 136l63 -19l-90 -272q2 -67 19.5 -111t43.5 -44zM372 226q2 38 -4.5 72.5t-21.5 61t-38 42t-54 15.5q-39 0 -65 -23t-42 -57t-23.5 -71.5t-8.5 -66.5q-4 -88 26.5 -139t90.5 -51q36 0 61.5 21.5t42.5 54t25.5 70.5t10.5 71z" />
    <glyph glyph-name="beta" unicode="&#x3b2;" horiz-adv-x="540" 
d="M489 168q0 -42 -13 -80.5t-38 -68t-61.5 -47.5t-83.5 -18q-35 0 -70.5 12t-66.5 38v-169h-72v648q0 97 49.5 140t136.5 43q44 0 79.5 -13.5t60 -37.5t38 -56.5t13.5 -70.5q0 -41 -17 -77.5t-62 -67.5q56 -29 81.5 -76.5t25.5 -98.5zM416 168q0 26 -7.5 52t-22.5 46.5
t-38 33.5t-54 13h-37v50h37q46 0 71 27.5t25 96.5q0 55 -31.5 89t-88.5 34q-51 0 -82.5 -30.5t-31.5 -101.5v-416q22 -26 57 -39t70 -13q33 0 57.5 12.5t41.5 34t25.5 50.5t8.5 61z" />
    <glyph glyph-name="gamma" unicode="&#x3b3;" horiz-adv-x="520" 
d="M294 69q21 -32 36.5 -57t26.5 -45q16 -32 16 -62q0 -48 -34 -78t-84 -30q-53 0 -87 31.5t-34 78.5q0 28 15 60q22 42 72 109l-191 360l59 27l167 -338l175 336l59 -26zM314 -82q0 31 -55 110q-64 -77 -64 -111q0 -62 60 -62q29 0 44 16.5t15 46.5z" />
    <glyph glyph-name="delta" unicode="&#x3b4;" horiz-adv-x="560" 
d="M49 188q0 43 16 80.5t41.5 68t58.5 53.5t68 38q-50 39 -66 71t-16 63q0 19 7.5 37.5t25 33.5t44.5 24t66 9q50 0 90.5 -13.5t63.5 -29.5l-32 -49q-18 12 -49.5 24t-69.5 12q-23 0 -37.5 -5t-22.5 -13t-11 -18t-3 -20q0 -19 9.5 -35t24 -29.5t30.5 -25t30 -20.5
q46 -31 82.5 -60.5t61 -60t37.5 -63t13 -68.5q0 -54 -18 -98t-49 -75.5t-73.5 -48.5t-90.5 -17q-46 0 -88 14.5t-73.5 43.5t-50.5 73t-19 104zM439 185q0 38 -10.5 66.5t-31 52.5t-50 45.5t-68.5 45.5q-27 -12 -55 -30.5t-51.5 -44t-38 -58.5t-14.5 -73q0 -46 14.5 -80
t38 -56t53 -32.5t59.5 -10.5t58 12t49.5 34.5t34 55t12.5 73.5z" />
    <glyph glyph-name="epsilon" unicode="&#x3b5;" horiz-adv-x="470" 
d="M428 69q-22 -58 -75 -86.5t-116 -28.5q-36 0 -70.5 8t-61 25t-43 43.5t-16.5 64.5q0 21 8 43t25 40.5t45 33t68 20.5q-38 10 -62.5 23.5t-39 29.5t-20.5 32.5t-6 31.5q0 36 16.5 61t42 40.5t57 22t61.5 6.5q51 0 99.5 -23t77.5 -68l-54 -28q-20 28 -50.5 46t-72.5 18
q-58 0 -83 -22t-25 -51q0 -23 15.5 -40t40 -28t53.5 -16t56 -5v-59q-38 -2 -71 -8t-57 -18.5t-38 -32t-14 -47.5q0 -21 9.5 -37.5t25.5 -27t38 -16t46 -5.5q48 0 83 22.5t53 60.5z" />
    <glyph glyph-name="zeta" unicode="&#x3b6;" horiz-adv-x="460" 
d="M419 -89q0 -21 -8 -41t-24 -36t-39.5 -25.5t-54.5 -9.5q-24 0 -49.5 5t-49.5 16l22 55q39 -17 77 -17q27 0 40.5 13.5t18.5 36.5q3 24 -8 40t-29 26t-40.5 16t-43.5 11q-87 20 -129.5 70t-46.5 131q-5 92 51 189.5t166 205.5h-188v65h268v-63q-47 -41 -89.5 -87.5
t-74 -96.5t-49 -103.5t-14.5 -108.5q3 -68 41.5 -103t98.5 -49q32 -7 60 -16.5t49 -25.5t33 -39.5t12 -58.5z" />
    <glyph glyph-name="eta" unicode="&#x3b7;" horiz-adv-x="600" 
d="M406 309q0 29 -10.5 49.5t-28.5 33t-41 18.5t-47 6q-18 0 -37 -6t-37.5 -17t-34.5 -27.5t-27 -37.5v-362h-70v496h70v-66q33 43 76.5 60t79.5 17t68 -11t56 -32t38 -51t14 -69v-366q0 -23 8.5 -34.5t29.5 -11.5q14 0 28.5 8t26.5 22l27 -31q-44 -55 -97 -55
q-92 0 -92 109v358z" />
    <glyph glyph-name="theta" unicode="&#x3b8;" horiz-adv-x="580" 
d="M290 -46q-57 0 -101 24t-74 69.5t-45 111t-15 147.5q0 85 15 152.5t44.5 114t73.5 71t102 24.5t102 -24.5t73.5 -71t44.5 -114t15 -152.5q0 -82 -15 -147.5t-45 -111t-74 -69.5t-101 -24zM290 607q-42 0 -72 -21t-49.5 -57.5t-29 -86t-11.5 -105.5h323q-2 56 -11.5 105.5
t-29 86t-49 57.5t-71.5 21zM290 16q39 0 68.5 19t49 53.5t30 81.5t13.5 103h-322q2 -56 12.5 -103t30.5 -81.5t49 -53.5t69 -19z" />
    <glyph glyph-name="iota" unicode="&#x3b9;" horiz-adv-x="280" 
d="M152 462v-406q0 -23 8.5 -34.5t29.5 -11.5q14 0 28.5 8t26.5 22l27 -31q-44 -55 -97 -55q-92 0 -92 109v399h69z" />
    <glyph glyph-name="kappa" unicode="&#x3ba;" horiz-adv-x="482" 
d="M243 260l209 -294h-77l-174 251l-59 -59v-192h-69v496h69v-222l218 222h83z" />
    <glyph glyph-name="lambda" unicode="&#x3bb;" horiz-adv-x="629" 
d="M278 370l-169 -409l-60 24l199 481l-18 60q-11 38 -30.5 52.5t-45.5 16.5q-10 1 -20.5 -0.5t-21.5 -3.5l-18 71q19 5 33.5 6.5t31.5 -0.5q45 -3 78.5 -29.5t52.5 -86.5l143 -457q10 -32 24.5 -50.5t37.5 -20.5q46 -1 64 51l59 -24q-19 -51 -49 -73.5t-74 -22.5
q-46 0 -77 32.5t-49 90.5z" />
    <glyph glyph-name="uni03BC" unicode="&#x3bc;" horiz-adv-x="540" 
d="M406 462h69v-344q0 -39 -14 -69t-38 -51t-56 -32t-68 -11q-18 0 -37.5 3t-40 11.5t-40.5 24t-38 39.5v-266h-70v695h70v-362q11 -21 27 -37.5t34.5 -27.5t37.5 -17t37 -6q24 0 47 5.5t41 18.5t28.5 33.5t10.5 49.5v343z" />
    <glyph glyph-name="nu" unicode="&#x3bd;" horiz-adv-x="500" 
d="M307 -34h-62l-145 388q-6 17 -16 27t-21.5 15.5t-24 7.5t-22.5 2v62q21 1 42 -2.5t39.5 -14t34 -28.5t25.5 -46l120 -329l144 414h63z" />
    <glyph glyph-name="xi" unicode="&#x3be;" horiz-adv-x="460" 
d="M169 470q0 37 22.5 70t77.5 57h-185v65h268l-2 -62q-19 -10 -38.5 -22.5t-35.5 -28.5t-26.5 -35t-10.5 -41q0 -16 7.5 -29.5t19 -24.5t25.5 -19.5t27 -14.5v-68q-154 -59 -154 -173q0 -22 7 -37t20 -25.5t31.5 -17.5t42.5 -13q34 -8 62.5 -18.5t49 -26t31.5 -38.5t11 -57
q0 -21 -8.5 -41t-24 -36t-39 -25.5t-54.5 -9.5q-24 0 -49.5 5t-49.5 16l22 55q39 -17 77 -17q27 0 42.5 13.5t18.5 36.5q3 24 -7.5 39.5t-28.5 25.5t-41.5 16.5t-45.5 11.5q-66 16 -99 50.5t-33 92.5q0 68 41 119.5t121 92.5q-42 20 -67 48.5t-25 65.5z" />
    <glyph glyph-name="omicron" unicode="&#x3bf;" horiz-adv-x="550" 
d="M275 -46q-48 0 -90 17t-73.5 50t-49.5 80.5t-18 108.5q0 64 18 113t49 82.5t73 50.5t91 17t91 -17t73 -50.5t49 -82.5t18 -113q0 -61 -18 -108.5t-49.5 -80.5t-73.5 -50t-90 -17zM275 417q-41 0 -71 -16.5t-49.5 -45t-29 -66t-9.5 -79.5q0 -48 12 -85t33 -62.5t50 -39
t64 -13.5q34 0 63.5 13.5t50.5 39t33 62.5t12 85q0 42 -9.5 79.5t-29 66t-49.5 45t-71 16.5z" />
    <glyph glyph-name="pi" unicode="&#x3c0;" horiz-adv-x="620" 
d="M443 63q0 -23 8.5 -37.5t29.5 -14.5q14 0 28.5 8t26.5 22l28 -32q-22 -27 -47 -40.5t-51 -13.5q-91 0 -91 109v335h-139v-235q0 -57 -8 -96.5t-28.5 -63.5t-55 -34.5t-86.5 -11.5v63q32 0 53 6t33.5 22.5t17.5 45.5t5 77v227h-112v62h502v-62h-114v-336z" />
    <glyph glyph-name="rho" unicode="&#x3c1;" horiz-adv-x="570" 
d="M73 194q0 86 21.5 140.5t54 85t71 42t72.5 11.5q49 0 92.5 -16.5t75 -50t50 -83.5t18.5 -116q0 -56 -15 -102.5t-42 -80t-64 -52t-82 -18.5q-59 0 -104.5 22t-77.5 76v-285h-70v427zM143 173q0 -28 12 -56.5t32.5 -52t48 -38.5t59.5 -15q40 0 70.5 16.5t50.5 44t30 63.5
t10 75q0 45 -10.5 82.5t-31 65t-51 43t-70.5 15.5q-33 0 -60.5 -13.5t-47.5 -39t-31 -62t-11 -82.5v-46z" />
    <glyph glyph-name="sigma" unicode="&#x3c3;" horiz-adv-x="570" 
d="M275 473q129 0 257 26l10 -60q-27 -5 -58.5 -6.5t-68.5 -2.5q42 -37 66.5 -92.5t24.5 -127.5q0 -61 -18 -108.5t-49.5 -80.5t-73.5 -50t-90 -17t-90 17t-73.5 50t-49.5 80.5t-18 108.5q0 64 18 113t49 82.5t73 50.5t91 17zM275 417q-41 0 -71 -16.5t-49.5 -45t-29 -66
t-9.5 -79.5q0 -48 12 -85t33 -62.5t50 -39t64 -13.5q34 0 63.5 13.5t50.5 39t33 62.5t12 85q0 42 -9.5 79.5t-29 66t-49.5 45t-71 16.5z" />
    <glyph glyph-name="tau" unicode="&#x3c4;" horiz-adv-x="530" 
d="M29 397v65h472v-65h-205v-341q0 -23 8.5 -34.5t29.5 -11.5q14 0 28.5 8t26.5 22l27 -31q-44 -55 -97 -55q-92 0 -92 109v334h-198z" />
    <glyph glyph-name="upsilon" unicode="&#x3c5;" horiz-adv-x="555" 
d="M427 184q0 34 -6.5 71.5t-16.5 74.5t-22 70t-22 58l67 14q27 -60 47 -135.5t20 -149.5q0 -47 -10.5 -89.5t-35.5 -74.5t-66.5 -50.5t-102.5 -18.5q-47 0 -84.5 14t-64.5 40.5t-41.5 64.5t-14.5 87v302h67v-296q0 -70 38 -107.5t96 -37.5q43 0 72.5 13t47 35t25 51.5
t7.5 63.5z" />
    <glyph glyph-name="phi" unicode="&#x3c6;" horiz-adv-x="550" 
d="M242 -153v109q-42 6 -78.5 25t-63 51.5t-41.5 77t-15 100.5q0 58 15 104t41.5 79t62.5 52.5t79 25.5v108h67v-108q42 -6 78.5 -25.5t62.5 -52.5t41 -79t15 -104q0 -56 -15 -100.5t-41.5 -76.5t-62.5 -51t-78 -25v-110h-67zM116 210q0 -85 34.5 -135t91.5 -62v400
q-33 -6 -56.5 -25t-39 -46t-23 -61t-7.5 -71zM434 210q0 37 -7.5 71t-23 61t-39 45.5t-55.5 25.5v-400q56 12 90.5 62.5t34.5 134.5z" />
    <glyph glyph-name="chi" unicode="&#x3c7;" horiz-adv-x="550" 
d="M234 113l-203 348h80l163 -279l164 279h80l-204 -348l204 -348h-79l-165 280l-164 -280h-79z" />
    <glyph glyph-name="psi" unicode="&#x3c8;" horiz-adv-x="680" 
d="M377 30q34 4 64 17t52 36.5t34.5 57.5t12.5 80v241h73v-228q0 -67 -18.5 -116t-50.5 -81.5t-75 -50t-92 -21.5v-199h-73v199q-49 4 -92 21.5t-75.5 50t-51 81t-18.5 116.5v228h73v-241q0 -47 12.5 -81t34.5 -57t52 -36t65 -17v432h73v-432z" />
    <glyph glyph-name="omega" unicode="&#x3c9;" horiz-adv-x="720" 
d="M485 -46q-31 0 -66.5 15.5t-58.5 46.5q-31 -34 -63.5 -48t-62.5 -14q-47 0 -81.5 18.5t-58 49t-35 71t-11.5 84.5q0 91 24.5 161t78.5 127l54 -34q-43 -47 -64 -111.5t-21 -141.5q0 -27 5 -54.5t18 -49.5t35.5 -36t56.5 -14q18 0 34.5 7t30 19t21.5 27t8 31v179h61v-179
q0 -16 8 -31t21.5 -27t30 -19t34.5 -7q34 0 56.5 14t35.5 36t18 49.5t5 54.5q0 77 -21 141.5t-64 111.5l55 34q54 -57 78 -127t24 -161q0 -44 -11.5 -84.5t-35 -71t-58.5 -49t-81 -18.5z" />
    <glyph glyph-name="uni0401" unicode="&#x401;" horiz-adv-x="560" 
d="M157 263v-232h346v-65h-419v636h403v-65h-330v-210h314v-64h-314zM228 680h-95v95h95v-95zM436 680h-95v95h95v-95z" />
    <glyph glyph-name="uni0410" unicode="&#x410;" horiz-adv-x="600" 
d="M28 -34l229 696h85l229 -696h-72l-59 184h-282l-58 -184h-72zM299 594l-123 -387h246z" />
    <glyph glyph-name="uni0411" unicode="&#x411;" horiz-adv-x="570" 
d="M297 31q34 0 61.5 7.5t47 23.5t30.5 42t11 63q0 33 -12 56.5t-33 39t-50.5 23t-64.5 7.5h-131v-262h141zM264 357q82 0 132 -18.5t77 -47t36 -62.5t9 -64q0 -102 -52.5 -150.5t-155.5 -48.5h-226v696h391v-65h-319v-240h108z" />
    <glyph glyph-name="uni0412" unicode="&#x412;" horiz-adv-x="570" 
d="M275 662q102 0 156 -42t54 -130q0 -52 -22.5 -92.5t-79.5 -67.5q71 -14 103 -59t32 -106q0 -102 -52.5 -150.5t-155.5 -48.5h-226v696h191zM297 31q34 0 61.5 7.5t47 23.5t30.5 42t11 63q0 33 -12 56.5t-33 39t-50.5 23t-64.5 7.5h-131v-262h141zM264 357q66 0 108 31.5
t42 99.5q0 30 -11 51t-30 33.5t-45 18.5t-55 6h-117v-240h108z" />
    <glyph glyph-name="uni0413" unicode="&#x413;" horiz-adv-x="530" 
d="M487 662v-65h-330v-631h-73v696h403z" />
    <glyph glyph-name="uni0414" unicode="&#x414;" horiz-adv-x="720" 
d="M587 -137v135h-454v-135h-73v162q100 109 151.5 233.5t51.5 263.5v140h338v-598h59v-201h-73zM529 598h-202v-84q0 -55 -10.5 -114.5t-30.5 -118.5t-48 -114.5t-64 -102.5h355v534z" />
    <glyph glyph-name="uni0415" unicode="&#x415;" horiz-adv-x="560" 
d="M157 293v-262h346v-65h-419v696h403v-65h-330v-240h314v-64h-314z" />
    <glyph glyph-name="uni0416" unicode="&#x416;" horiz-adv-x="940" 
d="M504 345h77q5 76 28.5 135t61.5 99.5t90 61.5t114 21h6v-61h-6q-56 0 -98.5 -23t-71 -62.5t-43 -93.5t-14.5 -116t15.5 -113.5t44.5 -88t71.5 -56.5t95.5 -20v-62q-62 0 -114.5 20.5t-91.5 60.5t-62.5 99t-26.5 135h-76v-315h-69v315h-77q-3 -76 -26 -135t-62 -99
t-91.5 -60.5t-114.5 -20.5v62q53 0 95 20t71.5 56.5t45 88t15.5 113.5t-14.5 116t-43 93.5t-71 62.5t-98.5 23h-6v61h6q61 0 113 -21t90 -61.5t61.5 -99.5t28.5 -135h78v317h69v-317z" />
    <glyph glyph-name="uni0417" unicode="&#x417;" horiz-adv-x="540" 
d="M484 170q0 -47 -16.5 -84t-45.5 -63.5t-68 -40.5t-84 -14q-48 0 -87 14.5t-67.5 41.5t-44 65.5t-15.5 86.5v7h70q0 -32 9 -59.5t26.5 -47.5t43.5 -31.5t62 -11.5q70 0 106.5 35.5t36.5 104.5q0 35 -14.5 63.5t-43.5 43.5q-20 10 -53 15t-77 6v67q28 0 47 1t33.5 4t25 8
t21.5 12q45 29 45 92q0 25 -9.5 46t-26 35t-38.5 22t-46 8q-70 0 -99.5 -36.5t-32.5 -102.5h-66q1 45 15.5 82.5t40 65t62 42.5t81.5 15q39 0 73.5 -12t59.5 -34.5t39.5 -55t14.5 -73.5q0 -47 -19.5 -83.5t-64.5 -63.5q57 -25 81.5 -69t24.5 -101z" />
    <glyph glyph-name="uni0418" unicode="&#x418;" horiz-adv-x="665" 
d="M84 662h67v-644l324 644h109v-696h-67v650l-325 -650h-108v696z" />
    <glyph glyph-name="uni0419" unicode="&#x419;" horiz-adv-x="665" 
d="M84 -34h108l325 589v-589h67v636h-110l-323 -580v580h-67v-636zM342 702q26 0 40.5 18.5t17.5 45.5h62q-5 -55 -38.5 -83.5t-81.5 -28.5t-81.5 28.5t-38.5 83.5h62q3 -27 17.5 -45.5t40.5 -18.5z" />
    <glyph glyph-name="uni041A" unicode="&#x41a;" horiz-adv-x="593" 
d="M157 325l312 337h86l-272 -295l292 -401h-87l-253 350l-78 -84v-266h-73v696h73v-337z" />
    <glyph glyph-name="uni041B" unicode="&#x41b;" horiz-adv-x="690" 
d="M606 662v-696h-73v631h-310v-454q0 -40 -10 -72.5t-32.5 -56t-59 -38.5t-89.5 -19l-7 58q60 8 94 35.5t34 92.5v519h453z" />
    <glyph glyph-name="uni041C" unicode="&#x41c;" horiz-adv-x="780" 
d="M628 -34v602l-191 -602h-94l-191 608v-608h-68v696h109l197 -635l197 635h109v-696h-68z" />
    <glyph glyph-name="uni041D" unicode="&#x41d;" horiz-adv-x="660" 
d="M157 357h345v305h73v-696h-73v327h-345v-327h-73v696h73v-305z" />
    <glyph glyph-name="uni041E" unicode="&#x41e;" horiz-adv-x="700" 
d="M350 -46q-65 0 -119 24t-93 69.5t-61 111t-22 147.5q0 85 21.5 152.5t60.5 114t93 71t120 24.5t120 -24.5t93 -71t60.5 -114t21.5 -152.5q0 -82 -22 -147.5t-61 -111t-93 -69.5t-119 -24zM350 607q-56 0 -97.5 -24t-69.5 -65t-41.5 -95.5t-13.5 -116.5t14.5 -115t43 -92
t70 -61t94.5 -22t94.5 22t70 61t43 92t14.5 115t-13.5 116.5t-41.5 95.5t-69.5 65t-97.5 24z" />
    <glyph glyph-name="uni041F" unicode="&#x41f;" horiz-adv-x="660" 
d="M575 -34h-73v632h-345v-632h-73v696h491v-696z" />
    <glyph glyph-name="uni0420" unicode="&#x420;" horiz-adv-x="557" 
d="M300 662q105 0 156.5 -54.5t51.5 -153.5q0 -97 -52 -153t-156 -56h-144v-279h-72v696h216zM296 310q64 0 103 35t39 107t-39 108.5t-103 36.5h-140v-287h140z" />
    <glyph glyph-name="uni0421" unicode="&#x421;" horiz-adv-x="600" 
d="M51 311q0 70 18.5 134.5t57.5 114t98 79t140 29.5q50 0 95.5 -14t82.5 -40l-38 -53q-26 19 -59.5 31t-81.5 12q-62 0 -107 -24.5t-74.5 -65.5t-44 -93.5t-14.5 -109.5q0 -54 14.5 -106.5t44 -93.5t74.5 -66.5t107 -25.5q97 0 160 54l39 -47q-39 -37 -90 -54t-108 -17
q-81 0 -140 30.5t-98 80t-57.5 113.5t-18.5 132z" />
    <glyph glyph-name="uni0422" unicode="&#x422;" horiz-adv-x="530" 
d="M27 597v65h476v-65h-205v-631h-73v631h-198z" />
    <glyph glyph-name="uni0423" unicode="&#x423;" horiz-adv-x="500" 
d="M131 -46q-37 0 -69 11l9 56q22 -6 46 -6q32 0 56.5 15t36.5 53l23 71l-199 508h69l160 -426l138 426h66l-198 -605q-18 -55 -55 -79t-83 -24z" />
    <glyph glyph-name="uni0424" unicode="&#x424;" horiz-adv-x="640" 
d="M356 559q48 -6 89 -26.5t71 -53t47 -76.5t17 -97t-17 -97t-47 -77t-71 -53t-89 -26v-87h-73v87q-48 6 -89 26t-71 53t-47 77t-17 97t17 97t47 76.5t71 53t89 26.5v103h73v-103zM508 306q0 76 -41 126.5t-111 61.5v-376q70 11 111 61.5t41 126.5zM131 307
q0 -77 41.5 -127.5t110.5 -61.5v376q-34 -6 -62 -21.5t-48 -40t-31 -56.5t-11 -69z" />
    <glyph glyph-name="uni0425" unicode="&#x425;" horiz-adv-x="590" 
d="M295 378l182 284h81l-222 -348l222 -348h-80l-183 285l-182 -285h-80l222 348l-222 348h81z" />
    <glyph glyph-name="uni0426" unicode="&#x426;" horiz-adv-x="660" 
d="M575 30h45v-167h-73v103h-463v696h73v-632h345v632h73v-632z" />
    <glyph glyph-name="uni0427" unicode="&#x427;" horiz-adv-x="564" 
d="M143 323q0 -52 28.5 -81.5t84.5 -29.5q26 0 51.5 10.5t48.5 28t41 40.5t29 48v323h70v-696h-70v288q-16 -27 -38 -45.5t-46 -30.5t-49 -17.5t-47 -5.5q-42 0 -74 12.5t-54 35t-33.5 53.5t-11.5 68v338h70v-339z" />
    <glyph glyph-name="uni0428" unicode="&#x428;" horiz-adv-x="880" 
d="M794 -34h-709v696h73v-632h245v632h73v-632h245v632h73v-696z" />
    <glyph glyph-name="uni0429" unicode="&#x429;" horiz-adv-x="880" 
d="M794 30h46v-167h-73v103h-682v696h73v-632h245v632h73v-632h245v632h73v-632z" />
    <glyph glyph-name="uni042A" unicode="&#x42a;" horiz-adv-x="620" 
d="M27 662h181v-305h108q82 0 132 -18.5t77 -47t36 -62.5t9 -64q0 -102 -52.5 -150.5t-155.5 -48.5h-226v631h-109v65zM349 31q34 0 61.5 7.5t47 23.5t30.5 42t11 63q0 33 -12 56.5t-33 39t-50.5 23t-64.5 7.5h-131v-262h141z" />
    <glyph glyph-name="uni042B" unicode="&#x42b;" horiz-adv-x="780" 
d="M297 31q34 0 61.5 7.5t47 23.5t30.5 42t11 63q0 33 -12 56.5t-33 39t-50.5 23t-64.5 7.5h-131v-262h141zM264 357q82 0 132 -18.5t77 -47t36 -62.5t9 -64q0 -102 -52.5 -150.5t-155.5 -48.5h-226v696h72v-305h108zM623 662h73v-696h-73v696z" />
    <glyph glyph-name="uni042C" unicode="&#x42c;" horiz-adv-x="570" 
d="M297 31q34 0 61.5 7.5t47 23.5t30.5 42t11 63q0 33 -12 56.5t-33 39t-50.5 23t-64.5 7.5h-131v-262h141zM264 357q82 0 132 -18.5t77 -47t36 -62.5t9 -64q0 -102 -52.5 -150.5t-155.5 -48.5h-226v696h72v-305h108z" />
    <glyph glyph-name="uni042D" unicode="&#x42d;" horiz-adv-x="600" 
d="M564 311q0 -68 -18.5 -132t-57.5 -113.5t-98 -80t-140 -30.5q-57 0 -108 17t-90 54l42 46q62 -53 157 -53q57 0 100.5 22.5t73 59t45.5 84t20 98.5h-360v64h359q-4 51 -20.5 98t-46 82t-72 56t-99.5 21q-48 0 -81.5 -12t-59.5 -31l-38 53q37 26 82.5 40t95.5 14
q81 0 140 -29.5t98 -79t57.5 -114t18.5 -134.5z" />
    <glyph glyph-name="uni042E" unicode="&#x42e;" 
d="M157 357h120q6 73 30 131t62 98t89 61t112 21q66 0 120 -24.5t93 -71t60.5 -114t21.5 -152.5q0 -82 -22 -147.5t-61 -111t-93 -69.5t-119 -24q-64 0 -117.5 23t-92.5 67t-61.5 106.5t-23.5 142.5h-118v-327h-73v696h73v-305zM570 607q-56 0 -97.5 -24t-69.5 -65
t-41.5 -95.5t-13.5 -116.5t14.5 -115t43 -92t70 -61t94.5 -22t94.5 22t70 61t43 92t14.5 115t-13.5 116.5t-41.5 95.5t-69.5 65t-97.5 24z" />
    <glyph glyph-name="uni042F" unicode="&#x42f;" horiz-adv-x="570" 
d="M488 662v-696h-72v289h-128l-183 -289h-78l188 294q-75 14 -113 65t-38 134q0 99 51.5 151t156.5 52h216zM416 320v277h-140q-64 0 -103 -34t-39 -106t39 -104.5t103 -32.5h140z" />
    <glyph glyph-name="uni0430" unicode="&#x430;" horiz-adv-x="484" 
d="M41 94q0 61 30 97.5t76 55t100 22t101 0.5v25q0 16 -4.5 37t-18 40t-38.5 32.5t-66 13.5q-31 0 -66.5 -12t-62.5 -32l-23 48q35 25 76.5 39t89.5 14q55 0 90.5 -18t56 -46.5t28.5 -64.5t8 -73v-307h-67v70q-28 -43 -74.5 -62.5t-97.5 -19.5q-35 0 -61 12t-43 32
t-25.5 45.5t-8.5 51.5zM344 104q4 15 4 31v82q-34 4 -75 3.5t-76 -12t-59 -36t-24 -67.5q0 -49 24.5 -72t62.5 -23q26 0 50 8.5t42.5 22t32 30t18.5 33.5z" />
    <glyph glyph-name="uni0431" unicode="&#x431;" horiz-adv-x="550" 
d="M275 -46q-48 0 -90 17t-73.5 50t-49.5 80.5t-18 108.5q0 81 22.5 155.5t69 132.5t119 94t171.5 41l7 -66q-35 1 -71 -4.5t-71 -20t-68 -40t-62 -65.5q36 23 64.5 29.5t49.5 6.5q49 0 91 -17t73 -50.5t49 -82.5t18 -113q0 -61 -18 -108.5t-49.5 -80.5t-73.5 -50t-90 -17z
M275 417q-41 0 -71 -16.5t-49.5 -45t-29 -66t-9.5 -79.5q0 -48 12 -85t33 -62.5t50 -39t64 -13.5q34 0 63.5 13.5t50.5 39t33 62.5t12 85q0 42 -9.5 79.5t-29 66t-49.5 45t-71 16.5z" />
    <glyph glyph-name="uni0432" unicode="&#x432;" horiz-adv-x="480" 
d="M273 462q73 0 112.5 -30.5t39.5 -96.5q0 -32 -13.5 -59.5t-44.5 -48.5q43 -16 62 -46t19 -70q0 -75 -38 -110t-113 -35h-223v496h199zM286 26q44 0 69.5 19.5t25.5 67.5q0 41 -28.5 60t-74.5 19h-137v-166h145zM263 251q42 0 69 19.5t27 63.5q0 37 -26.5 52.5t-64.5 15.5
h-127v-151h122z" />
    <glyph glyph-name="uni0433" unicode="&#x433;" horiz-adv-x="470" 
d="M427 462v-65h-280v-431h-73v496h353z" />
    <glyph glyph-name="uni0434" unicode="&#x434;" horiz-adv-x="620" 
d="M529 6h44v-167h-73v127h-383v-127h-71v144q89 86 126.5 198t37.5 247v33h319v-455zM465 395h-196v-32q0 -39 -7.5 -85.5t-21 -92t-32.5 -87t-41 -70.5h298v367z" />
    <glyph glyph-name="uni0435" unicode="&#x435;" horiz-adv-x="510" 
d="M400 258q-1 23 -8 50.5t-22.5 51t-42 39.5t-66.5 16q-42 0 -69.5 -16.5t-44 -41t-24 -51.5t-9.5 -48h286zM282 13q38 0 76 9.5t77 32.5l19 -44q-85 -55 -180 -55q-47 0 -88.5 16.5t-72.5 49.5t-49 81.5t-18 111.5q0 56 14.5 103.5t42.5 81.5t67.5 53t90.5 19
q58 0 98 -21.5t64.5 -58.5t35 -87t8.5 -106h-352q1 -48 14.5 -83.5t36 -58t52.5 -33.5t64 -11z" />
    <glyph glyph-name="uni0436" unicode="&#x436;" horiz-adv-x="740" 
d="M403 241h63q4 55 22.5 97.5t47.5 72t67.5 45t82.5 17.5v-56q-41 -1 -70.5 -18t-49 -45t-29 -65.5t-9.5 -78.5q0 -91 42 -143t116 -57v-56q-44 1 -82.5 17t-67.5 45t-47.5 70.5t-22.5 94.5h-63v-215h-67v215h-63q-4 -53 -22.5 -94.5t-48 -70.5t-68 -45t-81.5 -17v56
q74 5 116 57t42 143q0 41 -9.5 78.5t-29 65.5t-49 45t-70.5 18v56q44 -2 82.5 -17.5t67.5 -45t47.5 -72t22.5 -97.5h63v221h67v-221z" />
    <glyph glyph-name="uni0437" unicode="&#x437;" horiz-adv-x="460" 
d="M417 107q0 -41 -17 -69.5t-44.5 -47.5t-61.5 -27.5t-67 -8.5q-38 0 -72 9.5t-59.5 29t-41 50t-16.5 71.5h67q1 -24 11.5 -43.5t27.5 -33t38.5 -21t45.5 -7.5q22 0 43 6t38 18t27.5 31t10.5 45q0 27 -11.5 44.5t-30 27.5t-43 14t-50.5 4h-17v53h18q18 0 38 3.5t37.5 12.5
t28.5 25t11 41q0 22 -8 38t-21.5 26t-31 14.5t-36.5 4.5q-48 0 -77.5 -28.5t-34.5 -77.5h-62q1 39 15 69t37.5 51t55 31.5t67.5 10.5q31 0 61.5 -8t53.5 -25t37.5 -43.5t14.5 -62.5q0 -33 -23 -62.5t-56 -42.5q52 -14 74.5 -45.5t22.5 -76.5z" />
    <glyph glyph-name="uni0438" unicode="&#x438;" horiz-adv-x="520" 
d="M74 462h65v-443l211 443h104v-496h-65v451l-213 -451h-102v496z" />
    <glyph glyph-name="uni0439" unicode="&#x439;" horiz-adv-x="520" 
d="M268 581q26 0 40.5 18.5t17.5 45.5h62q-5 -55 -38.5 -83.5t-81.5 -28.5t-81.5 28.5t-38.5 83.5h62q3 -27 17.5 -45.5t40.5 -18.5zM74 -34h102l213 451v-451h65v496h-104l-211 -443v443h-65v-496z" />
    <glyph glyph-name="uni043A" unicode="&#x43a;" horiz-adv-x="480" 
d="M142 256l221 206h88l-218 -206l224 -290h-81l-189 248l-45 -44v-204h-69v496h69v-206z" />
    <glyph glyph-name="uni043B" unicode="&#x43b;" horiz-adv-x="580" 
d="M506 462v-496h-70v431h-213v-254q0 -40 -10 -72.5t-32.5 -56t-59 -38.5t-89.5 -19l-7 58q60 8 94 35.5t34 92.5v319h353z" />
    <glyph glyph-name="uni043C" unicode="&#x43c;" horiz-adv-x="580" 
d="M450 -34v399l-122 -399h-72l-122 401v-401h-61v496h89l129 -426l130 426h89v-496h-60z" />
    <glyph glyph-name="uni043D" unicode="&#x43d;" horiz-adv-x="550" 
d="M144 255h268v207h70v-496h-70v225h-268v-225h-70v496h70v-207z" />
    <glyph glyph-name="uni043E" unicode="&#x43e;" horiz-adv-x="550" 
d="M275 -46q-48 0 -90 17t-73.5 50t-49.5 80.5t-18 108.5q0 64 18 113t49 82.5t73 50.5t91 17t91 -17t73 -50.5t49 -82.5t18 -113q0 -61 -18 -108.5t-49.5 -80.5t-73.5 -50t-90 -17zM275 417q-41 0 -71 -16.5t-49.5 -45t-29 -66t-9.5 -79.5q0 -48 12 -85t33 -62.5t50 -39
t64 -13.5q34 0 63.5 13.5t50.5 39t33 62.5t12 85q0 42 -9.5 79.5t-29 66t-49.5 45t-71 16.5z" />
    <glyph glyph-name="uni043F" unicode="&#x43f;" horiz-adv-x="550" 
d="M482 -34h-70v432h-268v-432h-70v496h408v-496z" />
    <glyph glyph-name="uni0440" unicode="&#x440;" horiz-adv-x="570" 
d="M134 462v-86q36 57 80.5 77t96.5 20q40 0 79 -16.5t70 -50t49.5 -83.5t18.5 -116q0 -56 -16.5 -102.5t-45.5 -80t-67.5 -52t-83.5 -18.5q-29 0 -52.5 5t-44 15.5t-38.5 27.5t-37 41v-276h-70v695h61zM143 173q0 -30 12.5 -59t34 -52t50 -37t60.5 -14q40 0 69.5 16.5
t48.5 44t28.5 63.5t9.5 75q0 45 -10.5 82.5t-31 65t-51 43t-70.5 15.5q-33 0 -60.5 -13t-47.5 -34.5t-31 -49t-11 -56.5v-90z" />
    <glyph glyph-name="uni0441" unicode="&#x441;" horiz-adv-x="460" 
d="M305 17q37 0 63 6.5t46 14.5l12 -57q-18 -8 -54.5 -17.5t-83.5 -9.5q-54 0 -98.5 18.5t-76.5 52.5t-49.5 82t-17.5 106t18 106t51.5 82.5t81 53.5t107.5 19q36 0 69 -8t51 -18l-17 -58q-17 7 -45 14.5t-58 7.5q-45 0 -79 -15t-57.5 -41t-35.5 -61.5t-12 -76.5
q0 -46 14 -83t39 -63.5t59 -40.5t73 -14z" />
    <glyph glyph-name="uni0442" unicode="&#x442;" horiz-adv-x="489" 
d="M27 397v65h436v-65h-186v-431h-71v431h-179z" />
    <glyph glyph-name="uni0443" unicode="&#x443;" horiz-adv-x="473" 
d="M218 -35l-199 497h69l161 -405l137 405h66l-198 -592q-18 -55 -55 -79t-83 -24q-37 0 -69 11l9 56q22 -6 46 -6q32 0 56 15t37 53z" />
    <glyph glyph-name="uni0444" unicode="&#x444;" horiz-adv-x="550" 
d="M310 471q42 -6 78 -25.5t62 -52.5t41 -79t15 -104q0 -56 -15 -100t-41.5 -76.5t-62 -51.5t-77.5 -25v-171h-70v171q-42 6 -78 25t-62 51.5t-41 76.5t-15 100q0 58 14.5 104t41 79t62.5 52.5t78 25.5v191h70v-191zM434 210q0 37 -7.5 70.5t-22.5 60.5t-38.5 46t-55.5 26
v-399q55 12 89.5 62t34.5 134zM116 210q0 -84 34 -134t90 -62v399q-32 -7 -55.5 -26t-38.5 -46t-22.5 -60.5t-7.5 -70.5z" />
    <glyph glyph-name="uni0445" unicode="&#x445;" horiz-adv-x="468" 
d="M235 163l-147 -201h-73l183 251l-183 251h73l147 -201l147 201h73l-184 -251l184 -251h-73z" />
    <glyph glyph-name="uni0446" unicode="&#x446;" horiz-adv-x="570" 
d="M144 30h268v432h70v-456h44v-167h-73v127h-379v496h70v-432z" />
    <glyph glyph-name="uni0447" unicode="&#x447;" horiz-adv-x="564" 
d="M143 122q0 -52 28.5 -81.5t84.5 -29.5q28 0 54 10.5t48 28t39.5 40.5t28.5 48v323h70v-696h-70v286q-17 -28 -39 -46.5t-46 -30t-48.5 -16t-46.5 -4.5q-42 0 -74 12.5t-54 35t-33.5 53.5t-11.5 68v338h70v-339z" />
    <glyph glyph-name="uni0448" unicode="&#x448;" horiz-adv-x="655" 
d="M584 -34h-509v496h70v-432h149v432h70v-432h150v432h70v-496z" />
    <glyph glyph-name="uni0449" unicode="&#x449;" horiz-adv-x="670" 
d="M584 6h42v-167h-73v127h-478v496h70v-432h149v432h70v-432h150v432h70v-456z" />
    <glyph glyph-name="uni044A" unicode="&#x44a;" horiz-adv-x="520" 
d="M303 251q88 0 129 -34.5t41 -105.5q0 -75 -38 -110t-113 -35h-213v432h-81v64h151v-211h124zM311 26q44 0 69.5 19.5t25.5 67.5q0 41 -28.5 60t-74.5 19h-124v-166h132z" />
    <glyph glyph-name="uni044B" unicode="&#x44b;" horiz-adv-x="640" 
d="M247 251q88 0 129 -34.5t41 -105.5q0 -75 -38 -110t-113 -35h-193v496h70v-211h104zM255 26q44 0 69.5 19.5t25.5 67.5q0 41 -28.5 60t-74.5 19h-104v-166h112zM494 462h70v-496h-70v496z" />
    <glyph glyph-name="uni044C" unicode="&#x44c;" horiz-adv-x="480" 
d="M267 251q88 0 129 -34.5t41 -105.5q0 -75 -38 -110t-113 -35h-213v496h70v-211h124zM275 26q44 0 69.5 19.5t25.5 67.5q0 41 -28.5 60t-74.5 19h-124v-166h132z" />
    <glyph glyph-name="uni044D" unicode="&#x44d;" horiz-adv-x="460" 
d="M59 37q20 -8 44 -14t61 -6q80 0 127 41t56 124h-223v64h224q-3 36 -15.5 66.5t-35 52t-55.5 34t-77 12.5q-30 0 -56 -6.5t-43 -13.5l-17 57q18 10 49 17.5t67 7.5q60 0 107.5 -19t81 -53t51.5 -82t18 -106t-17.5 -106t-49.5 -82t-76.5 -52.5t-98.5 -18.5q-47 0 -81 9
t-53 18z" />
    <glyph glyph-name="uni044E" unicode="&#x44e;" horiz-adv-x="745" 
d="M465 -46q-46 0 -87 16t-72 46t-50 74t-22 101h-90v-225h-70v496h70v-207h92q6 53 26 94t50.5 68.5t69.5 41.5t83 14q49 0 91 -17t73 -50.5t49 -82.5t18 -113q0 -61 -18 -108.5t-49.5 -80.5t-73.5 -50t-90 -17zM465 417q-41 0 -71 -16.5t-49.5 -45t-29 -66t-9.5 -79.5
q0 -48 12 -85t33 -62.5t50 -39t64 -13.5q34 0 63.5 13.5t50.5 39t33 62.5t12 85q0 42 -9.5 79.5t-29 66t-49.5 45t-71 16.5z" />
    <glyph glyph-name="uni044F" unicode="&#x44f;" horiz-adv-x="430" 
d="M360 462v-496h-64v199h-79l-127 -199h-69l130 205q-50 12 -74.5 49t-24.5 94q0 72 37.5 110t113.5 38h157zM296 226v176h-90q-41 0 -66 -21.5t-25 -67.5t25 -66.5t66 -20.5h90z" />
    <glyph glyph-name="uni0451" unicode="&#x451;" horiz-adv-x="510" 
d="M400 258q-1 23 -8 50.5t-22.5 51t-42 39.5t-66.5 16q-42 0 -69.5 -16.5t-44 -41t-24 -51.5t-9.5 -48h286zM282 13q38 0 76 9.5t77 32.5l19 -44q-85 -55 -180 -55q-47 0 -88.5 16.5t-72.5 49.5t-49 81.5t-18 111.5q0 56 14.5 103.5t42.5 81.5t67.5 53t90.5 19
q58 0 98 -21.5t64.5 -58.5t35 -87t8.5 -106h-352q1 -48 14.5 -83.5t36 -58t52.5 -33.5t64 -11zM202 550h-95v95h95v-95zM411 550h-95v95h95v-95z" />
    <glyph glyph-name="quoteleft" unicode="&#x2018;" horiz-adv-x="182" 
d="M119 513h-57l-8 254h74z" />
    <glyph glyph-name="quoteright" unicode="&#x2019;" horiz-adv-x="182" 
d="M119 513h-57l-8 254h74z" />
    <glyph glyph-name="quotedblleft" unicode="&#x201c;" horiz-adv-x="326" 
d="M124 513h-57l-8 254h74zM257 513h-57l-8 254h74z" />
    <glyph glyph-name="quotedblright" unicode="&#x201d;" horiz-adv-x="326" 
d="M124 513h-57l-8 254h74zM257 513h-57l-8 254h74z" />
    <glyph glyph-name="dagger" unicode="&#x2020;" horiz-adv-x="640" 
d="M349 372v-438h-59v438h-199v59h199v227h59v-227h199v-59h-199z" />
    <glyph glyph-name="daggerdbl" unicode="&#x2021;" horiz-adv-x="640" 
d="M290 329v137h-199v59h199v133h59v-133h199v-59h-199v-137h199v-59h-199v-336h-59v336h-199v59h199z" />
    <glyph glyph-name="twodotenleader" unicode="&#x2025;" horiz-adv-x="800" 
d="M279 251h-101v101h101v-101zM622 251h-101v101h101v-101z" />
    <glyph glyph-name="ellipsis" unicode="&#x2026;" horiz-adv-x="800" 
d="M182 251h-101v101h101v-101zM450 251h-101v101h101v-101zM717 251h-101v101h101v-101z" />
    <glyph glyph-name="perthousand" unicode="&#x2030;" horiz-adv-x="940" 
d="M158 290q-60 0 -87.5 44.5t-27.5 129.5t27.5 133.5t87.5 48.5t87.5 -48.5t27.5 -133.5t-27.5 -129.5t-87.5 -44.5zM158 597q-18 0 -29 -10.5t-17 -29t-8.5 -42.5t-2.5 -51q0 -57 11 -91t47 -34q34 0 45 34t11 91q0 27 -2.5 51t-8.5 42.5t-17 29t-29 10.5zM436 662h48
l-258 -696h-48zM501 -13q-60 0 -87.5 44.5t-27.5 129.5t27.5 133.5t87.5 48.5t87.5 -48.5t27.5 -133.5t-27.5 -129.5t-87.5 -44.5zM501 294q-18 0 -29 -10.5t-17 -29t-8.5 -42.5t-2.5 -51q0 -57 11 -91t47 -34q34 0 45 34t11 91q0 27 -2.5 51t-8.5 42.5t-17 29t-29 10.5z
M781 -13q-60 0 -87.5 44.5t-27.5 129.5t27.5 133.5t87.5 48.5t87.5 -48.5t27.5 -133.5t-27.5 -129.5t-87.5 -44.5zM781 294q-18 0 -29 -10.5t-17 -29t-8.5 -42.5t-2.5 -51q0 -57 11 -91t47 -34q34 0 45 34t11 91q0 27 -2.5 51t-8.5 42.5t-17 29t-29 10.5z" />
    <glyph glyph-name="minute" unicode="&#x2032;" horiz-adv-x="340" 
d="M136 467h-57l97 240h99z" />
    <glyph glyph-name="second" unicode="&#x2033;" horiz-adv-x="540" 
d="M136 467h-57l97 240h99zM313 467h-57l97 240h99z" />
    <glyph glyph-name="uni203B" unicode="&#x203b;" horiz-adv-x="740" 
d="M169 560l200 -216l201 216l42 -42l-202 -218l202 -217l-44 -43l-199 215l-198 -215l-44 43l201 217l-201 218zM315 556q0 26 16 41.5t41 15.5t41 -15.5t16 -41.5t-16 -42t-41 -16t-41 16t-16 42zM566 311q0 26 16 41.5t41 15.5t41 -15.5t16 -41.5t-16 -42t-41 -16t-41 16
t-16 42zM60 311q0 26 16 41.5t41 15.5t41 -15.5t16 -41.5t-16 -42t-41 -16t-41 16t-16 42zM312 47q0 26 16 41.5t41 15.5t41 -15.5t16 -41.5t-16 -42t-41 -16t-41 16t-16 42z" />
    <glyph glyph-name="uni2074" unicode="&#x2074;" horiz-adv-x="340" 
d="M42 485v40l152 260h60v-253h44v-47h-44v-68h-52v68h-160zM101 532h101v177z" />
    <glyph glyph-name="uni207F" unicode="&#x207f;" horiz-adv-x="400" 
d="M287 661q0 44 -23 62t-61 18q-23 0 -48 -17t-42 -49v-256h-53v357h53v-46q27 31 53 42.5t52 11.5q52 0 86.5 -32t34.5 -89v-244h-52v242z" />
    <glyph glyph-name="uni2081" unicode="&#x2081;" horiz-adv-x="340" 
d="M85 138l88 47h42v-364h-54v307l-55 -30z" />
    <glyph glyph-name="uni2082" unicode="&#x2082;" horiz-adv-x="340" 
d="M56 -184v39q46 45 78 77t51.5 56.5t28.5 43.5t11 38q2 27 -12.5 45.5t-51.5 18.5q-21 0 -41.5 -13.5t-40.5 -33.5l-30 42q26 26 57.5 41t63.5 15q27 0 47.5 -10t34 -25.5t20.5 -34.5t7 -38q0 -26 -9.5 -49.5t-27.5 -48.5t-45 -52.5t-62 -60.5h155v-50h-234z" />
    <glyph glyph-name="uni2083" unicode="&#x2083;" horiz-adv-x="340" 
d="M156 -188q-28 0 -55.5 8.5t-50.5 21.5l25 44q17 -9 37 -16t43 -7q44 0 62 20t18 41q0 34 -27 48.5t-64 14.5h-26v44h26q29 0 53.5 14t24.5 43q0 18 -13.5 32.5t-47.5 14.5q-18 0 -38.5 -9t-34.5 -19l-23 41q23 17 50.5 27.5t54.5 10.5t47 -8t33.5 -21t20.5 -29.5t7 -32.5
q0 -22 -11 -44t-39 -39q35 -17 49 -38t14 -51q0 -21 -8.5 -41t-25.5 -35.5t-42 -25t-59 -9.5z" />
    <glyph glyph-name="uni2084" unicode="&#x2084;" horiz-adv-x="340" 
d="M42 -115v40l152 260h60v-253h44v-47h-44v-68h-52v68h-160zM101 -68h101v177z" />
    <glyph glyph-name="uni2103" unicode="&#x2103;" horiz-adv-x="830" 
d="M218 279q0 103 13.5 175.5t46.5 118t88.5 66t139.5 20.5q75 0 122.5 -23t76.5 -61t42.5 -89t20.5 -106h-74q-5 53 -16.5 92.5t-34 66t-56.5 40t-83 13.5q-65 0 -106 -14t-64.5 -49t-32.5 -95.5t-9 -154.5q0 -92 9.5 -152.5t33.5 -96t65.5 -50t105.5 -14.5q97 0 142.5 56
t50.5 180h74q-5 -63 -19 -118t-44 -96t-78.5 -65t-123.5 -24q-86 0 -142 21t-89 66.5t-46 118t-13 174.5zM98 658q0 -18 9.5 -27t26.5 -9t26.5 9t9.5 27t-9.5 27t-26.5 9t-26.5 -9t-9.5 -27zM42 658q0 38 25.5 64.5t66.5 26.5t66.5 -26.5t25.5 -64.5t-25.5 -64.5
t-66.5 -26.5t-66.5 26.5t-25.5 64.5z" />
    <glyph glyph-name="uni2109" unicode="&#x2109;" horiz-adv-x="720" 
d="M298 623v-657h73v307h299v64h-299v221h310v65h-383zM134 550q-18 0 -34 7t-28 19t-19.5 28t-7.5 34t7.5 34t19.5 28t28 19t34 7t34 -7t28 -19t19.5 -28t7.5 -34t-7.5 -34t-19.5 -28t-28 -19t-34 -7zM134 593q20 0 32.5 12.5t12.5 32.5t-12.5 32.5t-32.5 12.5t-32.5 -12.5
t-12.5 -32.5t12.5 -32.5t32.5 -12.5z" />
    <glyph glyph-name="uni2113" unicode="&#x2113;" horiz-adv-x="430" 
d="M31 50q22 14 43 31t38 34q-5 32 -7.5 66.5t-2.5 71.5q0 96 12 173t34 131t53.5 83t71.5 29q54 0 79.5 -39t25.5 -102q0 -48 -14.5 -103.5t-40.5 -112.5t-63.5 -113.5t-83.5 -105.5q15 -82 58 -82q20 0 39.5 20.5t33.5 55.5l47 -25q-26 -62 -57.5 -85t-71.5 -23
q-32 0 -56.5 26t-41.5 70q-19 -16 -34.5 -27t-27.5 -19zM267 603q-20 0 -38.5 -30t-32.5 -79.5t-22.5 -113.5t-8.5 -131q0 -7 0.5 -17.5t1 -21.5t1 -21.5t0.5 -17.5q72 97 106.5 188.5t37.5 157.5q3 86 -45 86z" />
    <glyph glyph-name="uni2116" unicode="&#x2116;" horiz-adv-x="940" 
d="M610 -45q-45 0 -75.5 21.5t-50 57t-28 81.5t-8.5 96q0 52 8.5 99.5t27.5 83.5t50 57.5t76 21.5q46 0 77 -21.5t50 -57.5t27 -83.5t8 -99.5q0 -50 -8.5 -96t-28 -81.5t-50 -57t-75.5 -21.5zM385 -34h-96l-172 597v-597h-67v696h98l170 -595v595h67v-696zM610 419
q-27 0 -45 -17.5t-29 -47t-15.5 -67t-4.5 -76.5q0 -45 6.5 -82t19 -63.5t30 -41.5t38.5 -15q22 0 39.5 15t29.5 41.5t18.5 63.5t6.5 82q0 39 -4.5 76.5t-15 67t-29 47t-45.5 17.5zM893 -34h-85v89h85v-89z" />
    <glyph glyph-name="uni2121" unicode="&#x2121;" horiz-adv-x="940" 
d="M19 597v65h396v-65h-165v-631h-73v631h-158zM639 258q-1 22 -6.5 49.5t-17 51.5t-31 40.5t-48.5 16.5q-31 0 -51.5 -17t-33.5 -41t-19.5 -51.5t-7.5 -48.5h215zM553 13q32 0 63.5 9.5t63.5 30.5l15 -42q-35 -27 -71.5 -41t-76.5 -14q-39 0 -74 16.5t-61 49.5t-41 81.5
t-15 111.5q0 56 12 103.5t35 82t56.5 53.5t76.5 19q55 0 89.5 -26t53.5 -66t25 -88.5t4 -93.5h-284q2 -97 37 -141.5t92 -44.5zM868 692v-726h-70v726h70z" />
    <glyph glyph-name="trademark" unicode="&#x2122;" horiz-adv-x="800" 
d="M680 372v220l-92 -220h-34l-95 219v-219h-57v338h58l111 -253l107 253h59v-338h-57zM225 653v-281h-61v281h-112v57h287v-57h-114z" />
    <glyph glyph-name="Omega" unicode="&#x2126;" horiz-adv-x="760" 
d="M380 606q-59 0 -103 -20.5t-73.5 -55.5t-44 -83.5t-14.5 -103.5q0 -52 14 -101.5t37.5 -92.5t54.5 -76.5t64 -54.5v-52h-257v64h156q-33 24 -59.5 58t-44.5 74.5t-28 86t-10 93.5q0 73 21 133t60.5 103t97 66t129.5 23t129.5 -23t97 -66t60.5 -103t21 -133
q0 -92 -36 -173.5t-105 -138.5h155v-64h-257v52q33 21 64 54.5t54.5 76.5t37.5 92.5t14 101.5q0 55 -14.5 103.5t-44 83.5t-73.5 55.5t-103 20.5z" />
    <glyph glyph-name="uni212B" unicode="&#x212b;" horiz-adv-x="600" 
d="M498 -34h74l-228 576h-89l-228 -576h74l60 154h277zM300 478l116 -301h-233zM299 601q-18 0 -34 7t-28 19t-19.5 28t-7.5 34t7.5 34t19.5 28t28 19t34 7t34 -7t28 -19t19.5 -28t7.5 -34t-7.5 -34t-19.5 -28t-28 -19t-34 -7zM299 644q20 0 32.5 12.5t12.5 32.5t-12.5 32.5
t-32.5 12.5t-32.5 -12.5t-12.5 -32.5t12.5 -32.5t32.5 -12.5z" />
    <glyph glyph-name="onethird" unicode="&#x2153;" horiz-adv-x="720" 
d="M535 -21q-28 0 -55.5 8.5t-50.5 21.5l25 44q17 -9 37 -16t43 -7q44 0 62 20t18 41q0 34 -27 48.5t-64 14.5h-26v44h26q29 0 53.5 14t24.5 43q0 18 -13.5 32.5t-47.5 14.5q-18 0 -38.5 -9t-34.5 -19l-23 41q23 17 50.5 27.5t54.5 10.5t47 -8t33.5 -21t20.5 -29.5t7 -32.5
q0 -22 -11 -44t-39 -39q35 -17 49 -38t14 -51q0 -21 -8.5 -41t-25.5 -35.5t-42 -25t-59 -9.5zM131 -36h-49l429 683h49zM52 598l88 47h42v-364h-54v307l-55 -30z" />
    <glyph glyph-name="twothirds" unicode="&#x2154;" horiz-adv-x="720" 
d="M185 -36h-49l429 683h49zM51 278v39q46 45 78 77t51.5 56.5t28.5 43.5t11 38q2 27 -12.5 45.5t-51.5 18.5q-21 0 -41.5 -13.5t-40.5 -33.5l-30 42q26 26 57.5 41t63.5 15q27 0 47.5 -10t34 -25.5t20.5 -34.5t7 -38q0 -26 -9.5 -49.5t-27.5 -48.5t-45 -52.5t-62 -60.5h155
v-50h-234zM539 -21q-28 0 -55.5 8.5t-50.5 21.5l25 44q17 -9 37 -16t43 -7q44 0 62 20t18 41q0 34 -27 48.5t-64 14.5h-26v44h26q29 0 53.5 14t24.5 43q0 18 -13.5 32.5t-47.5 14.5q-18 0 -38.5 -9t-34.5 -19l-23 41q23 17 50.5 27.5t54.5 10.5t47 -8t33.5 -21t20.5 -29.5
t7 -32.5q0 -22 -11 -44t-39 -39q35 -17 49 -38t14 -51q0 -21 -8.5 -41t-25.5 -35.5t-42 -25t-59 -9.5z" />
    <glyph glyph-name="oneeighth" unicode="&#x215b;" horiz-adv-x="720" 
d="M669 87q0 -24 -10 -44.5t-27 -34.5t-39.5 -22t-47.5 -8q-27 0 -49.5 8t-38.5 22t-25 32.5t-9 38.5q0 25 15 51t48 42q-29 19 -39.5 40.5t-10.5 39.5q0 22 9 40.5t24.5 32t36 20.5t43.5 7q25 0 45 -8t34 -21t21 -29.5t7 -34.5q0 -16 -11 -38t-43 -43q36 -16 51.5 -40.5
t15.5 -50.5zM616 81q0 28 -19 45t-57 31q-34 -14 -49 -33t-15 -38q0 -26 18 -45.5t52 -19.5q32 0 51 18t19 42zM484 256q0 -23 15.5 -37t50.5 -28q58 26 58 64q0 21 -15.5 38t-45.5 17t-46.5 -16.5t-16.5 -37.5zM131 -36h-49l429 683h49zM52 598l88 47h42v-364h-54v307
l-55 -30z" />
    <glyph glyph-name="threeeighths" unicode="&#x215c;" horiz-adv-x="720" 
d="M683 87q0 -24 -10 -44.5t-27 -34.5t-39.5 -22t-47.5 -8q-27 0 -49.5 8t-38.5 22t-25 32.5t-9 38.5q0 25 15 51t48 42q-29 19 -39.5 40.5t-10.5 39.5q0 22 9 40.5t24.5 32t36 20.5t43.5 7q25 0 45 -8t34 -21t21 -29.5t7 -34.5q0 -16 -11 -38t-43 -43q36 -16 51.5 -40.5
t15.5 -50.5zM630 81q0 28 -19 45t-57 31q-34 -14 -49 -33t-15 -38q0 -26 18 -45.5t52 -19.5q32 0 51 18t19 42zM498 256q0 -23 15.5 -37t50.5 -28q58 26 58 64q0 21 -15.5 38t-45.5 17t-46.5 -16.5t-16.5 -37.5zM161 -36h-49l429 683h49zM129 274q-28 0 -55.5 8.5
t-50.5 21.5l25 44q17 -9 37 -16t43 -7q44 0 62 20t18 41q0 34 -27 48.5t-64 14.5h-26v44h26q29 0 53.5 14t24.5 43q0 18 -13.5 32.5t-47.5 14.5q-18 0 -38.5 -9t-34.5 -19l-23 41q23 17 50.5 27.5t54.5 10.5t47 -8t33.5 -21t20.5 -29.5t7 -32.5q0 -22 -11 -44t-39 -39
q35 -17 49 -38t14 -51q0 -21 -8.5 -41t-25.5 -35.5t-42 -25t-59 -9.5z" />
    <glyph glyph-name="fiveeighths" unicode="&#x215d;" horiz-adv-x="720" 
d="M127 597l-15 -85q6 2 12.5 2.5t11.5 0.5q25 0 48 -7t41 -21t28.5 -35.5t10.5 -49.5t-10 -51.5t-28 -41t-42.5 -27t-54.5 -9.5q-27 0 -52 7t-41 17l14 47q15 -8 37 -14t42 -6q37 0 60 18.5t23 53.5q0 30 -23 51.5t-77 21.5q-14 0 -28 -1t-28 -3l24 180h177v-48h-130z
M683 87q0 -24 -10 -44.5t-27 -34.5t-39.5 -22t-47.5 -8q-27 0 -49.5 8t-38.5 22t-25 32.5t-9 38.5q0 25 15 51t48 42q-29 19 -39.5 40.5t-10.5 39.5q0 22 9 40.5t24.5 32t36 20.5t43.5 7q25 0 45 -8t34 -21t21 -29.5t7 -34.5q0 -16 -11 -38t-43 -43q36 -16 51.5 -40.5
t15.5 -50.5zM630 81q0 28 -19 45t-57 31q-34 -14 -49 -33t-15 -38q0 -26 18 -45.5t52 -19.5q32 0 51 18t19 42zM498 256q0 -23 15.5 -37t50.5 -28q58 26 58 64q0 21 -15.5 38t-45.5 17t-46.5 -16.5t-16.5 -37.5zM160 -36h-49l429 683h49z" />
    <glyph glyph-name="seveneighths" unicode="&#x215e;" horiz-adv-x="720" 
d="M294 607l-158 -331h-55l152 319h-171v49h232v-37zM674 87q0 -24 -10 -44.5t-27 -34.5t-39.5 -22t-47.5 -8q-27 0 -49.5 8t-38.5 22t-25 32.5t-9 38.5q0 25 15 51t48 42q-29 19 -39.5 40.5t-10.5 39.5q0 22 9 40.5t24.5 32t36 20.5t43.5 7q25 0 45 -8t34 -21t21 -29.5
t7 -34.5q0 -16 -11 -38t-43 -43q36 -16 51.5 -40.5t15.5 -50.5zM621 81q0 28 -19 45t-57 31q-34 -14 -49 -33t-15 -38q0 -26 18 -45.5t52 -19.5q32 0 51 18t19 42zM489 256q0 -23 15.5 -37t50.5 -28q58 26 58 64q0 21 -15.5 38t-45.5 17t-46.5 -16.5t-16.5 -37.5zM131 -36
h-49l429 683h49z" />
    <glyph glyph-name="uni2160" unicode="&#x2160;" horiz-adv-x="940" 
d="M506 -34h-73v696h73v-696z" />
    <glyph glyph-name="uni2161" unicode="&#x2161;" horiz-adv-x="940" 
d="M386 -34h-73v696h73v-696zM627 -34h-73v696h73v-696z" />
    <glyph glyph-name="uni2162" unicode="&#x2162;" horiz-adv-x="940" 
d="M266 -34h-73v696h73v-696zM507 -34h-73v696h73v-696zM746 -34h-73v696h73v-696z" />
    <glyph glyph-name="uni2163" unicode="&#x2163;" horiz-adv-x="940" 
d="M223 -34h-73v696h73v-696zM574 39l199 623h74l-228 -696h-89l-228 696h74z" />
    <glyph glyph-name="uni2164" unicode="&#x2164;" horiz-adv-x="940" 
d="M469 39l199 623h74l-228 -696h-89l-228 696h74z" />
    <glyph glyph-name="uni2165" unicode="&#x2165;" horiz-adv-x="940" 
d="M717 662h73v-696h-73v696zM362 39l199 623h74l-228 -696h-89l-228 696h74z" />
    <glyph glyph-name="uni2166" unicode="&#x2166;" horiz-adv-x="940" 
d="M288 50l141 612h72l-168 -696h-89l-168 696h72zM655 -34h-73v696h73v-696zM825 -34h-73v696h73v-696z" />
    <glyph glyph-name="uni2167" unicode="&#x2167;" horiz-adv-x="940" 
d="M828 -34h-71v696h71v-696zM672 -34h-71v696h71v-696zM515 -34h-71v696h71v-696zM216 71l93 591h71l-119 -696h-89l-119 696h71z" />
    <glyph glyph-name="uni2168" unicode="&#x2168;" horiz-adv-x="940" 
d="M617 314l222 -348h-82l-182 283l-181 -283h-82l222 348l-223 348h84l180 -283l181 283h83zM233 -34h-73v696h73v-696z" />
    <glyph glyph-name="uni2169" unicode="&#x2169;" horiz-adv-x="940" 
d="M509 314l224 -348h-79l-185 286l-184 -286h-79l223 348l-224 348h81l183 -286l184 286h80z" />
    <glyph glyph-name="uni2170" unicode="&#x2170;" horiz-adv-x="940" 
d="M435 465h70v-499h-70v499zM505 560h-70v102h70v-102z" />
    <glyph glyph-name="uni2171" unicode="&#x2171;" horiz-adv-x="940" 
d="M315 465h70v-499h-70v499zM385 560h-70v102h70v-102zM555 465h70v-499h-70v499zM625 560h-70v102h70v-102z" />
    <glyph glyph-name="uni2172" unicode="&#x2172;" horiz-adv-x="940" 
d="M195 465h70v-499h-70v499zM265 560h-70v102h70v-102zM435 465h70v-499h-70v499zM505 560h-70v102h70v-102zM675 465h70v-499h-70v499zM745 560h-70v102h70v-102z" />
    <glyph glyph-name="uni2173" unicode="&#x2173;" horiz-adv-x="940" 
d="M181 465h70v-499h-70v499zM251 560h-70v102h70v-102zM586 12l162 453h71l-187 -499h-91l-189 499h69z" />
    <glyph glyph-name="uni2174" unicode="&#x2174;" horiz-adv-x="940" 
d="M470 12l162 453h71l-187 -499h-91l-189 499h69z" />
    <glyph glyph-name="uni2175" unicode="&#x2175;" horiz-adv-x="940" 
d="M759 -34h-70v499h70v-499zM689 662h70v-102h-70v102zM354 12l162 453h71l-187 -499h-91l-189 499h69z" />
    <glyph glyph-name="uni2176" unicode="&#x2176;" horiz-adv-x="940" 
d="M289 9l142 456h71l-167 -499h-90l-170 499h69zM584 465h70v-499h-70v499zM654 560h-70v102h70v-102zM754 465h70v-499h-70v499zM824 560h-70v102h70v-102z" />
    <glyph glyph-name="uni2177" unicode="&#x2177;" horiz-adv-x="940" 
d="M224 32l93 433h71l-118 -499h-90l-120 499h68zM449 465h68v-499h-68v499zM517 560h-68v102h68v-102zM607 465h68v-499h-68v499zM675 560h-68v102h68v-102zM765 465h68v-499h-68v499zM833 560h-68v102h68v-102z" />
    <glyph glyph-name="uni2178" unicode="&#x2178;" horiz-adv-x="940" 
d="M615 215l179 -249h-77l-141 196l-140 -196h-77l179 249l-179 250h77l140 -196l141 196h77zM183 465h70v-499h-70v499zM253 560h-70v102h70v-102z" />
    <glyph glyph-name="uni2179" unicode="&#x2179;" horiz-adv-x="940" 
d="M508 215l179 -249h-77l-141 196l-140 -196h-77l179 249l-179 250h77l140 -196l141 196h77z" />
    <glyph glyph-name="arrowleft" unicode="&#x2190;" horiz-adv-x="940" 
d="M24 300l249 156v-128h647v-56h-647v-128z" />
    <glyph glyph-name="arrowup" unicode="&#x2191;" horiz-adv-x="800" 
d="M429 486v-627h-59v627h-125l155 249l155 -249h-126z" />
    <glyph glyph-name="arrowright" unicode="&#x2192;" horiz-adv-x="940" 
d="M666 144v128h-647v56h647v128l249 -156z" />
    <glyph glyph-name="arrowdown" unicode="&#x2193;" horiz-adv-x="800" 
d="M555 116l-155 -249l-155 249h125v627h59v-627h126z" />
    <glyph glyph-name="arrowboth" unicode="&#x2194;" horiz-adv-x="940" 
d="M292 328h374v128l249 -156l-249 -156v128h-374v-128l-249 156l249 156v-128z" />
    <glyph glyph-name="arrowupdn" unicode="&#x2195;" horiz-adv-x="700" 
d="M503 53l-154 -211l-154 211h124v495h-124l154 211l154 -211h-125v-495h125z" />
    <glyph glyph-name="uni2196" unicode="&#x2196;" horiz-adv-x="940" 
d="M189 645l699 -775l-37 -30l-698 773l-88 -97l-15 238l242 -13z" />
    <glyph glyph-name="uni2197" unicode="&#x2197;" horiz-adv-x="940" 
d="M648 741l242 13l-15 -238l-88 97l-699 -773l-36 30l699 775z" />
    <glyph glyph-name="uni2198" unicode="&#x2198;" horiz-adv-x="940" 
d="M751 -55l-699 775l37 30l698 -773l88 97l15 -238l-242 13z" />
    <glyph glyph-name="uni2199" unicode="&#x2199;" horiz-adv-x="940" 
d="M292 -151l-242 -13l15 238l88 -97l699 773l36 -30l-699 -775z" />
    <glyph glyph-name="arrowdblright" unicode="&#x21d2;" horiz-adv-x="940" 
d="M906 300l-275 -277l-31 36l113 114h-669v54h722l73 73l-74 74h-721v53h669l-113 114l31 36z" />
    <glyph glyph-name="arrowdblboth" unicode="&#x21d4;" horiz-adv-x="940" 
d="M310 577l31 -36l-113 -114h485l-113 114l31 36l275 -277l-275 -277l-31 36l113 114h-485l113 -114l-31 -36l-275 277zM765 374h-590l-73 -74l72 -73h592l73 73z" />
    <glyph glyph-name="universal" unicode="&#x2200;" horiz-adv-x="600" 
d="M97 662l59 -184h287l59 184h69l-229 -696h-85l-229 696h69zM424 421h-250l125 -390z" />
    <glyph glyph-name="partialdiff" unicode="&#x2202;" horiz-adv-x="600" 
d="M124 607q72 28 136 28t114 -26.5t84.5 -72.5t52.5 -108.5t18 -133.5q0 -80 -20 -145.5t-56 -112.5t-85 -73t-106 -26q-47 0 -83 17t-60 45.5t-36.5 67t-12.5 80.5q0 57 17.5 104t47.5 81t70.5 53t87.5 19q54 0 97.5 -23.5t69.5 -64.5q-2 57 -16.5 104t-41.5 81t-66 52.5
t-89 18.5q-26 0 -51 -5.5t-55 -17.5zM268 -2q37 0 69 16.5t56 45t39.5 66.5t19.5 82q2 12 -0.5 23.5t-5.5 20.5q-15 42 -51.5 68t-81.5 26q-75 0 -117.5 -46t-51.5 -124q-3 -31 1 -63t17.5 -57.5t39 -41.5t66.5 -16z" />
    <glyph glyph-name="existential" unicode="&#x2203;" horiz-adv-x="560" 
d="M86 293v64h314v240h-330v65h403v-696h-419v65h346v262h-314z" />
    <glyph glyph-name="gradient" unicode="&#x2207;" horiz-adv-x="940" 
d="M122 587h695l-344 -616zM755 553h-512l259 -453z" />
    <glyph glyph-name="element" unicode="&#x2208;" horiz-adv-x="940" 
d="M373 20q-56 0 -100.5 22.5t-75.5 61t-47 89t-16 107.5t18.5 105.5t51 84.5t77 56.5t97.5 20.5h428v-59h-430q-37 0 -68.5 -15.5t-54.5 -41t-37.5 -58.5t-16.5 -69h607v-60h-607q3 -38 17 -71.5t37 -59t53.5 -40t65.5 -14.5h434v-59h-433z" />
    <glyph glyph-name="suchthat" unicode="&#x220b;" horiz-adv-x="940" 
d="M134 20v59h434q35 0 65.5 14.5t53.5 40t37 59t17 71.5h-607v60h607q-2 36 -16.5 69t-37.5 58.5t-54.5 41t-68.5 15.5h-430v59h428q52 0 97 -20.5t77.5 -56.5t51 -84.5t18.5 -105.5t-16.5 -107.5t-47 -89t-75 -61t-100.5 -22.5h-433z" />
    <glyph glyph-name="product" unicode="&#x220f;" horiz-adv-x="688" 
d="M528 598v-642h-78v642h-223v-642h-75v642h-124v63h624v-63h-124z" />
    <glyph glyph-name="summation" unicode="&#x2211;" horiz-adv-x="700" 
d="M80 -34v27l307 321l-307 299v49h538v-66h-431l288 -276l-274 -287h418v-67h-539z" />
    <glyph glyph-name="radical" unicode="&#x221a;" horiz-adv-x="520" 
d="M362 -175h-14l-213 476l-93 -56l-23 37l147 88l170 -387l140 780h60z" />
    <glyph glyph-name="proportional" unicode="&#x221d;" horiz-adv-x="940" 
d="M816 142q-55 -37 -119 -37q-30 0 -56.5 10.5t-49 29t-42 42.5t-36.5 51q-44 -70 -93 -101.5t-107 -31.5q-39 0 -73 16t-59.5 42.5t-40 62t-14.5 74.5q0 41 14 77t38.5 63t59 42.5t75.5 15.5q61 0 109.5 -29.5t90.5 -101.5q42 63 85 96t100 33q34 0 63 -8t55 -26l-27 -51
q-23 14 -45.5 19.5t-47.5 5.5q-29 0 -50.5 -11t-39 -29.5t-32 -42.5t-28.5 -49q11 -22 25 -46.5t32.5 -45t42.5 -34t54 -13.5q22 0 43.5 5t44.5 20zM479 303q-14 27 -31 52t-37.5 44t-44.5 30t-53 11t-52.5 -11.5t-40 -31t-25.5 -44.5t-9 -53q0 -25 10 -49.5t27.5 -43.5
t40.5 -31t49 -12q31 0 54.5 10t43 28.5t35.5 44t33 56.5z" />
    <glyph glyph-name="infinity" unicode="&#x221e;" horiz-adv-x="800" 
d="M723 327q0 -33 -12.5 -62.5t-33.5 -51.5t-49.5 -34.5t-61.5 -12.5q-95 0 -166 113q-32 -55 -70.5 -82.5t-97.5 -27.5q-33 0 -61.5 12.5t-49.5 34.5t-33 51.5t-12 62.5q0 34 12.5 63.5t34.5 51t51.5 33.5t63.5 12q93 0 161 -113q33 59 74 86t92 27q33 0 62 -12.5
t50.5 -34.5t33.5 -52t12 -64zM675 328q0 22 -8.5 42.5t-23.5 36.5t-35 25.5t-42 9.5q-27 0 -47 -8.5t-36.5 -23.5t-30 -36t-26.5 -46q12 -24 26 -45t30.5 -36t36.5 -24t46 -9q24 0 44.5 9t35 25t22.5 36.5t8 43.5zM234 217q26 0 46 8t36.5 22.5t30 34.5t27.5 44
q-12 22 -26 43t-30.5 37.5t-36.5 26t-45 9.5q-24 0 -44 -9t-35 -24t-23.5 -35t-8.5 -43t8 -43.5t22.5 -36.5t34.5 -25t44 -9z" />
    <glyph glyph-name="angle" unicode="&#x2220;" horiz-adv-x="800" 
d="M104 -14v39l464 552l44 -33l-420 -501h508v-57h-596z" />
    <glyph glyph-name="logicaland" unicode="&#x2227;" horiz-adv-x="940" 
d="M791 -14h-64l-256 521l-260 -521h-63l323 639z" />
    <glyph glyph-name="logicalor" unicode="&#x2228;" horiz-adv-x="940" 
d="M471 -22l-323 639h63l260 -521l256 521h64z" />
    <glyph glyph-name="intersection" unicode="&#x2229;" horiz-adv-x="800" 
d="M663 -35h-61v407q0 48 -13.5 87t-39 66.5t-63.5 43t-86 15.5q-97 0 -150 -57t-53 -153v-409h-61v418q0 57 19 105t53.5 82.5t83.5 54t108 19.5q55 0 103.5 -19t83.5 -53.5t55.5 -82t20.5 -104.5v-420z" />
    <glyph glyph-name="union" unicode="&#x222a;" horiz-adv-x="800" 
d="M663 224q0 -57 -20.5 -104.5t-55.5 -82t-83.5 -53.5t-103.5 -19q-59 0 -108 19.5t-83.5 54t-53.5 82.5t-19 105v418h61v-409q0 -96 53 -153t150 -57q48 0 86 15.5t63.5 43t39 66.5t13.5 87v407h61v-420z" />
    <glyph glyph-name="integral" unicode="&#x222b;" horiz-adv-x="440" 
d="M265 13q3 -61 -23 -100t-94 -39q-32 0 -71 10v57q15 -5 28.5 -6.5t24.5 -1.5q40 0 57 22.5t15 57.5l-27 574q-3 61 23 100t94 39q30 0 71 -10v-57q-17 5 -29.5 6.5t-23.5 1.5q-41 0 -57.5 -22.5t-14.5 -57.5z" />
    <glyph glyph-name="uni222C" unicode="&#x222c;" horiz-adv-x="680" 
d="M260 13q3 -61 -23 -100t-94 -39q-32 0 -71 10v57q15 -5 28.5 -6.5t24.5 -1.5q40 0 57 22.5t15 57.5l-27 574q-3 61 23 100t94 39q30 0 71 -10v-57q-17 5 -29.5 6.5t-23.5 1.5q-41 0 -57.5 -22.5t-14.5 -57.5zM509 13q3 -61 -23 -100t-94 -39q-32 0 -71 10v57
q15 -5 28.5 -6.5t24.5 -1.5q40 0 57 22.5t15 57.5l-27 574q-3 61 23 100t94 39q30 0 71 -10v-57q-17 5 -29.5 6.5t-23.5 1.5q-41 0 -57.5 -22.5t-14.5 -57.5z" />
    <glyph glyph-name="uni222E" unicode="&#x222e;" horiz-adv-x="600" 
d="M347 468q62 -12 102 -54.5t40 -111.5q0 -39 -13.5 -69.5t-37 -52.5t-55.5 -34t-69 -14l-12 -118q-3 -30 -12 -56t-25.5 -44.5t-41.5 -29t-59 -10.5q-15 0 -32.5 2.5t-36.5 7.5l9 57q14 -5 27.5 -6.5t24.5 -1.5q39 0 58.5 22t24.5 57l12 125q-60 13 -98.5 55t-38.5 110
q0 38 13 68t36.5 52t54.5 34.5t67 14.5l12 115q3 30 12 56t25.5 44.5t41 29t59.5 10.5q29 0 69 -10l-9 -57q-30 8 -52 8q-40 0 -59 -22t-24 -57zM429 302q0 43 -23 71.5t-64 38.5l-23 -224q51 5 80.5 35t29.5 79zM174 303q0 -42 22.5 -71t60.5 -40l23 223q-48 -5 -77 -35
t-29 -77z" />
    <glyph glyph-name="therefore" unicode="&#x2234;" horiz-adv-x="940" 
d="M528 516q0 -27 -17.5 -44.5t-42.5 -17.5t-42.5 17.5t-17.5 44.5q0 26 17.5 43.5t42.5 17.5t42.5 -17.5t17.5 -43.5zM764 117q0 -29 -17.5 -45.5t-42.5 -16.5q-24 0 -42.5 17.5t-18.5 44.5q0 26 18.5 43t42.5 17q25 0 42.5 -17t17.5 -43zM296 117q0 -27 -18 -44.5
t-42 -17.5q-26 0 -43.5 17.5t-17.5 44.5q0 26 18 43t43 17q24 0 42 -17t18 -43z" />
    <glyph glyph-name="uni2235" unicode="&#x2235;" horiz-adv-x="940" 
d="M527 116q0 -25 -17 -43t-42 -18t-42 18t-17 43q0 26 17 44t42 18t42 -18t17 -44zM763 515q0 -25 -17 -42.5t-42 -17.5q-24 0 -42 17.5t-18 42.5q0 26 18 44t42 18q25 0 42 -17.5t17 -44.5zM295 515q0 -25 -17.5 -42.5t-41.5 -17.5q-25 0 -42.5 17.5t-17.5 42.5
q0 26 17 44t43 18q24 0 41.5 -18t17.5 -44z" />
    <glyph glyph-name="similar" unicode="&#x223c;" horiz-adv-x="940" 
d="M594 296q53 0 100 13.5t86 36.5l20 -23q-49 -39 -101.5 -58.5t-104.5 -19.5q-64 0 -137 44q-60 36 -117 36q-54 0 -98 -15t-84 -44l-19 23q51 43 102 64t99 21q30 0 63 -10t65 -27q33 -18 67 -29.5t59 -11.5z" />
    <glyph glyph-name="uni223D" unicode="&#x223d;" horiz-adv-x="940" 
d="M859 299q0 -41 -15 -76.5t-41 -62t-61 -42t-75 -15.5q-22 0 -49.5 7.5t-56.5 26.5l29 44q20 -11 40 -16.5t37 -5.5q28 0 52.5 11.5t42.5 31t28 44.5t10 53q0 26 -10 50t-28 42t-42.5 29t-52.5 11q-31 0 -55 -10.5t-44 -29.5t-37 -45t-33 -57q-22 -40 -43.5 -73.5
t-47.5 -58t-58.5 -39t-75.5 -15.5t-78.5 12.5t-61 39.5t-39.5 62.5t-14 81.5q0 42 15 77t41 60t61 38.5t76 13.5q25 0 53.5 -6.5t54.5 -18.5l-27 -50q-25 13 -46 16t-36 3q-29 0 -53.5 -10t-42.5 -28t-28 -42t-10 -52q0 -30 10 -55.5t28 -44t42.5 -28.5t53.5 -9q35 1 60 12
t44.5 30.5t35 46.5t32.5 59q21 39 43 71.5t48.5 56t58.5 36.5t73 13q42 0 77 -14.5t60.5 -40t40 -60t14.5 -74.5z" />
    <glyph glyph-name="uni2252" unicode="&#x2252;" horiz-adv-x="740" 
d="M91 360v54h558v-54h-558zM91 187v53h558v-53h-558zM260 552q0 -24 -16 -40t-39 -16t-38.5 16t-15.5 40t15.5 40.5t38.5 16.5t39 -16.5t16 -40.5zM589 48q0 -24 -16 -40t-39 -16t-38.5 16t-15.5 40t15.5 40.5t38.5 16.5t39 -16.5t16 -40.5z" />
    <glyph glyph-name="notequal" unicode="&#x2260;" horiz-adv-x="740" 
d="M306 230l35 140h-250v54h264l33 130h59l-33 -130h235v-54h-249l-36 -140h285v-53h-299l-36 -143h-57l36 143h-202v53h215z" />
    <glyph glyph-name="equivalence" unicode="&#x2261;" horiz-adv-x="840" 
d="M140 434v58h559v-58h-559zM140 273v58h559v-58h-559zM140 112v58h559v-58h-559z" />
    <glyph glyph-name="lessequal" unicode="&#x2264;" horiz-adv-x="700" 
d="M96 370v46l508 211v-60l-419 -174l419 -174v-58zM96 23v58h508v-58h-508z" />
    <glyph glyph-name="greaterequal" unicode="&#x2265;" horiz-adv-x="700" 
d="M96 161v58l419 174l-419 174v60l508 -211v-46zM96 23v58h508v-58h-508z" />
    <glyph glyph-name="uni226A" unicode="&#x226a;" horiz-adv-x="940" 
d="M618 10l-27 -40l-479 330l473 341l28 -40l-416 -301zM829 10l-27 -40l-479 330l473 341l28 -40l-416 -301z" />
    <glyph glyph-name="uni226B" unicode="&#x226b;" horiz-adv-x="940" 
d="M744 300l-416 301l28 40l473 -341l-479 -330l-27 40zM533 300l-416 301l28 40l473 -341l-479 -330l-27 40z" />
    <glyph glyph-name="propersubset" unicode="&#x2282;" horiz-adv-x="940" 
d="M373 20q-56 0 -100.5 22.5t-75.5 61t-47 89t-16 107.5t18.5 105.5t51 84.5t77 56.5t97.5 20.5h428v-59h-430q-37 0 -69.5 -14.5t-56.5 -41.5t-38 -65.5t-14 -86.5q0 -54 14 -95.5t38 -69.5t55.5 -42t66.5 -14h434v-59h-433z" />
    <glyph glyph-name="propersuperset" unicode="&#x2283;" horiz-adv-x="940" 
d="M134 20v59h434q35 0 66.5 14t55.5 42t38 69.5t14 95.5q0 48 -14 86.5t-38 65.5t-56.5 41.5t-69.5 14.5h-430v59h428q52 0 97 -20.5t77.5 -56.5t51 -84.5t18.5 -105.5t-16.5 -107.5t-47 -89t-75 -61t-100.5 -22.5h-433z" />
    <glyph glyph-name="reflexsubset" unicode="&#x2286;" horiz-adv-x="940" 
d="M335 153q-48 0 -86 15.5t-64.5 44t-41 67t-14.5 85.5q0 46 16.5 83.5t45 64.5t67.5 41.5t84 14.5h458v-60h-460q-69 0 -110 -40t-41 -108q0 -32 10.5 -59t29.5 -47t46 -31.5t60 -11.5h465v-59h-465zM140 -13v59h661v-59h-661z" />
    <glyph glyph-name="reflexsuperset" unicode="&#x2287;" horiz-adv-x="940" 
d="M130 153v59h465q33 0 60 11.5t46 31.5t29.5 47t10.5 59q0 68 -41 108t-110 40h-460v60h458q45 0 84 -14.5t67.5 -41.5t45 -64.5t16.5 -83.5q0 -47 -14.5 -85.5t-41 -67t-64.5 -44t-86 -15.5h-465zM129 -13v59h661v-59h-661z" />
    <glyph glyph-name="uni2299" unicode="&#x2299;" horiz-adv-x="940" 
d="M470 -94q-78 0 -149 29.5t-125 82t-86.5 124.5t-32.5 158q0 81 30.5 153t84 125t125 84t153.5 31t153.5 -31t124.5 -84t84 -125t31 -153q0 -86 -32.5 -158t-86.5 -124.5t-125 -82t-149 -29.5zM583 300q0 25 -9 46.5t-25 37t-36.5 24t-43.5 8.5t-44 -8.5t-36.5 -24
t-24.5 -37t-9 -46.5q0 -24 9 -45t24.5 -36.5t36.5 -25t44 -9.5t44 9.5t36.5 25t24.5 36.5t9 45zM470 -49q73 0 136.5 27.5t110.5 74.5t73.5 111t26.5 136q0 76 -28 140.5t-75.5 111t-110.5 72.5t-133 26t-133 -26t-110.5 -72.5t-75.5 -111t-28 -140.5q0 -72 26.5 -136
t73.5 -111t110 -74.5t137 -27.5z" />
    <glyph glyph-name="perpendicular" unicode="&#x22a5;" horiz-adv-x="800" 
d="M82 -14v58h285v511h65v-511h285v-58h-635z" />
    <glyph glyph-name="uni2312" unicode="&#x2312;" horiz-adv-x="540" 
d="M270 690q-50 0 -82 -22.5t-49 -65.5h-66q21 67 73 105.5t124 38.5t124 -38.5t73 -105.5h-66q-17 43 -49 65.5t-82 22.5z" />
    <glyph glyph-name="uni2460" unicode="&#x2460;" horiz-adv-x="940" 
d="M367 443l-27 49l119 63h52v-504h-64v436zM910 300q0 -91 -34.5 -171t-94 -139.5t-140 -94t-171.5 -34.5q-86 0 -165.5 33t-140 91.5t-96.5 139t-36 175.5q0 90 34.5 170t93.5 139t139 93.5t171 34.5q87 0 166.5 -32.5t140 -90.5t97 -138.5t36.5 -175.5zM856 300
q0 80 -30 150.5t-82 123t-122.5 83t-151.5 30.5q-78 0 -147.5 -29t-122 -80.5t-83.5 -122.5t-31 -155q0 -80 29.5 -150.5t81 -123t122 -83t151.5 -30.5q78 0 148 28.5t123 80t84 122.5t31 156z" />
    <glyph glyph-name="uni2461" unicode="&#x2461;" horiz-adv-x="940" 
d="M319 98q66 63 111 108.5t73 80t40.5 62.5t13.5 55q2 40 -20 66t-74 26q-29 0 -59 -16.5t-56 -42.5l-34 47q35 36 74 55.5t87 19.5q38 0 66.5 -13t47 -33.5t27 -47t7.5 -53.5q-1 -36 -14.5 -69.5t-39 -68.5t-63.5 -74.5t-88 -86.5h219v-62h-318v47zM910 300
q0 -91 -34.5 -171t-94 -139.5t-140 -94t-171.5 -34.5q-86 0 -165.5 33t-140 91.5t-96.5 139t-36 175.5q0 90 34.5 170t93.5 139t139 93.5t171 34.5q87 0 166.5 -32.5t140 -90.5t97 -138.5t36.5 -175.5zM856 300q0 80 -30 150.5t-82 123t-122.5 83t-151.5 30.5
q-78 0 -147.5 -29t-122 -80.5t-83.5 -122.5t-31 -155q0 -80 29.5 -150.5t81 -123t122 -83t151.5 -30.5q78 0 148 28.5t123 80t84 122.5t31 156z" />
    <glyph glyph-name="uni2462" unicode="&#x2462;" horiz-adv-x="940" 
d="M457 41q-41 0 -75 10t-67 28l29 52q21 -12 50 -21t61 -9q34 0 57 9t36.5 22.5t19.5 30t6 31.5q0 25 -11 42t-30 28t-43 16t-51 5h-31v57h31q21 0 41.5 5t37 15.5t27 26t10.5 36.5q0 28 -20 49.5t-71 21.5q-26 0 -53.5 -11t-47.5 -23l-29 48q32 22 69 34.5t73 12.5
q37 0 64.5 -10.5t45 -27.5t26 -39t8.5 -45q0 -29 -17.5 -62.5t-62.5 -56.5q47 -16 73 -46.5t26 -77.5q0 -30 -11 -57.5t-34 -48t-57.5 -33t-79.5 -12.5zM910 300q0 -91 -34.5 -171t-94 -139.5t-140 -94t-171.5 -34.5q-86 0 -165.5 33t-140 91.5t-96.5 139t-36 175.5
q0 90 34.5 170t93.5 139t139 93.5t171 34.5q87 0 166.5 -32.5t140 -90.5t97 -138.5t36.5 -175.5zM856 300q0 80 -30 150.5t-82 123t-122.5 83t-151.5 30.5q-78 0 -147.5 -29t-122 -80.5t-83.5 -122.5t-31 -155q0 -80 29.5 -150.5t81 -123t122 -83t151.5 -30.5q78 0 148 28.5
t123 80t84 122.5t31 156z" />
    <glyph glyph-name="uni2463" unicode="&#x2463;" horiz-adv-x="940" 
d="M493 145h-223v60l210 353h75v-353h63v-60h-63v-94h-62v94zM493 468l-155 -263h155v263zM910 300q0 -91 -34.5 -171t-94 -139.5t-140 -94t-171.5 -34.5q-86 0 -165.5 33t-140 91.5t-96.5 139t-36 175.5q0 90 34.5 170t93.5 139t139 93.5t171 34.5q87 0 166.5 -32.5
t140 -90.5t97 -138.5t36.5 -175.5zM856 300q0 80 -30 150.5t-82 123t-122.5 83t-151.5 30.5q-78 0 -147.5 -29t-122 -80.5t-83.5 -122.5t-31 -155q0 -80 29.5 -150.5t81 -123t122 -83t151.5 -30.5q78 0 148 28.5t123 80t84 122.5t31 156z" />
    <glyph glyph-name="uni2464" unicode="&#x2464;" horiz-adv-x="940" 
d="M430 491l-15 -121q12 2 19 2h14q35 0 67 -9.5t56 -29t38.5 -49t14.5 -69.5q0 -38 -13.5 -70t-38 -55t-58 -36t-73.5 -13q-37 0 -69.5 9.5t-54.5 21.5l20 60q20 -11 46.5 -20t57.5 -9q52 0 86 27.5t34 76.5q0 46 -34 75.5t-111 29.5q-17 0 -32 -1t-26 -3q-2 0 -6 -0.5
t-6 -0.5l31 246h237v-62h-184zM910 300q0 -91 -34.5 -171t-94 -139.5t-140 -94t-171.5 -34.5q-86 0 -165.5 33t-140 91.5t-96.5 139t-36 175.5q0 90 34.5 170t93.5 139t139 93.5t171 34.5q87 0 166.5 -32.5t140 -90.5t97 -138.5t36.5 -175.5zM856 300q0 80 -30 150.5
t-82 123t-122.5 83t-151.5 30.5q-78 0 -147.5 -29t-122 -80.5t-83.5 -122.5t-31 -155q0 -80 29.5 -150.5t81 -123t122 -83t151.5 -30.5q78 0 148 28.5t123 80t84 122.5t31 156z" />
    <glyph glyph-name="uni2465" unicode="&#x2465;" horiz-adv-x="940" 
d="M589 501q-49 0 -92.5 -15t-73.5 -45q-17 -17 -30 -40.5t-23 -63.5q31 30 59 39t55 9q32 0 58.5 -12t46 -33.5t30 -51.5t10.5 -67q0 -35 -11 -67.5t-31.5 -57t-50 -39.5t-67.5 -15t-69.5 15.5t-53.5 43.5t-34 67.5t-12 88.5q0 75 22.5 132t59.5 95q38 39 89 57t112 20z
M470 101q45 0 69 31t24 84q0 52 -25 82t-73 30q-30 0 -55 -17.5t-39 -43.5q-6 -11 -6 -27q0 -29 7 -54.5t20.5 -44.5t33 -29.5t44.5 -10.5zM910 300q0 -91 -34.5 -171t-94 -139.5t-140 -94t-171.5 -34.5q-86 0 -165.5 33t-140 91.5t-96.5 139t-36 175.5q0 90 34.5 170
t93.5 139t139 93.5t171 34.5q87 0 166.5 -32.5t140 -90.5t97 -138.5t36.5 -175.5zM856 300q0 80 -30 150.5t-82 123t-122.5 83t-151.5 30.5q-78 0 -147.5 -29t-122 -80.5t-83.5 -122.5t-31 -155q0 -80 29.5 -150.5t81 -123t122 -83t151.5 -30.5q78 0 148 28.5t123 80
t84 122.5t31 156z" />
    <glyph glyph-name="uni2466" unicode="&#x2466;" horiz-adv-x="940" 
d="M633 491l-215 -455h-70l210 442h-232v62h307v-49zM910 300q0 -91 -34.5 -171t-94 -139.5t-140 -94t-171.5 -34.5q-86 0 -165.5 33t-140 91.5t-96.5 139t-36 175.5q0 90 34.5 170t93.5 139t139 93.5t171 34.5q87 0 166.5 -32.5t140 -90.5t97 -138.5t36.5 -175.5zM856 300
q0 80 -30 150.5t-82 123t-122.5 83t-151.5 30.5q-78 0 -147.5 -29t-122 -80.5t-83.5 -122.5t-31 -155q0 -80 29.5 -150.5t81 -123t122 -83t151.5 -30.5q78 0 148 28.5t123 80t84 122.5t31 156z" />
    <glyph glyph-name="uni2467" unicode="&#x2467;" horiz-adv-x="940" 
d="M636 189q0 -33 -13 -60.5t-35.5 -46.5t-52.5 -29.5t-65 -10.5q-38 0 -68.5 11t-52 29.5t-33 43t-11.5 52.5q0 37 20 72t71 61q-44 25 -58.5 55t-14.5 57q0 31 11.5 56t32 42.5t48 27t60.5 9.5q36 0 63 -10.5t45 -28t27.5 -40t9.5 -46.5q0 -26 -14.5 -57t-60.5 -59
q49 -24 70 -57.5t21 -70.5zM571 181q0 39 -27.5 63.5t-80.5 43.5q-50 -18 -71 -45.5t-21 -54.5q0 -37 26 -63t74 -26q45 0 72.5 24t27.5 58zM383 428q0 -34 23 -54t74 -37q39 15 58.5 39t19.5 50q0 30 -21.5 53.5t-64.5 23.5q-42 0 -65.5 -22.5t-23.5 -52.5zM910 300
q0 -91 -34.5 -171t-94 -139.5t-140 -94t-171.5 -34.5q-86 0 -165.5 33t-140 91.5t-96.5 139t-36 175.5q0 90 34.5 170t93.5 139t139 93.5t171 34.5q87 0 166.5 -32.5t140 -90.5t97 -138.5t36.5 -175.5zM856 300q0 80 -30 150.5t-82 123t-122.5 83t-151.5 30.5
q-78 0 -147.5 -29t-122 -80.5t-83.5 -122.5t-31 -155q0 -80 29.5 -150.5t81 -123t122 -83t151.5 -30.5q78 0 148 28.5t123 80t84 122.5t31 156z" />
    <glyph glyph-name="uni2468" unicode="&#x2468;" horiz-adv-x="940" 
d="M636 345q0 -76 -20 -132.5t-56 -94t-86 -57t-111 -20.5v61q90 -2 138.5 41t67.5 124q-25 -23 -54.5 -33t-55.5 -10q-32 0 -58.5 12t-46.5 33.5t-31.5 51t-12.5 64.5q-2 35 8 66.5t30 55t51 37t72 13.5q35 0 65.5 -15t52.5 -42.5t34.5 -67t12.5 -87.5zM467 498
q-50 0 -72.5 -30.5t-22.5 -78.5q0 -50 26 -78.5t71 -28.5q15 0 33 4.5t33.5 13.5t26 22.5t10.5 31.5q0 30 -7.5 56t-21.5 45.5t-33 31t-43 11.5zM910 300q0 -91 -34.5 -171t-94 -139.5t-140 -94t-171.5 -34.5q-86 0 -165.5 33t-140 91.5t-96.5 139t-36 175.5q0 90 34.5 170
t93.5 139t139 93.5t171 34.5q87 0 166.5 -32.5t140 -90.5t97 -138.5t36.5 -175.5zM856 300q0 80 -30 150.5t-82 123t-122.5 83t-151.5 30.5q-78 0 -147.5 -29t-122 -80.5t-83.5 -122.5t-31 -155q0 -80 29.5 -150.5t81 -123t122 -83t151.5 -30.5q78 0 148 28.5t123 80
t84 122.5t31 156z" />
    <glyph glyph-name="uni2469" unicode="&#x2469;" horiz-adv-x="940" 
d="M497 304q0 -106 22.5 -153.5t60.5 -47.5t60.5 47.5t22.5 153.5t-22.5 153t-60.5 47t-60.5 -47t-22.5 -153zM432 304q0 129 38.5 193.5t109.5 64.5t109.5 -64.5t38.5 -193.5t-38.5 -193.5t-109.5 -64.5t-109.5 64.5t-38.5 193.5zM232 456l-26 46l100 53h50v-504h-62v437z
M910 300q0 -91 -34.5 -171t-94 -139.5t-140 -94t-171.5 -34.5q-86 0 -165.5 33t-140 91.5t-96.5 139t-36 175.5q0 90 34.5 170t93.5 139t139 93.5t171 34.5q87 0 166.5 -32.5t140 -90.5t97 -138.5t36.5 -175.5zM856 300q0 80 -30 150.5t-82 123t-122.5 83t-151.5 30.5
q-78 0 -147.5 -29t-122 -80.5t-83.5 -122.5t-31 -155q0 -80 29.5 -150.5t81 -123t122 -83t151.5 -30.5q78 0 148 28.5t123 80t84 122.5t31 156z" />
    <glyph glyph-name="uni246A" unicode="&#x246a;" horiz-adv-x="940" 
d="M265 456l-25 46l100 53h50v-504h-62v437zM525 456l-25 46l100 53h50v-504h-62v437zM910 300q0 -91 -34.5 -171t-94 -139.5t-140 -94t-171.5 -34.5q-86 0 -165.5 33t-140 91.5t-96.5 139t-36 175.5q0 90 34.5 170t93.5 139t139 93.5t171 34.5q87 0 166.5 -32.5t140 -90.5
t97 -138.5t36.5 -175.5zM856 300q0 80 -30 150.5t-82 123t-122.5 83t-151.5 30.5q-78 0 -147.5 -29t-122 -80.5t-83.5 -122.5t-31 -155q0 -80 29.5 -150.5t81 -123t122 -83t151.5 -30.5q78 0 148 28.5t123 80t84 122.5t31 156z" />
    <glyph glyph-name="uni246B" unicode="&#x246b;" horiz-adv-x="940" 
d="M231 456l-25 46l100 53h50v-504h-62v437zM433 98q55 63 93 108.5t61.5 80t34 62.5t11.5 55q2 40 -16.5 66t-63.5 26q-25 0 -50 -15.5t-47 -41.5l-27 46q29 37 62 55.5t72 18.5q35 0 60.5 -13t42 -33.5t24 -47t6.5 -53.5q-1 -36 -13.5 -69.5t-35 -68.5t-54.5 -74.5
t-74 -86.5h179v-62h-265v47zM910 300q0 -91 -34.5 -171t-94 -139.5t-140 -94t-171.5 -34.5q-86 0 -165.5 33t-140 91.5t-96.5 139t-36 175.5q0 90 34.5 170t93.5 139t139 93.5t171 34.5q87 0 166.5 -32.5t140 -90.5t97 -138.5t36.5 -175.5zM856 300q0 80 -30 150.5t-82 123
t-122.5 83t-151.5 30.5q-78 0 -147.5 -29t-122 -80.5t-83.5 -122.5t-31 -155q0 -80 29.5 -150.5t81 -123t122 -83t151.5 -30.5q78 0 148 28.5t123 80t84 122.5t31 156z" />
    <glyph glyph-name="uni246C" unicode="&#x246c;" horiz-adv-x="940" 
d="M231 456l-25 46l100 53h50v-504h-62v437zM544 41q-39 0 -70.5 9.5t-63.5 28.5l28 52q18 -12 45.5 -21.5t58.5 -9.5q32 0 54 9t35 22.5t18.5 30.5t5.5 32q0 25 -10.5 42t-28.5 28t-41 16t-48 5h-29v57h29q20 0 39.5 5t35.5 15.5t25.5 26t9.5 36.5q0 28 -19 49.5t-67 21.5
q-24 0 -49.5 -11t-44.5 -23l-28 48q62 47 133 47q37 0 63.5 -10.5t43.5 -27.5t25 -39t8 -45q0 -33 -16 -66t-61 -54q46 -15 70.5 -45.5t24.5 -77.5q0 -30 -10.5 -57.5t-32.5 -48t-55 -33t-78 -12.5zM910 300q0 -91 -34.5 -171t-94 -139.5t-140 -94t-171.5 -34.5
q-86 0 -165.5 33t-140 91.5t-96.5 139t-36 175.5q0 90 34.5 170t93.5 139t139 93.5t171 34.5q87 0 166.5 -32.5t140 -90.5t97 -138.5t36.5 -175.5zM856 300q0 80 -30 150.5t-82 123t-122.5 83t-151.5 30.5q-78 0 -147.5 -29t-122 -80.5t-83.5 -122.5t-31 -155
q0 -80 29.5 -150.5t81 -123t122 -83t151.5 -30.5q78 0 148 28.5t123 80t84 122.5t31 156z" />
    <glyph glyph-name="uni246D" unicode="&#x246d;" horiz-adv-x="940" 
d="M910 300q0 -91 -34.5 -171t-94 -139.5t-140 -94t-171.5 -34.5q-86 0 -165.5 33t-140 91.5t-96.5 139t-36 175.5q0 90 34.5 170t93.5 139t139 93.5t171 34.5q87 0 166.5 -32.5t140 -90.5t97 -138.5t36.5 -175.5zM856 300q0 80 -30 150.5t-82 123t-122.5 83t-151.5 30.5
q-78 0 -147.5 -29t-122 -80.5t-83.5 -122.5t-31 -155q0 -80 29.5 -150.5t81 -123t122 -83t151.5 -30.5q78 0 148 28.5t123 80t84 122.5t31 156zM616 145h-193v52l181 361h74v-353h53v-60h-53v-94h-62v94zM231 456l-25 46l100 53h50v-504h-62v437zM616 458l-124 -253h124v253
z" />
    <glyph glyph-name="uni246E" unicode="&#x246e;" horiz-adv-x="940" 
d="M231 456l-25 46l100 53h50v-504h-62v437zM526 491l-16 -122q11 2 20 2h14q35 0 66.5 -10.5t55 -30t37.5 -48.5t14 -67t-13 -70t-37.5 -55t-59 -36t-76.5 -13q-35 0 -66.5 9.5t-52.5 21.5l27 55q19 -10 43 -17t49 -7q54 0 87.5 28t33.5 76t-33 77t-110 29q-17 0 -33 -2
t-33 -4l29 246h230v-62h-176zM910 300q0 -91 -34.5 -171t-94 -139.5t-140 -94t-171.5 -34.5q-86 0 -165.5 33t-140 91.5t-96.5 139t-36 175.5q0 90 34.5 170t93.5 139t139 93.5t171 34.5q87 0 166.5 -32.5t140 -90.5t97 -138.5t36.5 -175.5zM856 300q0 80 -30 150.5t-82 123
t-122.5 83t-151.5 30.5q-78 0 -147.5 -29t-122 -80.5t-83.5 -122.5t-31 -155q0 -80 29.5 -150.5t81 -123t122 -83t151.5 -30.5q78 0 148 28.5t123 80t84 122.5t31 156z" />
    <glyph glyph-name="uni2474" unicode="&#x2474;" horiz-adv-x="940" 
d="M367 443l-27 49l119 63h52v-504h-64v436zM32 300q0 113 35.5 221t110.5 194h49q-73 -85 -106 -194.5t-33 -220.5q0 -54 7.5 -110.5t24 -111.5t43 -106.5t63.5 -95.5h-50q-36 40 -63 90.5t-45 106.5t-27 114t-9 113zM910 300q0 -55 -9 -113t-27 -114t-45 -106.5t-63 -90.5
h-50q37 44 63.5 95.5t43 106.5t24 111.5t7.5 110.5q0 111 -33 220.5t-106 194.5h49q75 -86 110.5 -194t35.5 -221z" />
    <glyph glyph-name="uni2475" unicode="&#x2475;" horiz-adv-x="940" 
d="M319 98q66 63 111 108.5t73 80t40.5 62.5t13.5 55q2 40 -20 66t-74 26q-29 0 -59 -16.5t-56 -42.5l-34 47q35 36 74 55.5t87 19.5q38 0 66.5 -13t47 -33.5t27 -47t7.5 -53.5q-1 -36 -14.5 -69.5t-39 -68.5t-63.5 -74.5t-88 -86.5h219v-62h-318v47zM32 300q0 113 35.5 221
t110.5 194h49q-73 -85 -106 -194.5t-33 -220.5q0 -54 7.5 -110.5t24 -111.5t43 -106.5t63.5 -95.5h-50q-36 40 -63 90.5t-45 106.5t-27 114t-9 113zM910 300q0 -55 -9 -113t-27 -114t-45 -106.5t-63 -90.5h-50q37 44 63.5 95.5t43 106.5t24 111.5t7.5 110.5q0 111 -33 220.5
t-106 194.5h49q75 -86 110.5 -194t35.5 -221z" />
    <glyph glyph-name="uni2476" unicode="&#x2476;" horiz-adv-x="940" 
d="M457 41q-41 0 -75 10t-67 28l29 52q21 -12 50 -21t61 -9q34 0 57 9t36.5 22.5t19.5 30t6 31.5q0 25 -11 42t-30 28t-43 16t-51 5h-31v57h31q21 0 41.5 5t37 15.5t27 26t10.5 36.5q0 28 -20 49.5t-71 21.5q-26 0 -53.5 -11t-47.5 -23l-29 48q32 22 69 34.5t73 12.5
q37 0 64.5 -10.5t45 -27.5t26 -39t8.5 -45q0 -29 -17.5 -62.5t-62.5 -56.5q47 -16 73 -46.5t26 -77.5q0 -30 -11 -57.5t-34 -48t-57.5 -33t-79.5 -12.5zM32 300q0 113 35.5 221t110.5 194h49q-73 -85 -106 -194.5t-33 -220.5q0 -54 7.5 -110.5t24 -111.5t43 -106.5
t63.5 -95.5h-50q-36 40 -63 90.5t-45 106.5t-27 114t-9 113zM910 300q0 -55 -9 -113t-27 -114t-45 -106.5t-63 -90.5h-50q37 44 63.5 95.5t43 106.5t24 111.5t7.5 110.5q0 111 -33 220.5t-106 194.5h49q75 -86 110.5 -194t35.5 -221z" />
    <glyph glyph-name="uni2477" unicode="&#x2477;" horiz-adv-x="940" 
d="M493 145h-223v60l210 353h75v-353h63v-60h-63v-94h-62v94zM493 468l-155 -263h155v263zM32 300q0 113 35.5 221t110.5 194h49q-73 -85 -106 -194.5t-33 -220.5q0 -54 7.5 -110.5t24 -111.5t43 -106.5t63.5 -95.5h-50q-36 40 -63 90.5t-45 106.5t-27 114t-9 113zM910 300
q0 -55 -9 -113t-27 -114t-45 -106.5t-63 -90.5h-50q37 44 63.5 95.5t43 106.5t24 111.5t7.5 110.5q0 111 -33 220.5t-106 194.5h49q75 -86 110.5 -194t35.5 -221z" />
    <glyph glyph-name="uni2478" unicode="&#x2478;" horiz-adv-x="940" 
d="M430 491l-15 -121q12 2 19 2h14q35 0 67 -9.5t56 -29t38.5 -49t14.5 -69.5q0 -38 -13.5 -70t-38 -55t-58 -36t-73.5 -13q-37 0 -69.5 9.5t-54.5 21.5l20 60q20 -11 46.5 -20t57.5 -9q52 0 86 27.5t34 76.5q0 46 -34 75.5t-111 29.5q-17 0 -32 -1t-26 -3q-2 0 -6 -0.5
t-6 -0.5l31 246h237v-62h-184zM32 300q0 113 35.5 221t110.5 194h49q-73 -85 -106 -194.5t-33 -220.5q0 -54 7.5 -110.5t24 -111.5t43 -106.5t63.5 -95.5h-50q-36 40 -63 90.5t-45 106.5t-27 114t-9 113zM910 300q0 -55 -9 -113t-27 -114t-45 -106.5t-63 -90.5h-50
q37 44 63.5 95.5t43 106.5t24 111.5t7.5 110.5q0 111 -33 220.5t-106 194.5h49q75 -86 110.5 -194t35.5 -221z" />
    <glyph glyph-name="uni2479" unicode="&#x2479;" horiz-adv-x="940" 
d="M589 501q-49 0 -92.5 -15t-73.5 -45q-17 -17 -30 -40.5t-23 -63.5q31 30 59 39t55 9q32 0 58.5 -12t46 -33.5t30 -51.5t10.5 -67q0 -35 -11 -67.5t-31.5 -57t-50 -39.5t-67.5 -15t-69.5 15.5t-53.5 43.5t-34 67.5t-12 88.5q0 75 22.5 132t59.5 95q38 39 89 57t112 20z
M470 101q45 0 69 31t24 84q0 52 -25 82t-73 30q-30 0 -55 -17.5t-39 -43.5q-6 -11 -6 -27q0 -29 7 -54.5t20.5 -44.5t33 -29.5t44.5 -10.5zM32 300q0 113 35.5 221t110.5 194h49q-73 -85 -106 -194.5t-33 -220.5q0 -54 7.5 -110.5t24 -111.5t43 -106.5t63.5 -95.5h-50
q-36 40 -63 90.5t-45 106.5t-27 114t-9 113zM910 300q0 -55 -9 -113t-27 -114t-45 -106.5t-63 -90.5h-50q37 44 63.5 95.5t43 106.5t24 111.5t7.5 110.5q0 111 -33 220.5t-106 194.5h49q75 -86 110.5 -194t35.5 -221z" />
    <glyph glyph-name="uni247A" unicode="&#x247a;" horiz-adv-x="940" 
d="M633 491l-215 -455h-70l210 442h-232v62h307v-49zM32 300q0 113 35.5 221t110.5 194h49q-73 -85 -106 -194.5t-33 -220.5q0 -54 7.5 -110.5t24 -111.5t43 -106.5t63.5 -95.5h-50q-36 40 -63 90.5t-45 106.5t-27 114t-9 113zM910 300q0 -55 -9 -113t-27 -114t-45 -106.5
t-63 -90.5h-50q37 44 63.5 95.5t43 106.5t24 111.5t7.5 110.5q0 111 -33 220.5t-106 194.5h49q75 -86 110.5 -194t35.5 -221z" />
    <glyph glyph-name="uni247B" unicode="&#x247b;" horiz-adv-x="940" 
d="M636 189q0 -33 -13 -60.5t-35.5 -46.5t-52.5 -29.5t-65 -10.5q-38 0 -68.5 11t-52 29.5t-33 43t-11.5 52.5q0 37 20 72t71 61q-44 25 -58.5 55t-14.5 57q0 31 11.5 56t32 42.5t48 27t60.5 9.5q36 0 63 -10.5t45 -28t27.5 -40t9.5 -46.5q0 -26 -14.5 -57t-60.5 -59
q49 -24 70 -57.5t21 -70.5zM571 181q0 39 -27.5 63.5t-80.5 43.5q-50 -18 -71 -45.5t-21 -54.5q0 -37 26 -63t74 -26q45 0 72.5 24t27.5 58zM383 428q0 -34 23 -54t74 -37q39 15 58.5 39t19.5 50q0 30 -21.5 53.5t-64.5 23.5q-42 0 -65.5 -22.5t-23.5 -52.5zM32 300
q0 113 35.5 221t110.5 194h49q-73 -85 -106 -194.5t-33 -220.5q0 -54 7.5 -110.5t24 -111.5t43 -106.5t63.5 -95.5h-50q-36 40 -63 90.5t-45 106.5t-27 114t-9 113zM910 300q0 -55 -9 -113t-27 -114t-45 -106.5t-63 -90.5h-50q37 44 63.5 95.5t43 106.5t24 111.5t7.5 110.5
q0 111 -33 220.5t-106 194.5h49q75 -86 110.5 -194t35.5 -221z" />
    <glyph glyph-name="uni247C" unicode="&#x247c;" horiz-adv-x="940" 
d="M636 345q0 -76 -20 -132.5t-56 -94t-86 -57t-111 -20.5v61q90 -2 138.5 41t67.5 124q-25 -23 -54.5 -33t-55.5 -10q-32 0 -58.5 12t-46.5 33.5t-31.5 51t-12.5 64.5q-2 35 8 66.5t30 55t51 37t72 13.5q35 0 65.5 -15t52.5 -42.5t34.5 -67t12.5 -87.5zM467 498
q-50 0 -72.5 -30.5t-22.5 -78.5q0 -50 26 -78.5t71 -28.5q15 0 33 4.5t33.5 13.5t26 22.5t10.5 31.5q0 30 -7.5 56t-21.5 45.5t-33 31t-43 11.5zM32 300q0 113 35.5 221t110.5 194h49q-73 -85 -106 -194.5t-33 -220.5q0 -54 7.5 -110.5t24 -111.5t43 -106.5t63.5 -95.5h-50
q-36 40 -63 90.5t-45 106.5t-27 114t-9 113zM910 300q0 -55 -9 -113t-27 -114t-45 -106.5t-63 -90.5h-50q37 44 63.5 95.5t43 106.5t24 111.5t7.5 110.5q0 111 -33 220.5t-106 194.5h49q75 -86 110.5 -194t35.5 -221z" />
    <glyph glyph-name="uni247D" unicode="&#x247d;" horiz-adv-x="940" 
d="M497 304q0 -106 22.5 -153.5t60.5 -47.5t60.5 47.5t22.5 153.5t-22.5 153t-60.5 47t-60.5 -47t-22.5 -153zM432 304q0 129 38.5 193.5t109.5 64.5t109.5 -64.5t38.5 -193.5t-38.5 -193.5t-109.5 -64.5t-109.5 64.5t-38.5 193.5zM232 456l-26 46l100 53h50v-504h-62v437z
M32 300q0 113 35.5 221t110.5 194h49q-73 -85 -106 -194.5t-33 -220.5q0 -54 7.5 -110.5t24 -111.5t43 -106.5t63.5 -95.5h-50q-36 40 -63 90.5t-45 106.5t-27 114t-9 113zM910 300q0 -55 -9 -113t-27 -114t-45 -106.5t-63 -90.5h-50q37 44 63.5 95.5t43 106.5t24 111.5
t7.5 110.5q0 111 -33 220.5t-106 194.5h49q75 -86 110.5 -194t35.5 -221z" />
    <glyph glyph-name="uni247E" unicode="&#x247e;" horiz-adv-x="940" 
d="M265 456l-25 46l100 53h50v-504h-62v437zM525 456l-25 46l100 53h50v-504h-62v437zM32 300q0 113 35.5 221t110.5 194h49q-73 -85 -106 -194.5t-33 -220.5q0 -54 7.5 -110.5t24 -111.5t43 -106.5t63.5 -95.5h-50q-36 40 -63 90.5t-45 106.5t-27 114t-9 113zM910 300
q0 -55 -9 -113t-27 -114t-45 -106.5t-63 -90.5h-50q37 44 63.5 95.5t43 106.5t24 111.5t7.5 110.5q0 111 -33 220.5t-106 194.5h49q75 -86 110.5 -194t35.5 -221z" />
    <glyph glyph-name="uni247F" unicode="&#x247f;" horiz-adv-x="940" 
d="M231 456l-25 46l100 53h50v-504h-62v437zM433 98q55 63 93 108.5t61.5 80t34 62.5t11.5 55q2 40 -16.5 66t-63.5 26q-25 0 -50 -15.5t-47 -41.5l-27 46q29 37 62 55.5t72 18.5q35 0 60.5 -13t42 -33.5t24 -47t6.5 -53.5q-1 -36 -13.5 -69.5t-35 -68.5t-54.5 -74.5
t-74 -86.5h179v-62h-265v47zM32 300q0 113 35.5 221t110.5 194h49q-73 -85 -106 -194.5t-33 -220.5q0 -54 7.5 -110.5t24 -111.5t43 -106.5t63.5 -95.5h-50q-36 40 -63 90.5t-45 106.5t-27 114t-9 113zM910 300q0 -55 -9 -113t-27 -114t-45 -106.5t-63 -90.5h-50
q37 44 63.5 95.5t43 106.5t24 111.5t7.5 110.5q0 111 -33 220.5t-106 194.5h49q75 -86 110.5 -194t35.5 -221z" />
    <glyph glyph-name="uni2480" unicode="&#x2480;" horiz-adv-x="940" 
d="M231 456l-25 46l100 53h50v-504h-62v437zM544 41q-39 0 -70.5 9.5t-63.5 28.5l28 52q18 -12 45.5 -21.5t58.5 -9.5q32 0 54 9t35 22.5t18.5 30.5t5.5 32q0 25 -10.5 42t-28.5 28t-41 16t-48 5h-29v57h29q20 0 39.5 5t35.5 15.5t25.5 26t9.5 36.5q0 28 -19 49.5t-67 21.5
q-24 0 -49.5 -11t-44.5 -23l-28 48q62 47 133 47q37 0 63.5 -10.5t43.5 -27.5t25 -39t8 -45q0 -33 -16 -66t-61 -54q46 -15 70.5 -45.5t24.5 -77.5q0 -30 -10.5 -57.5t-32.5 -48t-55 -33t-78 -12.5zM32 300q0 113 35.5 221t110.5 194h49q-73 -85 -106 -194.5t-33 -220.5
q0 -54 7.5 -110.5t24 -111.5t43 -106.5t63.5 -95.5h-50q-36 40 -63 90.5t-45 106.5t-27 114t-9 113zM910 300q0 -55 -9 -113t-27 -114t-45 -106.5t-63 -90.5h-50q37 44 63.5 95.5t43 106.5t24 111.5t7.5 110.5q0 111 -33 220.5t-106 194.5h49q75 -86 110.5 -194t35.5 -221z
" />
    <glyph glyph-name="uni2481" unicode="&#x2481;" horiz-adv-x="940" 
d="M616 51h62v94h53v60h-53v353h-74l-181 -361v-52h193v-94zM910 300q0 -55 -9 -113t-27 -114t-45 -106.5t-63 -90.5h-50q37 44 63.5 95.5t43 106.5t24 111.5t7.5 110.5q0 111 -33 220.5t-106 194.5h49q75 -86 110.5 -194t35.5 -221zM32 300q0 -55 9 -113t27 -114t45 -106.5
t63 -90.5h50q-37 44 -63.5 95.5t-43 106.5t-24 111.5t-7.5 110.5q0 111 33 220.5t106 194.5h-49q-75 -86 -110.5 -194t-35.5 -221zM294 488v-437h62v504h-50l-100 -53l25 -46zM616 205h-124l124 253v-253z" />
    <glyph glyph-name="uni2482" unicode="&#x2482;" horiz-adv-x="940" 
d="M231 456l-25 46l100 53h50v-504h-62v437zM526 491l-16 -122q11 2 20 2h14q35 0 66.5 -10.5t55 -30t37.5 -48.5t14 -67t-13 -70t-37.5 -55t-59 -36t-76.5 -13q-35 0 -66.5 9.5t-52.5 21.5l27 55q19 -10 43 -17t49 -7q54 0 87.5 28t33.5 76t-33 77t-110 29q-17 0 -33 -2
t-33 -4l29 246h230v-62h-176zM32 300q0 113 35.5 221t110.5 194h49q-73 -85 -106 -194.5t-33 -220.5q0 -54 7.5 -110.5t24 -111.5t43 -106.5t63.5 -95.5h-50q-36 40 -63 90.5t-45 106.5t-27 114t-9 113zM910 300q0 -55 -9 -113t-27 -114t-45 -106.5t-63 -90.5h-50
q37 44 63.5 95.5t43 106.5t24 111.5t7.5 110.5q0 111 -33 220.5t-106 194.5h49q75 -86 110.5 -194t35.5 -221z" />
    <glyph glyph-name="uni249C" unicode="&#x249c;" horiz-adv-x="940" 
d="M498 350q11 0 19.5 -0.5t12.5 -0.5v10q0 10 -3 23.5t-11.5 25.5t-24 20t-41.5 8q-20 0 -44 -9t-47 -26l-22 49q24 19 56 30.5t67 11.5q40 0 66 -13t41 -34t21 -48t6 -54v-222h-62v36q-24 -21 -53.5 -32.5t-58.5 -11.5q-27 0 -46 9t-31.5 24t-18.5 34t-6 39q0 60 45 95.5
t135 35.5zM527 227q3 12 3 19v49q-11 2 -20 3t-17 1q-22 0 -42 -4.5t-35 -13.5t-23.5 -22.5t-8.5 -31.5q0 -30 14.5 -44t37.5 -14q34 0 59 18t32 40zM32 300q0 113 35.5 221t110.5 194h49q-73 -85 -106 -194.5t-33 -220.5q0 -54 7.5 -110.5t24 -111.5t43 -106.5t63.5 -95.5
h-50q-36 40 -63 90.5t-45 106.5t-27 114t-9 113zM910 300q0 -55 -9 -113t-27 -114t-45 -106.5t-63 -90.5h-50q37 44 63.5 95.5t43 106.5t24 111.5t7.5 110.5q0 111 -33 220.5t-106 194.5h49q75 -86 110.5 -194t35.5 -221z" />
    <glyph glyph-name="uni249D" unicode="&#x249d;" horiz-adv-x="940" 
d="M403 582v-204q26 29 53.5 39.5t64.5 10.5q33 0 60.5 -13.5t47.5 -38t31 -58.5t11 -75q0 -49 -14 -85.5t-36.5 -60.5t-51 -36t-58.5 -12q-32 0 -60 9t-56 44v-45h-59v525h67zM401 204q0 -19 7 -36.5t20 -30.5t31 -21t40 -8q50 0 77.5 36.5t27.5 96.5q0 26 -7 49t-20 40.5
t-32.5 28t-44.5 10.5q-21 0 -39 -8.5t-31.5 -23t-21 -33t-7.5 -37.5v-63zM32 300q0 113 35.5 221t110.5 194h49q-73 -85 -106 -194.5t-33 -220.5q0 -54 7.5 -110.5t24 -111.5t43 -106.5t63.5 -95.5h-50q-36 40 -63 90.5t-45 106.5t-27 114t-9 113zM910 300q0 -55 -9 -113
t-27 -114t-45 -106.5t-63 -90.5h-50q37 44 63.5 95.5t43 106.5t24 111.5t7.5 110.5q0 111 -33 220.5t-106 194.5h49q75 -86 110.5 -194t35.5 -221z" />
    <glyph glyph-name="uni249E" unicode="&#x249e;" horiz-adv-x="940" 
d="M489 170q24 0 43 5t36 12l12 -55q-18 -9 -44 -15.5t-59 -6.5q-40 0 -72.5 13.5t-56 38.5t-36 60t-12.5 77t13 77t37.5 60t59 39t78.5 14q27 0 50.5 -6t39.5 -14l-16 -56q-14 6 -33.5 11t-40.5 5q-59 0 -90 -36t-31 -90q0 -62 34.5 -97.5t87.5 -35.5zM32 300
q0 113 35.5 221t110.5 194h49q-73 -85 -106 -194.5t-33 -220.5q0 -54 7.5 -110.5t24 -111.5t43 -106.5t63.5 -95.5h-50q-36 40 -63 90.5t-45 106.5t-27 114t-9 113zM910 300q0 -55 -9 -113t-27 -114t-45 -106.5t-63 -90.5h-50q37 44 63.5 95.5t43 106.5t24 111.5t7.5 110.5
q0 111 -33 220.5t-106 194.5h49q75 -86 110.5 -194t35.5 -221z" />
    <glyph glyph-name="uni249F" unicode="&#x249f;" horiz-adv-x="940" 
d="M612 582v-525h-59v45q-14 -17 -28 -27.5t-28 -16t-29 -7.5t-31 -2q-30 0 -58.5 12t-51 36t-36.5 60.5t-14 85.5q0 41 11 75t31 58.5t47.5 38t60.5 13.5q37 0 64.5 -10.5t53.5 -39.5v204h67zM547 267q0 19 -7.5 37.5t-21 33t-31.5 23t-39 8.5q-25 0 -44.5 -10.5t-32.5 -28
t-20 -40.5t-7 -49q0 -60 27.5 -96.5t77.5 -36.5q22 0 40 8t31 21t20 30.5t7 36.5v63zM32 300q0 113 35.5 221t110.5 194h49q-73 -85 -106 -194.5t-33 -220.5q0 -54 7.5 -110.5t24 -111.5t43 -106.5t63.5 -95.5h-50q-36 40 -63 90.5t-45 106.5t-27 114t-9 113zM910 300
q0 -55 -9 -113t-27 -114t-45 -106.5t-63 -90.5h-50q37 44 63.5 95.5t43 106.5t24 111.5t7.5 110.5q0 111 -33 220.5t-106 194.5h49q75 -86 110.5 -194t35.5 -221z" />
    <glyph glyph-name="uni24A0" unicode="&#x24a0;" horiz-adv-x="940" 
d="M470 434q-25 0 -42 -9t-28 -23t-16.5 -30.5t-7.5 -31.5h183q-2 15 -7.5 31.5t-16 30.5t-26.5 23t-39 9zM484 168q23 0 51.5 9t57.5 26l21 -47q-35 -23 -67.5 -33.5t-67.5 -10.5q-34 0 -64.5 12t-53 36t-36 59.5t-13.5 82.5q0 41 11 75.5t31 59.5t49.5 39t66.5 14
q43 0 72.5 -16.5t47.5 -44.5t25 -66t6 -81h-245q5 -60 35.5 -87t72.5 -27zM32 300q0 113 35.5 221t110.5 194h49q-73 -85 -106 -194.5t-33 -220.5q0 -54 7.5 -110.5t24 -111.5t43 -106.5t63.5 -95.5h-50q-36 40 -63 90.5t-45 106.5t-27 114t-9 113zM910 300q0 -55 -9 -113
t-27 -114t-45 -106.5t-63 -90.5h-50q37 44 63.5 95.5t43 106.5t24 111.5t7.5 110.5q0 111 -33 220.5t-106 194.5h49q75 -86 110.5 -194t35.5 -221z" />
    <glyph glyph-name="uni24A1" unicode="&#x24a1;" horiz-adv-x="940" 
d="M525 504q-29 0 -39.5 -13t-10.5 -41v-61h86v-57h-86v-307h-64v307h-59v57h59v61q0 49 23.5 80t74.5 31h49v-57h-33zM32 300q0 113 35.5 221t110.5 194h49q-73 -85 -106 -194.5t-33 -220.5q0 -54 7.5 -110.5t24 -111.5t43 -106.5t63.5 -95.5h-50q-36 40 -63 90.5
t-45 106.5t-27 114t-9 113zM910 300q0 -55 -9 -113t-27 -114t-45 -106.5t-63 -90.5h-50q37 44 63.5 95.5t43 106.5t24 111.5t7.5 110.5q0 111 -33 220.5t-106 194.5h49q75 -86 110.5 -194t35.5 -221z" />
    <glyph glyph-name="uni24A2" unicode="&#x24a2;" horiz-adv-x="940" 
d="M626 233q0 -47 -8 -86t-28 -66.5t-54 -42.5t-85 -15q-29 0 -61 7.5t-60 24.5l21 48q25 -13 48.5 -18.5t53.5 -5.5q24 0 43.5 6t34 21t22.5 40.5t10 64.5q-26 -32 -56.5 -42.5t-64.5 -10.5q-33 0 -60.5 13t-47.5 37t-31 58t-11 76q0 49 13.5 85t36 60t51.5 35.5t59 11.5
q32 0 59 -9t57 -42v43h58v-293zM562 379q0 19 -7 36.5t-20 31.5t-31 22.5t-40 8.5q-50 0 -78 -35.5t-28 -98.5q0 -55 27 -92.5t78 -37.5q21 0 39 9t31.5 24t21 33.5t7.5 38.5v60zM32 300q0 113 35.5 221t110.5 194h49q-73 -85 -106 -194.5t-33 -220.5q0 -54 7.5 -110.5
t24 -111.5t43 -106.5t63.5 -95.5h-50q-36 40 -63 90.5t-45 106.5t-27 114t-9 113zM910 300q0 -55 -9 -113t-27 -114t-45 -106.5t-63 -90.5h-50q37 44 63.5 95.5t43 106.5t24 111.5t7.5 110.5q0 111 -33 220.5t-106 194.5h49q75 -86 110.5 -194t35.5 -221z" />
    <glyph glyph-name="uni24A3" unicode="&#x24a3;" horiz-adv-x="940" 
d="M573 302q0 32 -18.5 50.5t-53.5 18.5q-17 0 -33.5 -6.5t-31.5 -18t-27 -26.5t-19 -31v-233h-64v525h64v-211q28 30 59 43.5t59 13.5q62 0 95.5 -35.5t33.5 -90.5v-245h-64v246zM32 300q0 113 35.5 221t110.5 194h49q-73 -85 -106 -194.5t-33 -220.5q0 -54 7.5 -110.5
t24 -111.5t43 -106.5t63.5 -95.5h-50q-36 40 -63 90.5t-45 106.5t-27 114t-9 113zM910 300q0 -55 -9 -113t-27 -114t-45 -106.5t-63 -90.5h-50q37 44 63.5 95.5t43 106.5t24 111.5t7.5 110.5q0 111 -33 220.5t-106 194.5h49q75 -86 110.5 -194t35.5 -221z" />
    <glyph glyph-name="uni24A4" unicode="&#x24a4;" horiz-adv-x="940" 
d="M437 410h64v-354h-64v354zM501 484h-64v76h64v-76zM32 300q0 113 35.5 221t110.5 194h49q-73 -85 -106 -194.5t-33 -220.5q0 -54 7.5 -110.5t24 -111.5t43 -106.5t63.5 -95.5h-50q-36 40 -63 90.5t-45 106.5t-27 114t-9 113zM910 300q0 -55 -9 -113t-27 -114t-45 -106.5
t-63 -90.5h-50q37 44 63.5 95.5t43 106.5t24 111.5t7.5 110.5q0 111 -33 220.5t-106 194.5h49q75 -86 110.5 -194t35.5 -221z" />
    <glyph glyph-name="uni24A5" unicode="&#x24a5;" horiz-adv-x="940" 
d="M521 510h-64v76h64v-76zM366 50q48 5 69.5 22.5t21.5 59.5v304h64v-304q0 -60 -34.5 -95.5t-114.5 -43.5zM32 300q0 113 35.5 221t110.5 194h49q-73 -85 -106 -194.5t-33 -220.5q0 -54 7.5 -110.5t24 -111.5t43 -106.5t63.5 -95.5h-50q-36 40 -63 90.5t-45 106.5t-27 114
t-9 113zM910 300q0 -55 -9 -113t-27 -114t-45 -106.5t-63 -90.5h-50q37 44 63.5 95.5t43 106.5t24 111.5t7.5 110.5q0 111 -33 220.5t-106 194.5h49q75 -86 110.5 -194t35.5 -221z" />
    <glyph glyph-name="uni24A6" unicode="&#x24a6;" horiz-adv-x="940" 
d="M414 293l146 137h84l-164 -154l163 -210h-77l-130 170l-22 -22v-148h-63v525h63v-298zM32 300q0 113 35.5 221t110.5 194h49q-73 -85 -106 -194.5t-33 -220.5q0 -54 7.5 -110.5t24 -111.5t43 -106.5t63.5 -95.5h-50q-36 40 -63 90.5t-45 106.5t-27 114t-9 113zM910 300
q0 -55 -9 -113t-27 -114t-45 -106.5t-63 -90.5h-50q37 44 63.5 95.5t43 106.5t24 111.5t7.5 110.5q0 111 -33 220.5t-106 194.5h49q75 -86 110.5 -194t35.5 -221z" />
    <glyph glyph-name="uni24A7" unicode="&#x24a7;" horiz-adv-x="940" 
d="M437 560h64v-504h-64v504zM32 300q0 113 35.5 221t110.5 194h49q-73 -85 -106 -194.5t-33 -220.5q0 -54 7.5 -110.5t24 -111.5t43 -106.5t63.5 -95.5h-50q-36 40 -63 90.5t-45 106.5t-27 114t-9 113zM910 300q0 -55 -9 -113t-27 -114t-45 -106.5t-63 -90.5h-50
q37 44 63.5 95.5t43 106.5t24 111.5t7.5 110.5q0 111 -33 220.5t-106 194.5h49q75 -86 110.5 -194t35.5 -221z" />
    <glyph glyph-name="uni24A8" unicode="&#x24a8;" horiz-adv-x="940" 
d="M654 376q0 33 -17 46.5t-48 13.5q-20 0 -41.5 -13.5t-36.5 -38.5v-263h-64v255q0 33 -16.5 46.5t-48.5 13.5q-22 0 -42.5 -12.5t-34.5 -36.5v-266h-64v364h64v-43q18 30 43.5 40t48.5 10q32 0 58.5 -14.5t43.5 -40.5q25 30 53 42.5t51 12.5q54 0 84.5 -31t30.5 -84v-256
h-64v255zM32 300q0 113 35.5 221t110.5 194h49q-73 -85 -106 -194.5t-33 -220.5q0 -54 7.5 -110.5t24 -111.5t43 -106.5t63.5 -95.5h-50q-36 40 -63 90.5t-45 106.5t-27 114t-9 113zM910 300q0 -55 -9 -113t-27 -114t-45 -106.5t-63 -90.5h-50q37 44 63.5 95.5t43 106.5
t24 111.5t7.5 110.5q0 111 -33 220.5t-106 194.5h49q75 -86 110.5 -194t35.5 -221z" />
    <glyph glyph-name="uni24A9" unicode="&#x24a9;" horiz-adv-x="940" 
d="M560 369q0 18 -7 31t-18.5 21t-26 11.5t-30.5 3.5q-23 0 -48 -14t-39 -41v-260h-64v364h64v-38q26 27 53 36t48 9q27 0 51 -8t42 -24t28 -38.5t10 -51.5v-249h-63v248zM32 300q0 113 35.5 221t110.5 194h49q-73 -85 -106 -194.5t-33 -220.5q0 -54 7.5 -110.5t24 -111.5
t43 -106.5t63.5 -95.5h-50q-36 40 -63 90.5t-45 106.5t-27 114t-9 113zM910 300q0 -55 -9 -113t-27 -114t-45 -106.5t-63 -90.5h-50q37 44 63.5 95.5t43 106.5t24 111.5t7.5 110.5q0 111 -33 220.5t-106 194.5h49q75 -86 110.5 -194t35.5 -221z" />
    <glyph glyph-name="uni24AA" unicode="&#x24aa;" horiz-adv-x="940" 
d="M470 113q-36 0 -67 12.5t-54 36.5t-36 58.5t-13 79.5q0 46 13 82t36 60.5t54 37t67 12.5t66.5 -12.5t53.5 -37t36 -60.5t13 -82q0 -45 -13 -79.5t-36 -58.5t-54 -36.5t-66 -12.5zM470 437q-27 0 -46.5 -11t-32.5 -30t-19 -43.5t-6 -52.5q0 -63 29.5 -97.5t74.5 -34.5
t74 34.5t29 97.5q0 28 -6.5 52.5t-19 43.5t-32 30t-45.5 11zM32 300q0 113 35.5 221t110.5 194h49q-73 -85 -106 -194.5t-33 -220.5q0 -54 7.5 -110.5t24 -111.5t43 -106.5t63.5 -95.5h-50q-36 40 -63 90.5t-45 106.5t-27 114t-9 113zM910 300q0 -55 -9 -113t-27 -114
t-45 -106.5t-63 -90.5h-50q37 44 63.5 95.5t43 106.5t24 111.5t7.5 110.5q0 111 -33 220.5t-106 194.5h49q75 -86 110.5 -194t35.5 -221z" />
    <glyph glyph-name="uni24AB" unicode="&#x24ab;" horiz-adv-x="940" 
d="M392 533v-44q28 30 57 40.5t60 10.5q30 0 58.5 -12t51 -36t36 -60.5t13.5 -85.5q0 -41 -11 -75t-31 -58.5t-47 -38t-60 -13.5q-35 0 -64.5 10.5t-55.5 40.5v-182h-64v503h57zM399 322q0 -20 7.5 -38.5t21 -33.5t31.5 -24t39 -9q26 0 46 11t33 29t19.5 41.5t6.5 49.5
q0 59 -27.5 97.5t-79.5 38.5q-21 0 -39 -8.5t-31 -22t-20 -31.5t-7 -37v-63zM32 300q0 113 35.5 221t110.5 194h49q-73 -85 -106 -194.5t-33 -220.5q0 -54 7.5 -110.5t24 -111.5t43 -106.5t63.5 -95.5h-50q-36 40 -63 90.5t-45 106.5t-27 114t-9 113zM910 300q0 -55 -9 -113
t-27 -114t-45 -106.5t-63 -90.5h-50q37 44 63.5 95.5t43 106.5t24 111.5t7.5 110.5q0 111 -33 220.5t-106 194.5h49q75 -86 110.5 -194t35.5 -221z" />
    <glyph glyph-name="uni24AC" unicode="&#x24ac;" horiz-adv-x="940" 
d="M618 533v-503h-64v182q-26 -30 -55.5 -40.5t-64.5 -10.5q-33 0 -60 13.5t-47 38t-31 58.5t-11 75q0 49 13.5 85.5t36 60.5t51 36t58.5 12q31 0 60 -10.5t57 -40.5v44h57zM554 322v63q0 19 -7 37t-20 31.5t-31 22t-39 8.5q-52 0 -79.5 -38.5t-27.5 -97.5q0 -26 6.5 -49.5
t19.5 -41.5t33 -29t46 -11q21 0 39 9t31.5 24t21 33.5t7.5 38.5zM32 300q0 113 35.5 221t110.5 194h49q-73 -85 -106 -194.5t-33 -220.5q0 -54 7.5 -110.5t24 -111.5t43 -106.5t63.5 -95.5h-50q-36 40 -63 90.5t-45 106.5t-27 114t-9 113zM910 300q0 -55 -9 -113t-27 -114
t-45 -106.5t-63 -90.5h-50q37 44 63.5 95.5t43 106.5t24 111.5t7.5 110.5q0 111 -33 220.5t-106 194.5h49q75 -86 110.5 -194t35.5 -221z" />
    <glyph glyph-name="uni24AD" unicode="&#x24ad;" horiz-adv-x="940" 
d="M451 437q20 26 42.5 35.5t45.5 9.5q22 0 51 -9v-63q-11 5 -22.5 8t-22.5 3q-38 0 -62.5 -27.5t-28.5 -64.5v-218h-64v364h61v-38zM32 300q0 113 35.5 221t110.5 194h49q-73 -85 -106 -194.5t-33 -220.5q0 -54 7.5 -110.5t24 -111.5t43 -106.5t63.5 -95.5h-50
q-36 40 -63 90.5t-45 106.5t-27 114t-9 113zM910 300q0 -55 -9 -113t-27 -114t-45 -106.5t-63 -90.5h-50q37 44 63.5 95.5t43 106.5t24 111.5t7.5 110.5q0 111 -33 220.5t-106 194.5h49q75 -86 110.5 -194t35.5 -221z" />
    <glyph glyph-name="uni24AE" unicode="&#x24ae;" horiz-adv-x="940" 
d="M451 113q-27 0 -54 8.5t-49 21.5l18 51q20 -11 42 -18.5t45 -7.5q33 0 53 13t20 35q0 23 -18.5 38.5t-53.5 29.5q-44 17 -70.5 43.5t-26.5 63.5q0 48 34 74.5t92 26.5q23 0 46.5 -6.5t43.5 -17.5l-18 -52q-14 8 -33 14t-41 6q-28 0 -45.5 -11t-17.5 -31q0 -23 19 -36.5
t54 -27.5q46 -18 71.5 -44t25.5 -67q0 -51 -36.5 -78.5t-100.5 -27.5zM32 300q0 113 35.5 221t110.5 194h49q-73 -85 -106 -194.5t-33 -220.5q0 -54 7.5 -110.5t24 -111.5t43 -106.5t63.5 -95.5h-50q-36 40 -63 90.5t-45 106.5t-27 114t-9 113zM910 300q0 -55 -9 -113
t-27 -114t-45 -106.5t-63 -90.5h-50q37 44 63.5 95.5t43 106.5t24 111.5t7.5 110.5q0 111 -33 220.5t-106 194.5h49q75 -86 110.5 -194t35.5 -221z" />
    <glyph glyph-name="uni24AF" unicode="&#x24af;" horiz-adv-x="940" 
d="M474 522v-93h82v-57h-82v-206q0 -26 8 -39t37 -13q10 0 19 0.5t20 2.5l5 -50q-15 -5 -35 -8t-32 -2q-26 1 -42.5 10.5t-26 24.5t-13.5 34.5t-4 39.5v206h-59v57h59v93h64zM32 300q0 113 35.5 221t110.5 194h49q-73 -85 -106 -194.5t-33 -220.5q0 -54 7.5 -110.5
t24 -111.5t43 -106.5t63.5 -95.5h-50q-36 40 -63 90.5t-45 106.5t-27 114t-9 113zM910 300q0 -55 -9 -113t-27 -114t-45 -106.5t-63 -90.5h-50q37 44 63.5 95.5t43 106.5t24 111.5t7.5 110.5q0 111 -33 220.5t-106 194.5h49q75 -86 110.5 -194t35.5 -221z" />
    <glyph glyph-name="uni24B0" unicode="&#x24b0;" horiz-adv-x="940" 
d="M380 231q0 -18 7 -31t18.5 -21t26 -11.5t30.5 -3.5q23 0 48 14t39 41v260h64v-364h-64v38q-26 -27 -53 -36t-48 -9q-27 0 -51 8t-42 24t-28 38.5t-10 51.5v249h63v-248zM32 300q0 113 35.5 221t110.5 194h49q-73 -85 -106 -194.5t-33 -220.5q0 -54 7.5 -110.5t24 -111.5
t43 -106.5t63.5 -95.5h-50q-36 40 -63 90.5t-45 106.5t-27 114t-9 113zM910 300q0 -55 -9 -113t-27 -114t-45 -106.5t-63 -90.5h-50q37 44 63.5 95.5t43 106.5t24 111.5t7.5 110.5q0 111 -33 220.5t-106 194.5h49q75 -86 110.5 -194t35.5 -221z" />
    <glyph glyph-name="uni24B1" unicode="&#x24b1;" horiz-adv-x="940" 
d="M578 463h64l-135 -364h-73l-136 364h66l106 -302zM32 300q0 113 35.5 221t110.5 194h49q-73 -85 -106 -194.5t-33 -220.5q0 -54 7.5 -110.5t24 -111.5t43 -106.5t63.5 -95.5h-50q-36 40 -63 90.5t-45 106.5t-27 114t-9 113zM910 300q0 -55 -9 -113t-27 -114t-45 -106.5
t-63 -90.5h-50q37 44 63.5 95.5t43 106.5t24 111.5t7.5 110.5q0 111 -33 220.5t-106 194.5h49q75 -86 110.5 -194t35.5 -221z" />
    <glyph glyph-name="uni24B2" unicode="&#x24b2;" horiz-adv-x="940" 
d="M229 485l95 -364h76l70 275l69 -275h75l95 364h-59l-73 -307l-78 307h-58l-79 -306l-72 306h-61zM910 300q0 -55 -9 -113t-27 -114t-45 -106.5t-63 -90.5h-50q37 44 63.5 95.5t43 106.5t24 111.5t7.5 110.5q0 111 -33 220.5t-106 194.5h49q75 -86 110.5 -194t35.5 -221z
M32 300q0 -55 9 -113t27 -114t45 -106.5t63 -90.5h50q-37 44 -63.5 95.5t-43 106.5t-24 111.5t-7.5 110.5q0 111 33 220.5t106 194.5h-49q-75 -86 -110.5 -194t-35.5 -221z" />
    <glyph glyph-name="uni24B3" unicode="&#x24b3;" horiz-adv-x="940" 
d="M304 482h70l96 -136l96 136h70l-130 -182l130 -182h-70l-96 136l-96 -136h-70l131 182zM32 300q0 113 35.5 221t110.5 194h49q-73 -85 -106 -194.5t-33 -220.5q0 -54 7.5 -110.5t24 -111.5t43 -106.5t63.5 -95.5h-50q-36 40 -63 90.5t-45 106.5t-27 114t-9 113zM910 300
q0 -55 -9 -113t-27 -114t-45 -106.5t-63 -90.5h-50q37 44 63.5 95.5t43 106.5t24 111.5t7.5 110.5q0 111 -33 220.5t-106 194.5h49q75 -86 110.5 -194t35.5 -221z" />
    <glyph glyph-name="uni24B4" unicode="&#x24b4;" horiz-adv-x="940" 
d="M389 13q-12 0 -26.5 2.5t-30.5 8.5l9 53q12 -3 21 -4t17 -1q19 0 34.5 9.5t23.5 32.5l15 47l-143 355h64l107 -288l93 288h61l-142 -425q-14 -41 -41 -59.5t-62 -18.5zM32 300q0 113 35.5 221t110.5 194h49q-73 -85 -106 -194.5t-33 -220.5q0 -54 7.5 -110.5t24 -111.5
t43 -106.5t63.5 -95.5h-50q-36 40 -63 90.5t-45 106.5t-27 114t-9 113zM910 300q0 -55 -9 -113t-27 -114t-45 -106.5t-63 -90.5h-50q37 44 63.5 95.5t43 106.5t24 111.5t7.5 110.5q0 111 -33 220.5t-106 194.5h49q75 -86 110.5 -194t35.5 -221z" />
    <glyph glyph-name="uni24B5" unicode="&#x24b5;" horiz-adv-x="940" 
d="M334 485h265v-54l-197 -254h203v-56h-277v54l197 254h-191v56zM32 300q0 113 35.5 221t110.5 194h49q-73 -85 -106 -194.5t-33 -220.5q0 -54 7.5 -110.5t24 -111.5t43 -106.5t63.5 -95.5h-50q-36 40 -63 90.5t-45 106.5t-27 114t-9 113zM910 300q0 -55 -9 -113t-27 -114
t-45 -106.5t-63 -90.5h-50q37 44 63.5 95.5t43 106.5t24 111.5t7.5 110.5q0 111 -33 220.5t-106 194.5h49q75 -86 110.5 -194t35.5 -221z" />
    <glyph glyph-name="uni24D0" unicode="&#x24d0;" horiz-adv-x="940" 
d="M498 350q11 0 19.5 -0.5t12.5 -0.5v10q0 10 -3 23.5t-11.5 25.5t-24 20t-41.5 8q-20 0 -44 -9t-47 -26l-22 49q24 19 56 30.5t67 11.5q40 0 66 -13t41 -34t21 -48t6 -54v-222h-62v36q-24 -21 -53.5 -32.5t-58.5 -11.5q-27 0 -46 9t-31.5 24t-18.5 34t-6 39q0 60 45 95.5
t135 35.5zM527 227q3 12 3 19v49q-11 2 -20 3t-17 1q-22 0 -42 -4.5t-35 -13.5t-23.5 -22.5t-8.5 -31.5q0 -30 14.5 -44t37.5 -14q34 0 59 18t32 40zM910 300q0 -91 -34.5 -171t-94 -139.5t-140 -94t-171.5 -34.5q-86 0 -165.5 33t-140 91.5t-96.5 139t-36 175.5
q0 90 34.5 170t93.5 139t139 93.5t171 34.5q87 0 166.5 -32.5t140 -90.5t97 -138.5t36.5 -175.5zM856 300q0 80 -30 150.5t-82 123t-122.5 83t-151.5 30.5q-78 0 -147.5 -29t-122 -80.5t-83.5 -122.5t-31 -155q0 -80 29.5 -150.5t81 -123t122 -83t151.5 -30.5q78 0 148 28.5
t123 80t84 122.5t31 156z" />
    <glyph glyph-name="uni24D1" unicode="&#x24d1;" horiz-adv-x="940" 
d="M403 582v-204q26 29 53.5 39.5t64.5 10.5q33 0 60.5 -13.5t47.5 -38t31 -58.5t11 -75q0 -49 -14 -85.5t-36.5 -60.5t-51 -36t-58.5 -12q-32 0 -60 9t-56 44v-45h-59v525h67zM401 204q0 -19 7 -36.5t20 -30.5t31 -21t40 -8q50 0 77.5 36.5t27.5 96.5q0 26 -7 49t-20 40.5
t-32.5 28t-44.5 10.5q-21 0 -39 -8.5t-31.5 -23t-21 -33t-7.5 -37.5v-63zM910 300q0 -91 -34.5 -171t-94 -139.5t-140 -94t-171.5 -34.5q-86 0 -165.5 33t-140 91.5t-96.5 139t-36 175.5q0 90 34.5 170t93.5 139t139 93.5t171 34.5q87 0 166.5 -32.5t140 -90.5t97 -138.5
t36.5 -175.5zM856 300q0 80 -30 150.5t-82 123t-122.5 83t-151.5 30.5q-78 0 -147.5 -29t-122 -80.5t-83.5 -122.5t-31 -155q0 -80 29.5 -150.5t81 -123t122 -83t151.5 -30.5q78 0 148 28.5t123 80t84 122.5t31 156z" />
    <glyph glyph-name="uni24D2" unicode="&#x24d2;" horiz-adv-x="940" 
d="M489 170q24 0 43 5t36 12l12 -55q-18 -9 -44 -15.5t-59 -6.5q-40 0 -72.5 13.5t-56 38.5t-36 60t-12.5 77t13 77t37.5 60t59 39t78.5 14q27 0 50.5 -6t39.5 -14l-16 -56q-14 6 -33.5 11t-40.5 5q-59 0 -90 -36t-31 -90q0 -62 34.5 -97.5t87.5 -35.5zM910 300
q0 -91 -34.5 -171t-94 -139.5t-140 -94t-171.5 -34.5q-86 0 -165.5 33t-140 91.5t-96.5 139t-36 175.5q0 90 34.5 170t93.5 139t139 93.5t171 34.5q87 0 166.5 -32.5t140 -90.5t97 -138.5t36.5 -175.5zM856 300q0 80 -30 150.5t-82 123t-122.5 83t-151.5 30.5
q-78 0 -147.5 -29t-122 -80.5t-83.5 -122.5t-31 -155q0 -80 29.5 -150.5t81 -123t122 -83t151.5 -30.5q78 0 148 28.5t123 80t84 122.5t31 156z" />
    <glyph glyph-name="uni24D3" unicode="&#x24d3;" horiz-adv-x="940" 
d="M612 582v-525h-59v45q-14 -17 -28 -27.5t-28 -16t-29 -7.5t-31 -2q-30 0 -58.5 12t-51 36t-36.5 60.5t-14 85.5q0 41 11 75t31 58.5t47.5 38t60.5 13.5q37 0 64.5 -10.5t53.5 -39.5v204h67zM547 267q0 19 -7.5 37.5t-21 33t-31.5 23t-39 8.5q-25 0 -44.5 -10.5t-32.5 -28
t-20 -40.5t-7 -49q0 -60 27.5 -96.5t77.5 -36.5q22 0 40 8t31 21t20 30.5t7 36.5v63zM910 300q0 -91 -34.5 -171t-94 -139.5t-140 -94t-171.5 -34.5q-86 0 -165.5 33t-140 91.5t-96.5 139t-36 175.5q0 90 34.5 170t93.5 139t139 93.5t171 34.5q87 0 166.5 -32.5t140 -90.5
t97 -138.5t36.5 -175.5zM856 300q0 80 -30 150.5t-82 123t-122.5 83t-151.5 30.5q-78 0 -147.5 -29t-122 -80.5t-83.5 -122.5t-31 -155q0 -80 29.5 -150.5t81 -123t122 -83t151.5 -30.5q78 0 148 28.5t123 80t84 122.5t31 156z" />
    <glyph glyph-name="uni24D4" unicode="&#x24d4;" horiz-adv-x="940" 
d="M470 434q-25 0 -42 -9t-28 -23t-16.5 -30.5t-7.5 -31.5h183q-2 15 -7.5 31.5t-16 30.5t-26.5 23t-39 9zM484 168q23 0 51.5 9t57.5 26l21 -47q-35 -23 -67.5 -33.5t-67.5 -10.5q-34 0 -64.5 12t-53 36t-36 59.5t-13.5 82.5q0 41 11 75.5t31 59.5t49.5 39t66.5 14
q43 0 72.5 -16.5t47.5 -44.5t25 -66t6 -81h-245q5 -60 35.5 -87t72.5 -27zM910 300q0 -91 -34.5 -171t-94 -139.5t-140 -94t-171.5 -34.5q-86 0 -165.5 33t-140 91.5t-96.5 139t-36 175.5q0 90 34.5 170t93.5 139t139 93.5t171 34.5q87 0 166.5 -32.5t140 -90.5t97 -138.5
t36.5 -175.5zM856 300q0 80 -30 150.5t-82 123t-122.5 83t-151.5 30.5q-78 0 -147.5 -29t-122 -80.5t-83.5 -122.5t-31 -155q0 -80 29.5 -150.5t81 -123t122 -83t151.5 -30.5q78 0 148 28.5t123 80t84 122.5t31 156z" />
    <glyph glyph-name="uni24D5" unicode="&#x24d5;" horiz-adv-x="940" 
d="M525 504q-29 0 -39.5 -13t-10.5 -41v-61h86v-57h-86v-307h-64v307h-59v57h59v61q0 49 23.5 80t74.5 31h49v-57h-33zM910 300q0 -91 -34.5 -171t-94 -139.5t-140 -94t-171.5 -34.5q-86 0 -165.5 33t-140 91.5t-96.5 139t-36 175.5q0 90 34.5 170t93.5 139t139 93.5
t171 34.5q87 0 166.5 -32.5t140 -90.5t97 -138.5t36.5 -175.5zM856 300q0 80 -30 150.5t-82 123t-122.5 83t-151.5 30.5q-78 0 -147.5 -29t-122 -80.5t-83.5 -122.5t-31 -155q0 -80 29.5 -150.5t81 -123t122 -83t151.5 -30.5q78 0 148 28.5t123 80t84 122.5t31 156z" />
    <glyph glyph-name="uni24D6" unicode="&#x24d6;" horiz-adv-x="940" 
d="M626 233q0 -47 -8 -86t-28 -66.5t-54 -42.5t-85 -15q-29 0 -61 7.5t-60 24.5l21 48q25 -13 48.5 -18.5t53.5 -5.5q24 0 43.5 6t34 21t22.5 40.5t10 64.5q-26 -32 -56.5 -42.5t-64.5 -10.5q-33 0 -60.5 13t-47.5 37t-31 58t-11 76q0 49 13.5 85t36 60t51.5 35.5t59 11.5
q32 0 59 -9t57 -42v43h58v-293zM562 379q0 19 -7 36.5t-20 31.5t-31 22.5t-40 8.5q-50 0 -78 -35.5t-28 -98.5q0 -55 27 -92.5t78 -37.5q21 0 39 9t31.5 24t21 33.5t7.5 38.5v60zM910 300q0 -91 -34.5 -171t-94 -139.5t-140 -94t-171.5 -34.5q-86 0 -165.5 33t-140 91.5
t-96.5 139t-36 175.5q0 90 34.5 170t93.5 139t139 93.5t171 34.5q87 0 166.5 -32.5t140 -90.5t97 -138.5t36.5 -175.5zM856 300q0 80 -30 150.5t-82 123t-122.5 83t-151.5 30.5q-78 0 -147.5 -29t-122 -80.5t-83.5 -122.5t-31 -155q0 -80 29.5 -150.5t81 -123t122 -83
t151.5 -30.5q78 0 148 28.5t123 80t84 122.5t31 156z" />
    <glyph glyph-name="uni24D7" unicode="&#x24d7;" horiz-adv-x="940" 
d="M573 302q0 32 -18.5 50.5t-53.5 18.5q-17 0 -33.5 -6.5t-31.5 -18t-27 -26.5t-19 -31v-233h-64v525h64v-211q28 30 59 43.5t59 13.5q62 0 95.5 -35.5t33.5 -90.5v-245h-64v246zM910 300q0 -91 -34.5 -171t-94 -139.5t-140 -94t-171.5 -34.5q-86 0 -165.5 33t-140 91.5
t-96.5 139t-36 175.5q0 90 34.5 170t93.5 139t139 93.5t171 34.5q87 0 166.5 -32.5t140 -90.5t97 -138.5t36.5 -175.5zM856 300q0 80 -30 150.5t-82 123t-122.5 83t-151.5 30.5q-78 0 -147.5 -29t-122 -80.5t-83.5 -122.5t-31 -155q0 -80 29.5 -150.5t81 -123t122 -83
t151.5 -30.5q78 0 148 28.5t123 80t84 122.5t31 156z" />
    <glyph glyph-name="uni24D8" unicode="&#x24d8;" horiz-adv-x="940" 
d="M437 410h64v-354h-64v354zM501 484h-64v76h64v-76zM910 300q0 -91 -34.5 -171t-94 -139.5t-140 -94t-171.5 -34.5q-86 0 -165.5 33t-140 91.5t-96.5 139t-36 175.5q0 90 34.5 170t93.5 139t139 93.5t171 34.5q87 0 166.5 -32.5t140 -90.5t97 -138.5t36.5 -175.5zM856 300
q0 80 -30 150.5t-82 123t-122.5 83t-151.5 30.5q-78 0 -147.5 -29t-122 -80.5t-83.5 -122.5t-31 -155q0 -80 29.5 -150.5t81 -123t122 -83t151.5 -30.5q78 0 148 28.5t123 80t84 122.5t31 156z" />
    <glyph glyph-name="uni24D9" unicode="&#x24d9;" horiz-adv-x="940" 
d="M521 510h-64v76h64v-76zM366 50q48 5 69.5 22.5t21.5 59.5v304h64v-304q0 -60 -34.5 -95.5t-114.5 -43.5zM910 300q0 -91 -34.5 -171t-94 -139.5t-140 -94t-171.5 -34.5q-86 0 -165.5 33t-140 91.5t-96.5 139t-36 175.5q0 90 34.5 170t93.5 139t139 93.5t171 34.5
q87 0 166.5 -32.5t140 -90.5t97 -138.5t36.5 -175.5zM856 300q0 80 -30 150.5t-82 123t-122.5 83t-151.5 30.5q-78 0 -147.5 -29t-122 -80.5t-83.5 -122.5t-31 -155q0 -80 29.5 -150.5t81 -123t122 -83t151.5 -30.5q78 0 148 28.5t123 80t84 122.5t31 156z" />
    <glyph glyph-name="uni24DA" unicode="&#x24da;" horiz-adv-x="940" 
d="M414 293l146 137h84l-164 -154l163 -210h-77l-130 170l-22 -22v-148h-63v525h63v-298zM910 300q0 -91 -34.5 -171t-94 -139.5t-140 -94t-171.5 -34.5q-86 0 -165.5 33t-140 91.5t-96.5 139t-36 175.5q0 90 34.5 170t93.5 139t139 93.5t171 34.5q87 0 166.5 -32.5
t140 -90.5t97 -138.5t36.5 -175.5zM856 300q0 80 -30 150.5t-82 123t-122.5 83t-151.5 30.5q-78 0 -147.5 -29t-122 -80.5t-83.5 -122.5t-31 -155q0 -80 29.5 -150.5t81 -123t122 -83t151.5 -30.5q78 0 148 28.5t123 80t84 122.5t31 156z" />
    <glyph glyph-name="uni24DB" unicode="&#x24db;" horiz-adv-x="940" 
d="M437 560h64v-504h-64v504zM910 300q0 -91 -34.5 -171t-94 -139.5t-140 -94t-171.5 -34.5q-86 0 -165.5 33t-140 91.5t-96.5 139t-36 175.5q0 90 34.5 170t93.5 139t139 93.5t171 34.5q87 0 166.5 -32.5t140 -90.5t97 -138.5t36.5 -175.5zM856 300q0 80 -30 150.5t-82 123
t-122.5 83t-151.5 30.5q-78 0 -147.5 -29t-122 -80.5t-83.5 -122.5t-31 -155q0 -80 29.5 -150.5t81 -123t122 -83t151.5 -30.5q78 0 148 28.5t123 80t84 122.5t31 156z" />
    <glyph glyph-name="uni24DC" unicode="&#x24dc;" horiz-adv-x="940" 
d="M654 376q0 33 -17 46.5t-48 13.5q-20 0 -41.5 -13.5t-36.5 -38.5v-263h-64v255q0 33 -16.5 46.5t-48.5 13.5q-22 0 -42.5 -12.5t-34.5 -36.5v-266h-64v364h64v-43q18 30 43.5 40t48.5 10q32 0 58.5 -14.5t43.5 -40.5q25 30 53 42.5t51 12.5q54 0 84.5 -31t30.5 -84v-256
h-64v255zM910 300q0 -91 -34.5 -171t-94 -139.5t-140 -94t-171.5 -34.5q-86 0 -165.5 33t-140 91.5t-96.5 139t-36 175.5q0 90 34.5 170t93.5 139t139 93.5t171 34.5q87 0 166.5 -32.5t140 -90.5t97 -138.5t36.5 -175.5zM856 300q0 80 -30 150.5t-82 123t-122.5 83
t-151.5 30.5q-78 0 -147.5 -29t-122 -80.5t-83.5 -122.5t-31 -155q0 -80 29.5 -150.5t81 -123t122 -83t151.5 -30.5q78 0 148 28.5t123 80t84 122.5t31 156z" />
    <glyph glyph-name="uni24DD" unicode="&#x24dd;" horiz-adv-x="940" 
d="M560 369q0 18 -7 31t-18.5 21t-26 11.5t-30.5 3.5q-23 0 -48 -14t-39 -41v-260h-64v364h64v-38q26 27 53 36t48 9q27 0 51 -8t42 -24t28 -38.5t10 -51.5v-249h-63v248zM910 300q0 -91 -34.5 -171t-94 -139.5t-140 -94t-171.5 -34.5q-86 0 -165.5 33t-140 91.5t-96.5 139
t-36 175.5q0 90 34.5 170t93.5 139t139 93.5t171 34.5q87 0 166.5 -32.5t140 -90.5t97 -138.5t36.5 -175.5zM856 300q0 80 -30 150.5t-82 123t-122.5 83t-151.5 30.5q-78 0 -147.5 -29t-122 -80.5t-83.5 -122.5t-31 -155q0 -80 29.5 -150.5t81 -123t122 -83t151.5 -30.5
q78 0 148 28.5t123 80t84 122.5t31 156z" />
    <glyph glyph-name="uni24DE" unicode="&#x24de;" horiz-adv-x="940" 
d="M470 113q-36 0 -67 12.5t-54 36.5t-36 58.5t-13 79.5q0 46 13 82t36 60.5t54 37t67 12.5t66.5 -12.5t53.5 -37t36 -60.5t13 -82q0 -45 -13 -79.5t-36 -58.5t-54 -36.5t-66 -12.5zM470 437q-27 0 -46.5 -11t-32.5 -30t-19 -43.5t-6 -52.5q0 -63 29.5 -97.5t74.5 -34.5
t74 34.5t29 97.5q0 28 -6.5 52.5t-19 43.5t-32 30t-45.5 11zM910 300q0 -91 -34.5 -171t-94 -139.5t-140 -94t-171.5 -34.5q-86 0 -165.5 33t-140 91.5t-96.5 139t-36 175.5q0 90 34.5 170t93.5 139t139 93.5t171 34.5q87 0 166.5 -32.5t140 -90.5t97 -138.5t36.5 -175.5z
M856 300q0 80 -30 150.5t-82 123t-122.5 83t-151.5 30.5q-78 0 -147.5 -29t-122 -80.5t-83.5 -122.5t-31 -155q0 -80 29.5 -150.5t81 -123t122 -83t151.5 -30.5q78 0 148 28.5t123 80t84 122.5t31 156z" />
    <glyph glyph-name="uni24DF" unicode="&#x24df;" horiz-adv-x="940" 
d="M392 533v-44q28 30 57 40.5t60 10.5q30 0 58.5 -12t51 -36t36 -60.5t13.5 -85.5q0 -41 -11 -75t-31 -58.5t-47 -38t-60 -13.5q-35 0 -64.5 10.5t-55.5 40.5v-182h-64v503h57zM399 322q0 -20 7.5 -38.5t21 -33.5t31.5 -24t39 -9q26 0 46 11t33 29t19.5 41.5t6.5 49.5
q0 59 -27.5 97.5t-79.5 38.5q-21 0 -39 -8.5t-31 -22t-20 -31.5t-7 -37v-63zM910 300q0 -91 -34.5 -171t-94 -139.5t-140 -94t-171.5 -34.5q-86 0 -165.5 33t-140 91.5t-96.5 139t-36 175.5q0 90 34.5 170t93.5 139t139 93.5t171 34.5q87 0 166.5 -32.5t140 -90.5t97 -138.5
t36.5 -175.5zM856 300q0 80 -30 150.5t-82 123t-122.5 83t-151.5 30.5q-78 0 -147.5 -29t-122 -80.5t-83.5 -122.5t-31 -155q0 -80 29.5 -150.5t81 -123t122 -83t151.5 -30.5q78 0 148 28.5t123 80t84 122.5t31 156z" />
    <glyph glyph-name="uni24E0" unicode="&#x24e0;" horiz-adv-x="940" 
d="M618 533v-503h-64v182q-26 -30 -55.5 -40.5t-64.5 -10.5q-33 0 -60 13.5t-47 38t-31 58.5t-11 75q0 49 13.5 85.5t36 60.5t51 36t58.5 12q31 0 60 -10.5t57 -40.5v44h57zM554 322v63q0 19 -7 37t-20 31.5t-31 22t-39 8.5q-52 0 -79.5 -38.5t-27.5 -97.5q0 -26 6.5 -49.5
t19.5 -41.5t33 -29t46 -11q21 0 39 9t31.5 24t21 33.5t7.5 38.5zM910 300q0 -91 -34.5 -171t-94 -139.5t-140 -94t-171.5 -34.5q-86 0 -165.5 33t-140 91.5t-96.5 139t-36 175.5q0 90 34.5 170t93.5 139t139 93.5t171 34.5q87 0 166.5 -32.5t140 -90.5t97 -138.5
t36.5 -175.5zM856 300q0 80 -30 150.5t-82 123t-122.5 83t-151.5 30.5q-78 0 -147.5 -29t-122 -80.5t-83.5 -122.5t-31 -155q0 -80 29.5 -150.5t81 -123t122 -83t151.5 -30.5q78 0 148 28.5t123 80t84 122.5t31 156z" />
    <glyph glyph-name="uni24E1" unicode="&#x24e1;" horiz-adv-x="940" 
d="M451 437q20 26 42.5 35.5t45.5 9.5q22 0 51 -9v-63q-11 5 -22.5 8t-22.5 3q-38 0 -62.5 -27.5t-28.5 -64.5v-218h-64v364h61v-38zM910 300q0 -91 -34.5 -171t-94 -139.5t-140 -94t-171.5 -34.5q-86 0 -165.5 33t-140 91.5t-96.5 139t-36 175.5q0 90 34.5 170t93.5 139
t139 93.5t171 34.5q87 0 166.5 -32.5t140 -90.5t97 -138.5t36.5 -175.5zM856 300q0 80 -30 150.5t-82 123t-122.5 83t-151.5 30.5q-78 0 -147.5 -29t-122 -80.5t-83.5 -122.5t-31 -155q0 -80 29.5 -150.5t81 -123t122 -83t151.5 -30.5q78 0 148 28.5t123 80t84 122.5t31 156
z" />
    <glyph glyph-name="uni24E2" unicode="&#x24e2;" horiz-adv-x="940" 
d="M451 113q-27 0 -54 8.5t-49 21.5l18 51q20 -11 42 -18.5t45 -7.5q33 0 53 13t20 35q0 23 -18.5 38.5t-53.5 29.5q-44 17 -70.5 43.5t-26.5 63.5q0 48 34 74.5t92 26.5q23 0 46.5 -6.5t43.5 -17.5l-18 -52q-14 8 -33 14t-41 6q-28 0 -45.5 -11t-17.5 -31q0 -23 19 -36.5
t54 -27.5q46 -18 71.5 -44t25.5 -67q0 -51 -36.5 -78.5t-100.5 -27.5zM910 300q0 -91 -34.5 -171t-94 -139.5t-140 -94t-171.5 -34.5q-86 0 -165.5 33t-140 91.5t-96.5 139t-36 175.5q0 90 34.5 170t93.5 139t139 93.5t171 34.5q87 0 166.5 -32.5t140 -90.5t97 -138.5
t36.5 -175.5zM856 300q0 80 -30 150.5t-82 123t-122.5 83t-151.5 30.5q-78 0 -147.5 -29t-122 -80.5t-83.5 -122.5t-31 -155q0 -80 29.5 -150.5t81 -123t122 -83t151.5 -30.5q78 0 148 28.5t123 80t84 122.5t31 156z" />
    <glyph glyph-name="uni24E3" unicode="&#x24e3;" horiz-adv-x="940" 
d="M474 522v-93h82v-57h-82v-206q0 -26 8 -39t37 -13q10 0 19 0.5t20 2.5l5 -50q-15 -5 -35 -8t-32 -2q-26 1 -42.5 10.5t-26 24.5t-13.5 34.5t-4 39.5v206h-59v57h59v93h64zM905 300q0 -91 -33.5 -170.5t-92.5 -138.5t-138.5 -93t-170.5 -34q-86 0 -164.5 32.5t-138 90.5
t-95 138t-35.5 175q0 90 33.5 169.5t92 138.5t137.5 93t170 34q87 0 165.5 -32.5t138.5 -90t95.5 -137.5t35.5 -175zM860 300q0 80 -30.5 151t-83 123.5t-124 83t-152.5 30.5q-78 0 -148 -29t-123.5 -80.5t-85 -123t-31.5 -155.5q0 -80 30 -151t82.5 -123.5t123.5 -83
t152 -30.5q78 0 148.5 28.5t124 80t85.5 123t32 156.5z" />
    <glyph glyph-name="uni24E4" unicode="&#x24e4;" horiz-adv-x="940" 
d="M380 231q0 -18 7 -31t18.5 -21t26 -11.5t30.5 -3.5q23 0 48 14t39 41v260h64v-364h-64v38q-26 -27 -53 -36t-48 -9q-27 0 -51 8t-42 24t-28 38.5t-10 51.5v249h63v-248zM910 300q0 -91 -34.5 -171t-94 -139.5t-140 -94t-171.5 -34.5q-86 0 -165.5 33t-140 91.5t-96.5 139
t-36 175.5q0 90 34.5 170t93.5 139t139 93.5t171 34.5q87 0 166.5 -32.5t140 -90.5t97 -138.5t36.5 -175.5zM856 300q0 80 -30 150.5t-82 123t-122.5 83t-151.5 30.5q-78 0 -147.5 -29t-122 -80.5t-83.5 -122.5t-31 -155q0 -80 29.5 -150.5t81 -123t122 -83t151.5 -30.5
q78 0 148 28.5t123 80t84 122.5t31 156z" />
    <glyph glyph-name="uni24E5" unicode="&#x24e5;" horiz-adv-x="940" 
d="M578 463h64l-135 -364h-73l-136 364h66l106 -302zM910 300q0 -91 -34.5 -171t-94 -139.5t-140 -94t-171.5 -34.5q-86 0 -165.5 33t-140 91.5t-96.5 139t-36 175.5q0 90 34.5 170t93.5 139t139 93.5t171 34.5q87 0 166.5 -32.5t140 -90.5t97 -138.5t36.5 -175.5zM856 300
q0 80 -30 150.5t-82 123t-122.5 83t-151.5 30.5q-78 0 -147.5 -29t-122 -80.5t-83.5 -122.5t-31 -155q0 -80 29.5 -150.5t81 -123t122 -83t151.5 -30.5q78 0 148 28.5t123 80t84 122.5t31 156z" />
    <glyph glyph-name="uni24E6" unicode="&#x24e6;" horiz-adv-x="940" 
d="M910 300q0 -91 -34.5 -171t-94 -139.5t-140 -94t-171.5 -34.5q-86 0 -165.5 33t-140 91.5t-96.5 139t-36 175.5q0 90 34.5 170t93.5 139t139 93.5t171 34.5q87 0 166.5 -32.5t140 -90.5t97 -138.5t36.5 -175.5zM856 300q0 80 -30 150.5t-82 123t-122.5 83t-151.5 30.5
q-78 0 -147.5 -29t-122 -80.5t-83.5 -122.5t-31 -155q0 -80 29.5 -150.5t81 -123t122 -83t151.5 -30.5q78 0 148 28.5t123 80t84 122.5t31 156zM290 485l72 -306l79 306h58l78 -307l73 307h59l-95 -364h-75l-69 275l-70 -275h-76l-95 364h61z" />
    <glyph glyph-name="uni24E7" unicode="&#x24e7;" horiz-adv-x="940" 
d="M304 482h70l96 -136l96 136h70l-130 -182l130 -182h-70l-96 136l-96 -136h-70l131 182zM910 300q0 -91 -34.5 -171t-94 -139.5t-140 -94t-171.5 -34.5q-86 0 -165.5 33t-140 91.5t-96.5 139t-36 175.5q0 90 34.5 170t93.5 139t139 93.5t171 34.5q87 0 166.5 -32.5
t140 -90.5t97 -138.5t36.5 -175.5zM856 300q0 80 -30 150.5t-82 123t-122.5 83t-151.5 30.5q-78 0 -147.5 -29t-122 -80.5t-83.5 -122.5t-31 -155q0 -80 29.5 -150.5t81 -123t122 -83t151.5 -30.5q78 0 148 28.5t123 80t84 122.5t31 156z" />
    <glyph glyph-name="uni24E8" unicode="&#x24e8;" horiz-adv-x="940" 
d="M389 13q-12 0 -26.5 2.5t-30.5 8.5l9 53q12 -3 21 -4t17 -1q19 0 34.5 9.5t23.5 32.5l15 47l-143 355h64l107 -288l93 288h61l-142 -425q-14 -41 -41 -59.5t-62 -18.5zM910 300q0 -91 -34.5 -171t-94 -139.5t-140 -94t-171.5 -34.5q-86 0 -165.5 33t-140 91.5t-96.5 139
t-36 175.5q0 90 34.5 170t93.5 139t139 93.5t171 34.5q87 0 166.5 -32.5t140 -90.5t97 -138.5t36.5 -175.5zM856 300q0 80 -30 150.5t-82 123t-122.5 83t-151.5 30.5q-78 0 -147.5 -29t-122 -80.5t-83.5 -122.5t-31 -155q0 -80 29.5 -150.5t81 -123t122 -83t151.5 -30.5
q78 0 148 28.5t123 80t84 122.5t31 156z" />
    <glyph glyph-name="uni24E9" unicode="&#x24e9;" horiz-adv-x="940" 
d="M334 485h265v-54l-197 -254h203v-56h-277v54l197 254h-191v56zM910 300q0 -91 -34.5 -171t-94 -139.5t-140 -94t-171.5 -34.5q-86 0 -165.5 33t-140 91.5t-96.5 139t-36 175.5q0 90 34.5 170t93.5 139t139 93.5t171 34.5q87 0 166.5 -32.5t140 -90.5t97 -138.5
t36.5 -175.5zM856 300q0 80 -30 150.5t-82 123t-122.5 83t-151.5 30.5q-78 0 -147.5 -29t-122 -80.5t-83.5 -122.5t-31 -155q0 -80 29.5 -150.5t81 -123t122 -83t151.5 -30.5q78 0 148 28.5t123 80t84 122.5t31 156z" />
    <glyph glyph-name="SF100000" unicode="&#x2500;" horiz-adv-x="940" 
d="M0 286v29h940v-29h-940z" />
    <glyph glyph-name="uni2501" unicode="&#x2501;" horiz-adv-x="940" 
d="M0 271v54h920v-54h-920z" />
    <glyph glyph-name="SF110000" unicode="&#x2502;" horiz-adv-x="940" 
d="M455 -200v1000h29v-1000h-29z" />
    <glyph glyph-name="uni2503" unicode="&#x2503;" horiz-adv-x="940" 
d="M442 -200v1000h54v-1000h-54z" />
    <glyph glyph-name="SF010000" unicode="&#x250c;" horiz-adv-x="940" 
d="M484 286v-486h-29v515h485v-29h-456z" />
    <glyph glyph-name="uni250D" unicode="&#x250d;" horiz-adv-x="940" 
d="M488 264v-464h-38v536h490v-72h-452z" />
    <glyph glyph-name="uni250E" unicode="&#x250e;" horiz-adv-x="940" 
d="M507 282v-482h-76v518h509v-36h-433z" />
    <glyph glyph-name="uni250F" unicode="&#x250f;" horiz-adv-x="940" 
d="M496 271v-471h-54v525h498v-54h-444z" />
    <glyph glyph-name="SF030000" unicode="&#x2510;" horiz-adv-x="940" 
d="M455 -200v486h-455v29h484v-515h-29z" />
    <glyph glyph-name="uni2511" unicode="&#x2511;" horiz-adv-x="940" 
d="M450 -200v464h-450v72h488v-536h-38z" />
    <glyph glyph-name="uni2512" unicode="&#x2512;" horiz-adv-x="940" 
d="M431 -200v482h-431v36h507v-518h-76z" />
    <glyph glyph-name="uni2513" unicode="&#x2513;" horiz-adv-x="940" 
d="M442 -200v471h-442v54h496v-525h-54z" />
    <glyph glyph-name="SF020000" unicode="&#x2514;" horiz-adv-x="940" 
d="M455 286v514h29v-485h426v-29h-455z" />
    <glyph glyph-name="uni2515" unicode="&#x2515;" horiz-adv-x="940" 
d="M450 264v536h38v-464h452v-72h-490z" />
    <glyph glyph-name="uni2516" unicode="&#x2516;" horiz-adv-x="940" 
d="M431 282v518h76v-482h433v-36h-509z" />
    <glyph glyph-name="uni2517" unicode="&#x2517;" horiz-adv-x="940" 
d="M442 271v529h54v-475h444v-54h-498z" />
    <glyph glyph-name="SF040000" unicode="&#x2518;" horiz-adv-x="940" 
d="M0 286v29h455v485h29v-514h-484z" />
    <glyph glyph-name="uni2519" unicode="&#x2519;" horiz-adv-x="940" 
d="M0 264v72h450v464h38v-536h-488z" />
    <glyph glyph-name="uni251A" unicode="&#x251a;" horiz-adv-x="940" 
d="M0 282v36h431v482h76v-518h-507z" />
    <glyph glyph-name="uni251B" unicode="&#x251b;" horiz-adv-x="940" 
d="M0 271v54h442v475h54v-529h-496z" />
    <glyph glyph-name="SF080000" unicode="&#x251c;" horiz-adv-x="940" 
d="M484 286v-486h-29v1000h29v-485h436v-29h-436z" />
    <glyph glyph-name="uni251D" unicode="&#x251d;" horiz-adv-x="940" 
d="M488 264v-464h-38v1000h38v-464h452v-72h-452z" />
    <glyph glyph-name="uni251E" unicode="&#x251e;" horiz-adv-x="940" 
d="M487 282v-482h-37v500h-19v500h76v-482h433v-36h-453z" />
    <glyph glyph-name="uni251F" unicode="&#x251f;" horiz-adv-x="940" 
d="M507 282v-482h-76v500h19v500h38v-482h452v-36h-433z" />
    <glyph glyph-name="uni2520" unicode="&#x2520;" horiz-adv-x="940" 
d="M507 282v-482h-76v1000h76v-482h433v-36h-433z" />
    <glyph glyph-name="uni2521" unicode="&#x2521;" horiz-adv-x="940" 
d="M488 264v-464h-38v500h-19v500h76v-464h433v-72h-452z" />
    <glyph glyph-name="uni2522" unicode="&#x2522;" horiz-adv-x="940" 
d="M507 264v-464h-76v500h19v500h38v-464h452v-72h-433z" />
    <glyph glyph-name="uni2523" unicode="&#x2523;" horiz-adv-x="940" 
d="M496 271v-471h-54v1000h54v-475h444v-54h-444z" />
    <glyph glyph-name="SF090000" unicode="&#x2524;" horiz-adv-x="940" 
d="M455 -200v486h-455v29h455v485h29v-1000h-29z" />
    <glyph glyph-name="uni2525" unicode="&#x2525;" horiz-adv-x="940" 
d="M450 -200v464h-450v72h450v464h38v-1000h-38z" />
    <glyph glyph-name="uni2526" unicode="&#x2526;" horiz-adv-x="940" 
d="M488 300v-500h-38v482h-450v36h431v482h76v-500h-19z" />
    <glyph glyph-name="uni2527" unicode="&#x2527;" horiz-adv-x="940" 
d="M431 -200v482h-431v36h450v482h38v-500h19v-500h-76z" />
    <glyph glyph-name="uni2528" unicode="&#x2528;" horiz-adv-x="940" 
d="M431 -200v482h-431v36h431v482h76v-1000h-76z" />
    <glyph glyph-name="uni2529" unicode="&#x2529;" horiz-adv-x="940" 
d="M488 300v-500h-38v464h-450v72h431v464h76v-500h-19z" />
    <glyph glyph-name="uni252A" unicode="&#x252a;" horiz-adv-x="940" 
d="M431 -200v464h-431v72h450v464h38v-500h19v-500h-76z" />
    <glyph glyph-name="uni252B" unicode="&#x252b;" horiz-adv-x="940" 
d="M442 -200v471h-442v54h442v475h54v-1000h-54z" />
    <glyph glyph-name="SF060000" unicode="&#x252c;" horiz-adv-x="940" 
d="M484 286v-486h-29v486h-455v29h940v-29h-456z" />
    <glyph glyph-name="uni252D" unicode="&#x252d;" horiz-adv-x="940" 
d="M488 282v-482h-38v464h-450v72h469v-18h471v-36h-452z" />
    <glyph glyph-name="uni252E" unicode="&#x252e;" horiz-adv-x="940" 
d="M488 264v-464h-38v482h-450v36h469v18h471v-72h-452z" />
    <glyph glyph-name="uni252F" unicode="&#x252f;" horiz-adv-x="940" 
d="M488 264v-464h-38v464h-450v72h940v-72h-452z" />
    <glyph glyph-name="uni2530" unicode="&#x2530;" horiz-adv-x="940" 
d="M507 282v-482h-76v482h-431v36h940v-36h-433z" />
    <glyph glyph-name="uni2531" unicode="&#x2531;" horiz-adv-x="940" 
d="M507 282v-482h-76v464h-431v72h469v-18h471v-36h-433z" />
    <glyph glyph-name="uni2532" unicode="&#x2532;" horiz-adv-x="940" 
d="M507 264v-464h-76v482h-431v36h469v18h471v-72h-433z" />
    <glyph glyph-name="uni2533" unicode="&#x2533;" horiz-adv-x="940" 
d="M496 271v-471h-54v471h-442v54h920v-54h-424z" />
    <glyph glyph-name="SF070000" unicode="&#x2534;" horiz-adv-x="940" 
d="M0 286v29h455v485h29v-485h436v-29h-920z" />
    <glyph glyph-name="uni2535" unicode="&#x2535;" horiz-adv-x="940" 
d="M469 282v-18h-469v72h450v464h38v-482h452v-36h-471z" />
    <glyph glyph-name="uni2536" unicode="&#x2536;" horiz-adv-x="940" 
d="M469 264v18h-469v36h450v482h38v-464h452v-72h-471z" />
    <glyph glyph-name="uni2537" unicode="&#x2537;" horiz-adv-x="940" 
d="M0 264v72h450v464h38v-464h452v-72h-940z" />
    <glyph glyph-name="uni2538" unicode="&#x2538;" horiz-adv-x="940" 
d="M0 282v36h431v482h76v-482h433v-36h-940z" />
    <glyph glyph-name="uni2539" unicode="&#x2539;" horiz-adv-x="940" 
d="M469 282v-18h-469v72h431v464h76v-482h433v-36h-471z" />
    <glyph glyph-name="uni253A" unicode="&#x253a;" horiz-adv-x="940" 
d="M469 264v18h-469v36h431v482h76v-464h433v-72h-471z" />
    <glyph glyph-name="uni253B" unicode="&#x253b;" horiz-adv-x="940" 
d="M0 271v54h442v475h54v-475h444v-54h-940z" />
    <glyph glyph-name="SF050000" unicode="&#x253c;" horiz-adv-x="940" 
d="M484 285v-485h-29v485h-455v29h455v486h29v-486h436v-29h-436z" />
    <glyph glyph-name="uni253D" unicode="&#x253d;" horiz-adv-x="940" 
d="M488 282v-482h-38v464h-450v76h450v460h38v-482h452v-36h-452z" />
    <glyph glyph-name="uni253E" unicode="&#x253e;" horiz-adv-x="940" 
d="M488 264v-464h-38v482h-450v36h450v482h38v-464h452v-72h-452z" />
    <glyph glyph-name="uni253F" unicode="&#x253f;" horiz-adv-x="940" 
d="M488 264v-464h-38v464h-450v72h450v464h38v-464h452v-72h-452z" />
    <glyph glyph-name="uni2540" unicode="&#x2540;" horiz-adv-x="940" 
d="M488 282v-482h-38v482h-450v36h431v482h76v-482h433v-36h-452z" />
    <glyph glyph-name="uni2541" unicode="&#x2541;" horiz-adv-x="940" 
d="M507 282v-482h-76v482h-431v36h450v482h38v-482h452v-36h-433z" />
    <glyph glyph-name="uni2542" unicode="&#x2542;" horiz-adv-x="940" 
d="M507 282v-482h-76v482h-431v36h431v482h76v-482h433v-36h-433z" />
    <glyph glyph-name="uni2543" unicode="&#x2543;" horiz-adv-x="940" 
d="M488 282v-482h-38v464h-450v72h431v464h76v-482h433v-36h-452z" />
    <glyph glyph-name="uni2544" unicode="&#x2544;" horiz-adv-x="940" 
d="M488 264v-464h-38v482h-450v36h431v482h76v-464h433v-72h-452z" />
    <glyph glyph-name="uni2545" unicode="&#x2545;" horiz-adv-x="940" 
d="M507 282v-482h-76v464h-431v72h450v464h38v-482h452v-36h-433z" />
    <glyph glyph-name="uni2546" unicode="&#x2546;" horiz-adv-x="940" 
d="M507 264v-464h-76v482h-431v36h450v482h38v-464h452v-72h-433z" />
    <glyph glyph-name="uni2547" unicode="&#x2547;" horiz-adv-x="940" 
d="M488 264v-464h-38v464h-450v72h431v464h76v-464h433v-72h-452z" />
    <glyph glyph-name="uni2548" unicode="&#x2548;" horiz-adv-x="940" 
d="M507 264v-464h-76v464h-431v72h450v464h38v-464h452v-72h-433z" />
    <glyph glyph-name="uni2549" unicode="&#x2549;" horiz-adv-x="940" 
d="M507 282v-482h-76v464h-431v72h431v464h76v-482h433v-36h-433z" />
    <glyph glyph-name="uni254A" unicode="&#x254a;" horiz-adv-x="940" 
d="M507 264v-464h-76v482h-431v36h431v482h76v-464h433v-72h-433z" />
    <glyph glyph-name="uni254B" unicode="&#x254b;" horiz-adv-x="940" 
d="M496 271v-471h-54v471h-442v54h442v475h54v-475h444v-54h-444z" />
    <glyph glyph-name="shade" unicode="&#x2592;" horiz-adv-x="940" 
d="M886 680q0 -15 -10 -24t-23 -9q-15 0 -25.5 9t-10.5 24t10.5 24.5t25.5 9.5q13 0 23 -9.5t10 -24.5zM759 680q0 -15 -10 -24t-25 -9t-25 9t-10 24t10 25t25 10t25 -10t10 -25zM886 553q0 -15 -10 -25t-23 -10q-15 0 -25.5 9.5t-10.5 25.5q0 15 10.5 24.5t25.5 9.5
q13 0 23 -9.5t10 -24.5zM632 680q0 -15 -9.5 -24t-24.5 -9t-25 9t-10 24t10 25t25 10t24.5 -10t9.5 -25zM759 554q0 -16 -10 -26t-25 -10t-25 10t-10 26q0 15 10 24.5t25 9.5t25 -9.5t10 -24.5zM886 425q0 -15 -10 -24.5t-23 -9.5q-15 0 -25.5 9.5t-10.5 24.5t10.5 25
t25.5 10q13 0 23 -10t10 -25zM632 554q0 -16 -9.5 -26t-24.5 -10t-25 10t-10 26q0 15 10 24.5t25 9.5t24.5 -9.5t9.5 -24.5zM504 680q0 -15 -9.5 -24t-25.5 -9q-14 0 -23.5 9t-9.5 24t9.5 24.5t23.5 9.5q16 0 25.5 -9.5t9.5 -24.5zM759 426q0 -16 -10 -25.5t-25 -9.5t-25 10
t-10 25t10 24.5t25 9.5t25 -9.5t10 -24.5zM886 297q0 -13 -10 -23t-23 -10q-15 0 -25.5 10t-10.5 23q0 15 10.5 25t25.5 10q13 0 23 -10t10 -25zM632 426q0 -15 -9.5 -25t-24.5 -10t-25 10t-10 25t10 24.5t25 9.5t24.5 -9.5t9.5 -24.5zM504 553q0 -16 -9.5 -25.5t-25.5 -9.5
q-14 0 -23.5 10t-9.5 25t9.5 24.5t23.5 9.5q16 0 25.5 -9.5t9.5 -24.5zM886 171q0 -14 -10 -24.5t-23 -10.5q-15 0 -25.5 10.5t-10.5 24.5t10.5 24t25.5 10q13 0 23 -10t10 -24zM376 680q0 -15 -9.5 -24t-25.5 -9q-15 0 -24.5 9t-9.5 24t9.5 24.5t24.5 9.5q16 0 25.5 -9.5
t9.5 -24.5zM758 297q0 -13 -9.5 -23t-24.5 -10t-25 10t-10 23q0 15 10 25t25 10t24.5 -10t9.5 -25zM504 425q0 -15 -9.5 -24.5t-25.5 -9.5q-14 0 -23.5 9.5t-9.5 24.5t9.5 25t23.5 10q16 0 25.5 -10t9.5 -25zM631 297q0 -13 -9 -23t-24 -10t-25 10t-10 23q0 15 10 25t25 10
t24 -10t9 -25zM887 43q0 -14 -10 -24.5t-23 -10.5q-17 0 -27 10.5t-10 24.5q0 16 10 26t27 10q13 0 23 -10.5t10 -25.5zM250 680q0 -15 -10.5 -24t-25.5 -9t-25 9t-10 24t10 25t25 10t25.5 -10t10.5 -25zM376 553q0 -16 -9.5 -25.5t-25.5 -9.5q-15 0 -24.5 10t-9.5 25
t9.5 24.5t24.5 9.5q16 0 25.5 -9.5t9.5 -24.5zM758 171q0 -14 -9.5 -24.5t-24.5 -10.5t-25 10.5t-10 24.5t10 24t25 10t24.5 -10t9.5 -24zM504 297q0 -13 -9.5 -23t-25.5 -10q-14 0 -23.5 10t-9.5 23q0 15 9.5 25t23.5 10q16 0 25.5 -10t9.5 -25zM631 171q0 -14 -9 -24.5
t-24 -10.5t-25 10.5t-10 24.5t10 24t25 10t24 -10t9 -24zM887 -84q0 -15 -10 -25t-23 -10q-17 0 -27 10t-10 25q0 14 10 24t27 10q13 0 23 -10t10 -24zM250 554q0 -16 -10.5 -26t-25.5 -10t-25 10t-10 26q0 15 10 24.5t25 9.5t25.5 -9.5t10.5 -24.5zM376 425
q0 -15 -9.5 -24.5t-25.5 -9.5q-15 0 -24.5 9.5t-9.5 24.5t9.5 25t24.5 10q16 0 25.5 -10t9.5 -25zM759 43q0 -14 -10 -24.5t-25 -10.5q-14 0 -24.5 10.5t-10.5 24.5q0 15 10 25.5t25 10.5t25 -10.5t10 -25.5zM121 680q0 -15 -10.5 -24t-25.5 -9q-13 0 -23 9t-10 24t10 24.5
t23 9.5q15 0 25.5 -9.5t10.5 -24.5zM504 171q0 -14 -9.5 -24.5t-25.5 -10.5q-14 0 -23.5 10.5t-9.5 24.5t9.5 24t23.5 10q16 0 25.5 -10t9.5 -24zM632 43q0 -14 -9.5 -24.5t-24.5 -10.5t-25 10.5t-10 24.5q0 15 10 25.5t25 10.5t24.5 -10.5t9.5 -25.5zM250 426
q0 -15 -10.5 -25t-25.5 -10t-25 9.5t-10 25.5q0 15 10 24.5t25 9.5t25.5 -9.5t10.5 -24.5zM376 297q0 -13 -9.5 -23t-25.5 -10q-15 0 -24.5 10t-9.5 23q0 15 9.5 25t24.5 10q16 0 25.5 -10t9.5 -25zM759 -84q0 -15 -10 -25t-25 -10q-14 0 -24.5 10.5t-10.5 24.5t10 24t25 10
t25 -10t10 -24zM121 553q0 -15 -10.5 -25t-25.5 -10q-13 0 -23 10t-10 25t10 24.5t23 9.5q15 0 25.5 -9.5t10.5 -24.5zM505 43q0 -14 -9.5 -24.5t-26.5 -10.5q-14 0 -23.5 10.5t-9.5 24.5q0 15 9.5 25.5t23.5 10.5q17 0 26.5 -10t9.5 -26zM632 -84q0 -14 -9.5 -24.5
t-24.5 -10.5t-25 10.5t-10 24.5t10 24t25 10t24.5 -10t9.5 -24zM376 171q0 -14 -9.5 -24.5t-25.5 -10.5q-15 0 -24.5 10.5t-9.5 24.5t9.5 24t24.5 10q16 0 25.5 -10t9.5 -24zM121 424q0 -14 -10.5 -23.5t-25.5 -9.5q-13 0 -23 9.5t-10 23.5q0 17 10 26.5t23 9.5
q15 0 25.5 -9.5t10.5 -26.5zM249 297q0 -13 -10.5 -23t-24.5 -10q-15 0 -25 10t-10 23q0 15 10 25t25 10t25 -10t10 -25zM505 -84q0 -15 -9.5 -25t-26.5 -10q-14 0 -23.5 10t-9.5 25q0 14 9.5 24t23.5 10q17 0 26.5 -10t9.5 -24zM377 43q0 -14 -9.5 -24.5t-25.5 -10.5
q-15 0 -25 10.5t-10 24.5q0 15 10 25.5t25 10.5q16 0 25.5 -10.5t9.5 -25.5zM249 171q0 -14 -10.5 -24.5t-24.5 -10.5q-15 0 -25 10.5t-10 24.5t10 24t25 10t25 -10t10 -24zM121 296q0 -14 -10.5 -23.5t-25.5 -9.5q-13 0 -23 9.5t-10 23.5q0 15 10 24.5t23 9.5
q15 0 25.5 -9.5t10.5 -24.5zM377 -84q0 -15 -9.5 -25t-25.5 -10q-15 0 -25 10t-10 25q0 14 10 24t25 10q16 0 25.5 -10t9.5 -24zM250 43q0 -14 -10.5 -24.5t-25.5 -10.5t-25 10.5t-10 24.5q0 15 10 25.5t25 10.5t25.5 -10.5t10.5 -25.5zM121 171q0 -14 -10.5 -24.5
t-25.5 -10.5q-13 0 -23 10.5t-10 24.5t10 23.5t23 9.5q36 0 36 -33zM250 -84q0 -14 -10.5 -24.5t-25.5 -10.5t-25 10t-10 25q0 14 10 24t25 10t25.5 -10t10.5 -24zM121 43q0 -14 -10.5 -24.5t-25.5 -10.5q-13 0 -23 10.5t-10 24.5t10 24t23 10q15 0 25.5 -10t10.5 -24z
M121 -84q0 -15 -10.5 -25t-25.5 -10q-13 0 -23 10t-10 25q0 14 10 24t23 10q15 0 25.5 -10t10.5 -24z" />
    <glyph glyph-name="filledbox" unicode="&#x25a0;" horiz-adv-x="940" 
d="M98 -70v744h744v-744h-744z" />
    <glyph glyph-name="H22073" unicode="&#x25a1;" horiz-adv-x="940" 
d="M98 -70v744h744v-744h-744zM801 634h-663v-664h663v664z" />
    <glyph glyph-name="uni25A3" unicode="&#x25a3;" horiz-adv-x="940" 
d="M99 -69v742h742v-742h-742zM802 635h-665v-666h665v666zM649 121h-359v362h359v-362z" />
    <glyph glyph-name="uni25A4" unicode="&#x25a4;" horiz-adv-x="940" 
d="M52 -118v829h835v-829h-835zM851 676h-764v-78h764v78zM851 562h-764v-83h764v83zM851 445h-764v-74h764v74zM851 334h-764v-79h764v79zM851 219h-764v-81h764v81zM851 103h-764v-75h764v75zM851 -8h-764v-74h764v74z" />
    <glyph glyph-name="uni25A5" unicode="&#x25a5;" horiz-adv-x="940" 
d="M52 -118v828h835v-828h-835zM852 674h-77v-756h77v756zM740 674h-74v-756h74v756zM629 674h-80v-756h80v756zM513 674h-80v-756h80v756zM396 674h-76v-756h76v756zM285 674h-83v-756h83v756zM166 674h-79v-756h79v756z" />
    <glyph glyph-name="uni25A6" unicode="&#x25a6;" horiz-adv-x="940" 
d="M52 -118v829h835v-829h-835zM851 676h-81v-79h81v79zM737 676h-78v-79h78v79zM851 564h-81v-86h81v86zM626 676h-83v-79h83v79zM737 564h-78v-86h78v86zM851 446h-81v-78h81v78zM626 564h-83v-86h83v86zM511 676h-86v-79h86v79zM737 446h-78v-78h78v78zM851 335h-81v-81
h81v81zM737 335h-78v-81h78v81zM393 676h-76v-79h76v79zM626 446h-83v-78h83v78zM511 564h-86v-86h86v86zM851 221h-81v-84h81v84zM285 676h-85v-79h85v79zM626 335h-83v-81h83v81zM737 221h-78v-84h78v84zM851 105h-81v-78h81v78zM393 564h-76v-86h76v86zM511 446h-86v-78
h86v78zM851 -5h-81v-77h81v77zM737 105h-78v-78h78v78zM167 676h-80v-79h80v79zM626 221h-83v-84h83v84zM285 564h-85v-86h85v86zM511 335h-86v-81h86v81zM393 446h-76v-78h76v78zM737 -5h-78v-77h78v77zM626 105h-83v-78h83v78zM393 335h-76v-81h76v81zM285 446h-85v-78h85
v78zM167 564h-80v-86h80v86zM511 221h-86v-84h86v84zM626 -5h-83v-77h83v77zM285 335h-85v-81h85v81zM511 105h-86v-78h86v78zM393 221h-76v-84h76v84zM167 446h-80v-78h80v78zM511 -5h-86v-77h86v77zM167 335h-80v-81h80v81zM285 221h-85v-84h85v84zM393 105h-76v-78h76v78
zM393 -5h-76v-77h76v77zM285 105h-85v-78h85v78zM167 221h-80v-84h80v84zM285 -5h-85v-77h85v77zM167 105h-80v-78h80v78zM167 -5h-80v-77h80v77z" />
    <glyph glyph-name="uni25A7" unicode="&#x25a7;" horiz-adv-x="940" 
d="M52 -119v830h835v-830h-835zM664 675q48 -48 92.5 -92t91.5 -91v183h-184zM478 675q94 -94 185 -185.5t185 -185.5v142q-57 57 -114 114.5t-114 114.5h-142zM289 675q141 -140 279 -278.5t280 -279.5v142q-106 104 -209.5 207.5t-210.5 208.5h-139zM112 675
q186 -186 368 -366.5t368 -365.5v125q-154 153 -304.5 303.5t-305.5 303.5h-126zM822 -82q-186 185 -368 366.5t-368 367.5v-125q155 -154 306 -305t306 -304h124zM650 -82q-141 142 -281.5 282t-282.5 281v-143q107 -107 211 -210.5t210 -209.5h143zM456 -82
q-94 94 -185 185.5t-185 185.5v-146q59 -57 115.5 -113t113.5 -112h141zM264 -82q-45 46 -89 90.5t-89 91.5v-182h178z" />
    <glyph glyph-name="uni25A8" unicode="&#x25a8;" horiz-adv-x="940" 
d="M52 710h835v-828h-835v828zM478 -82h142l228 227v141zM289 -82h139l420 415v142zM664 -82h184v181zM112 -82h126l610 604v127zM86 64v-123l736 733h-124zM86 254v-144l564 564h-143zM86 448v-146l370 372h-141zM86 491l178 183h-178v-183z" />
    <glyph glyph-name="uni25A9" unicode="&#x25a9;" horiz-adv-x="940" 
d="M53 -119v829h834v-829h-834zM360 208q-18 19 -36.5 37.5l-36.5 36.5q-18 -18 -36 -36.5t-37 -36.5q19 -18 37.5 -36.5l36.5 -36.5zM554 408q18 18 36 35t36 35l-72 72l-72 -72q18 -18 36 -35t36 -35zM650 503q18 18 35 36t35 36l-70 71q-18 -18 -36 -35.5t-36 -35.5z
M189 42q18 18 35.5 36t35.5 37l-69 69l-71 -72zM382 42l35.5 35.5t36.5 35.5l-70 70l-71 -71q18 -18 34.5 -35t34.5 -35zM816 478l-69 70q-18 -18 -36 -35.5t-36 -35.5l71 -69zM286 -52q18 18 36 35l36 34l-70 70l-72 -72q18 -18 35 -33.5t35 -33.5zM456 505q18 18 35.5 36
t35.5 36q-17 18 -32.5 34t-32.5 33l-36 -36t-37 -36l34 -34zM652 314q18 18 34 34.5t34 33.5q-18 18 -34 35t-34 35q-18 -18 -34 -34.5t-34 -33.5zM473 -50q19 18 37 35.5t36 35.5l-66 65l-70 -71q15 -16 31 -32t32 -33zM258 308q-17 16 -32.5 32t-32.5 33
q-18 -18 -35.5 -35t-35.5 -35q16 -16 32 -32.5t33 -33.5zM744 219q17 18 35 35t36 35l-33 33t-34 32l-69 -69l33 -33t32 -33zM269 646q-17 -16 -32.5 -31.5l-31.5 -31.5q18 -18 36 -35.5t36 -35.5l62 63zM189 425q16 16 32 31.5t32 31.5q-18 17 -36.5 34.5t-36.5 35.5
l-62 -62zM564 224q30 32 62 62q-18 18 -35 36t-35 36q-15 -17 -31 -32.5t-32 -32.5zM468 322q16 16 30.5 31.5t30.5 31.5l-69 69q-16 -16 -31.5 -31t-30.5 -31zM380 234q15 16 30.5 31t30.5 31q-18 18 -35 35.5t-35 35.5l-60 -63q18 -17 34.5 -34.5t34.5 -35.5zM537 199
q-17 18 -33.5 35t-33.5 35q-17 -16 -32.5 -31t-30.5 -31q17 -18 34.5 -34.5t35.5 -34.5zM750 38q17 16 32 32t31 32q-17 17 -32.5 33t-33.5 33q-16 -16 -31.5 -31t-31.5 -32l33 -33t33 -34zM433 481l-33 33t-33 32q-33 -32 -63 -63q16 -16 32 -31.5t34 -32.5zM281 330
q16 17 31 32.5t31 31.5q-16 17 -32 33l-32 32q-16 -15 -31.5 -31t-31.5 -32q17 -17 32.5 -33t32.5 -33zM657 132q16 17 31 32l31 31l-65 66q-16 -16 -31.5 -32t-30.5 -32zM725 13l-66 66l-62 -62q18 -17 34 -32.5t32 -33.5zM570 47q16 14 30.5 29.5t29.5 30.5
q-16 17 -31.5 33t-31.5 33q-16 -15 -31.5 -30.5t-30.5 -32.5q17 -16 32.5 -32t32.5 -31zM849 647q-22 -20 -40.5 -39t-38.5 -39l79 -78v156zM87 -60l39 39t40 39q-21 20 -40 40t-39 40v-158zM87 322l39 39t40 39l-79 78v-156zM652 -82q-21 19 -39.5 38t-39.5 38
q-20 -19 -39 -38t-39 -38h157zM849 269q-20 -19 -39 -38l-38 -38l77 -77v153zM87 136q19 20 38 39l39 39q-20 19 -39 37t-38 37v-152zM740 599q20 19 39 38t38 37h-154q20 -18 39 -37zM774 380q18 -20 37 -38.5t38 -37.5v150q-19 -19 -38 -37t-37 -37zM364 600l37.5 37.5
t37.5 36.5h-150zM192 -10q-19 -18 -37 -36t-37 -36h149zM458 -82q-19 18 -37.5 35.5t-36.5 35.5l-72 -71h146zM551 602q18 18 35.5 36t35.5 36h-143zM849 80l-70 -69l70 -69v138zM753 -15q-18 -18 -34.5 -33.5t-34.5 -33.5h136zM153 585l-66 66v-132zM176 609
q18 17 33.5 32.5l32.5 32.5h-131z" />
    <glyph glyph-name="triagup" unicode="&#x25b2;" horiz-adv-x="940" 
d="M473 628l388 -626h-783z" />
    <glyph glyph-name="uni25B3" unicode="&#x25b3;" horiz-adv-x="940" 
d="M473 628l388 -626h-783zM473 547l-326 -509h643z" />
    <glyph glyph-name="uni25B6" unicode="&#x25b6;" horiz-adv-x="940" 
d="M170 -66v739q152 -95 297.5 -186t297.5 -185z" />
    <glyph glyph-name="uni25B7" unicode="&#x25b7;" horiz-adv-x="940" 
d="M164 -75v758l611 -381zM205 610v-614l495 305z" />
    <glyph glyph-name="triagdn" unicode="&#x25bc;" horiz-adv-x="940" 
d="M78 588h783l-388 -626z" />
    <glyph glyph-name="uni25BD" unicode="&#x25bd;" horiz-adv-x="940" 
d="M78 588h783l-388 -626zM790 552h-643l326 -509z" />
    <glyph glyph-name="uni25C0" unicode="&#x25c0;" horiz-adv-x="940" 
d="M174 302q152 94 298 185.5t297 185.5v-739z" />
    <glyph glyph-name="uni25C1" unicode="&#x25c1;" horiz-adv-x="940" 
d="M164 302l611 381v-758zM239 301l495 -305v614z" />
    <glyph glyph-name="uni25C6" unicode="&#x25c6;" horiz-adv-x="940" 
d="M469 -133l-439 437l439 437l440 -437z" />
    <glyph glyph-name="uni25C7" unicode="&#x25c7;" horiz-adv-x="940" 
d="M469 -133l-439 437l439 437l440 -437zM852 304l-383 383l-382 -383l382 -382z" />
    <glyph glyph-name="uni25C8" unicode="&#x25c8;" horiz-adv-x="940" 
d="M469 81l-223 223l223 223l223 -223zM469 -133l-439 437l439 437l440 -437zM851 304l-382 382l-381 -382l381 -381z" />
    <glyph glyph-name="circle" unicode="&#x25cb;" horiz-adv-x="940" 
d="M864 300q0 -82 -31 -153.5t-84 -125t-125 -84t-154 -30.5q-78 0 -149 29.5t-125 81.5t-86 124t-32 158q0 81 30.5 152.5t83.5 125t124.5 84t153.5 30.5q78 0 149.5 -29t125.5 -81.5t86.5 -124.5t32.5 -157zM818 300q0 72 -27 135.5t-73.5 111t-110.5 74.5t-137 27
q-70 0 -133 -26t-110 -72t-75 -110t-28 -140q0 -72 26.5 -135.5t73 -111t109.5 -74.5t137 -27q70 0 133 25.5t111 71.5t76 110t28 141z" />
    <glyph glyph-name="uni25CE" unicode="&#x25ce;" horiz-adv-x="940" 
d="M717 300q0 -51 -19.5 -96t-53 -78.5t-78.5 -52.5t-96 -19q-48 0 -92.5 18.5t-78.5 51t-54 77.5t-20 99q0 51 19 95.5t52.5 77.5t78 52.5t95.5 19.5q49 0 93.5 -18.5t78.5 -51t54.5 -77.5t20.5 -98zM676 300q0 43 -15.5 80t-43.5 65t-65.5 44t-81.5 16q-42 0 -79 -15
t-64.5 -42.5t-44 -65t-16.5 -82.5q0 -43 15.5 -80.5t42.5 -65t64.5 -43.5t81.5 -16q42 0 79.5 15t65.5 42t44.5 64.5t16.5 83.5zM864 300q0 -82 -31 -153.5t-84 -125t-125 -84t-154 -30.5q-78 0 -149 29.5t-125 81.5t-86 124t-32 158q0 81 30.5 152.5t83.5 125t124.5 84
t153.5 30.5q78 0 149.5 -29t125.5 -81.5t86.5 -124.5t32.5 -157zM818 300q0 72 -27 135.5t-73.5 111t-110.5 74.5t-137 27q-70 0 -133 -26t-110 -72t-75 -110t-28 -140q0 -72 26.5 -135.5t73 -111t109.5 -74.5t137 -27q70 0 133 25.5t111 71.5t76 110t28 141z" />
    <glyph glyph-name="H18533" unicode="&#x25cf;" horiz-adv-x="940" 
d="M864 300q0 -82 -31 -153.5t-84 -125t-125 -84t-154 -30.5q-78 0 -149 29.5t-125 81.5t-86 124t-32 158q0 81 30.5 152.5t83.5 125t124.5 84t153.5 30.5q78 0 149.5 -29t125.5 -81.5t86.5 -124.5t32.5 -157z" />
    <glyph glyph-name="uni25D0" unicode="&#x25d0;" horiz-adv-x="940" 
d="M863 302q0 -83 -31.5 -155t-85.5 -125.5t-126.5 -84t-154.5 -30.5q-80 0 -150.5 31t-123.5 85t-84 126t-31 153t31 152.5t84 124.5t123.5 83.5t150.5 30.5q82 0 154.5 -30t126.5 -83t85.5 -124.5t31.5 -153.5zM827 301q0 74 -27.5 139.5t-76.5 114.5t-115.5 77.5
t-144.5 28.5v-722q77 0 143.5 28.5t115.5 78t77 115.5t28 140z" />
    <glyph glyph-name="uni25D1" unicode="&#x25d1;" horiz-adv-x="940" 
d="M76 302q0 82 31.5 153.5t85.5 124.5t126.5 83t154.5 30q79 0 150 -30.5t124 -83.5t84 -124.5t31 -152.5t-31 -153t-84 -126t-123.5 -85t-150.5 -31q-82 0 -154.5 30.5t-126.5 84t-85.5 125.5t-31.5 155zM112 301q0 -74 28 -140t77 -115.5t115.5 -78t143.5 -28.5v722
q-78 0 -144.5 -28.5t-115.5 -77.5t-76.5 -114.5t-27.5 -139.5z" />
    <glyph glyph-name="uni2605" unicode="&#x2605;" horiz-adv-x="940" 
d="M468 149l-243 -171l89 281l-230 174h290l94 263l94 -263h290l-230 -174l89 -281z" />
    <glyph glyph-name="uni2606" unicode="&#x2606;" horiz-adv-x="940" 
d="M468 149l-243 -171l89 281l-230 174h290l94 263l94 -263h290l-230 -174l89 -281zM666 39l-81 226l192 143h-238l-71 216l-71 -216h-238l192 -143l-81 -226l198 145z" />
    <glyph glyph-name="uni260E" unicode="&#x260e;" horiz-adv-x="940" 
d="M913 391q0 -64 -50 -64q-45 0 -103 19q-74 23 -74 55q0 13 9 36q10 21 10 33q0 11 -16.5 20t-33.5 9q-13 0 -13 -14v-29q0 -68 30 -119q7 -12 23 -31.5t41 -46.5q22 -23 36.5 -45.5t22.5 -43.5q8 -17 12 -46q3 -17 5.5 -29t4.5 -17q1 -7 12 -25q8 -14 8 -25
q0 -23 -20.5 -38t-51.5 -15h-632q-39 0 -39 45q0 17 9 32q5 8 8.5 15t4.5 12q2 14 5 27t6 27q5 19 10.5 34t12.5 26q12 19 60 70q22 22 37 41t23 35q28 49 28 115v42q0 9 -8 9q-16 0 -33 -13t-17 -29q0 -8 7.5 -26.5t7.5 -33.5q0 -37 -75 -62q-60 -21 -106 -21q-47 0 -47 61
q0 134 167 191q112 39 276 39q152 0 271 -38q172 -57 172 -182zM587 523q-34 -4 -62.5 -6t-53.5 -2q-26 0 -55.5 2.5t-63.5 7.5v-87q0 -39 58 -39h110q67 0 67 41v83zM633 203q0 35 -12.5 65.5t-35 52.5t-52.5 34.5t-66 12.5q-35 0 -65.5 -12.5t-53 -34.5t-35 -52.5
t-12.5 -65.5t13 -65t35.5 -51.5t52.5 -34t65 -12.5t65 12t52.5 34t35.5 52t13 65z" />
    <glyph glyph-name="uni260F" unicode="&#x260f;" horiz-adv-x="940" 
d="M911 391q0 -29 -13.5 -45.5t-34.5 -16.5q-44 0 -102 19q-34 11 -53.5 24t-18.5 29q0 14 8 33q11 23 11 36q0 12 -16.5 22t-36.5 10q-10 0 -13 -3.5t-3 -13.5v-29q0 -68 30 -120q8 -12 24.5 -32t41.5 -47q22 -23 36 -46t22 -43q3 -7 5.5 -18t5.5 -27q2 -15 5 -26.5
t6 -19.5q2 -4 5 -11t8 -16q7 -14 7 -22q0 -20 -18 -35.5t-52 -15.5h-632q-16 0 -26 10t-10 33q0 16 8 29q5 9 9 16t5 13q2 11 4 19.5t4 18.5q1 4 1.5 8t1.5 7q11 41 22 59q8 11 22.5 29t36.5 41q23 23 38.5 42.5t23.5 35.5q28 52 28 116v39q0 8 -1.5 11.5t-9.5 3.5
q-9 0 -18.5 -4t-17 -11t-12.5 -15t-5 -15q0 -6 2 -11.5t4 -12.5q3 -9 6 -19t3 -17q0 -20 -20 -34t-55 -26q-30 -11 -55.5 -15.5t-47.5 -4.5q-45 0 -45 58q0 69 43 115t124 74q112 39 274 39q77 0 144 -10t125 -29q85 -28 128.5 -74t43.5 -105zM890 386q0 59 -38.5 100.5
t-124.5 71.5q-54 19 -118 27.5t-138 8.5q-145 0 -261 -38q-78 -26 -120 -69.5t-42 -103.5q0 -25 8 -35.5t26 -10.5q15 0 37 5t49 13q68 22 68 48q0 6 -3.5 12t-7.5 16q-8 20 -8 34q0 22 27 41q14 9 29 14t27 5q8 0 14.5 -8t6.5 -36q0 -57 -12.5 -103.5t-40.5 -81.5
q-12 -16 -25 -30.5t-26 -28.5q-11 -11 -21 -23t-21 -24q-18 -22 -27 -59q-2 -8 -3 -14.5t-3 -14.5t-3 -15t-3 -14q-2 -9 -11 -26q-8 -16 -8 -29q0 -14 8 -19t23 -5h605q60 0 60 35q0 13 -8 30q-3 7 -7.5 14.5t-6.5 17.5q-5 24 -8.5 43.5t-11.5 39.5q-9 23 -25 43.5t-38 43.5
q-47 52 -61 78q-28 53 -28 133q0 29 7 37.5t18 9.5q14 1 25.5 -2t25.5 -9q34 -15 34 -37q0 -14 -9 -33q-11 -21 -11 -34t14.5 -23t48.5 -20q52 -15 82 -15q20 0 28 9t8 31zM411 402q-30 0 -42.5 9t-12.5 29v83q32 -5 61 -7.5t53 -2.5t52.5 1.5t60.5 6.5v-81
q0 -19 -14.5 -28.5t-48.5 -9.5h-109zM521 417q23 0 33 6t10 23v59q-22 -5 -44 -6.5t-50 -1.5t-51.5 2.5t-45.5 7.5v-61q0 -18 11.5 -23.5t34.5 -5.5h102zM465 62q30 0 56 11t45 30.5t29.5 45t10.5 55.5t-10.5 56t-29 45.5t-43.5 30.5t-55 11q-32 0 -57.5 -11t-44.5 -30.5
t-29 -45.5t-10 -56t9.5 -55.5t27.5 -45t43.5 -30.5t57.5 -11zM467 43q-34 0 -63.5 12t-51.5 33.5t-35 51t-13 63.5t13 63.5t35 51.5t51.5 34.5t63.5 12.5q36 0 66 -12.5t51.5 -34t33.5 -51t12 -63.5q0 -35 -12 -64t-33.5 -51t-51.5 -34t-66 -12z" />
    <glyph glyph-name="uni261C" unicode="&#x261c;" horiz-adv-x="940" 
d="M780 187v21h-26q-13 -6 -25.5 -12t-25.5 -11q-26 -11 -54.5 -19t-60.5 -13q-31 -4 -112 -3q-74 2 -77 3q-20 0 -36 9q-19 10 -19 29q0 20 16 26q-22 0 -32 16q-6 9 -6 18q0 14 11 28q-12 0 -23.5 10t-12.5 22q0 36 81 39l-3 8q-23 1 -65 3t-103 5q-74 3 -75 4
q-49 7 -46 40q2 27 50 32q17 2 33 2t32 1q46 2 115.5 3.5t166.5 1.5q89 0 116 -3q75 -11 124 -55q2 -3 59 -5v31h73v-231h-75zM782 370q-1 0 -6.5 0.5l-16.5 1.5q-6 1 -11 1h-10q4 -9 4 -16q0 -3 -2 -3t-20 19q-22 21 -44 35q-43 28 -159 28q-18 0 -21 -1q-42 -9 -65 -24
q-11 -6 -21 -25q-11 -20 -20 -26q-1 -1 2.5 -4t10.5 -3t18 3q9 4 25 18q16 15 19 15q2 0 3 -1q3 -6 -4 -15q0 -2 17 -4q16 -2 24 0q5 2 11.5 4t13.5 6q13 7 14 7q2 0 2 -1q2 -10 -14 -23q5 -5 10.5 -10t11.5 -10q24 -21 55 -31q25 -7 65 -12q26 -5 26 -9q0 -6 -31 -5
q-30 2 -55 9q-41 12 -72 39l-26 26q-17 -3 -22 -3q-24 0 -42 7l-14 -13q8 -2 15.5 -3.5t14.5 -3.5q31 -9 33 -17q3 -8 3 -13q0 -14 -14 -28q9 0 20.5 -11.5t11.5 -20.5q0 -14 -16 -26q11 -3 16 -7q15 -9 16 -22q1 -18 -13 -32h4t8 -1h12t10 1q36 2 72 11.5t73 25.5
q55 22 58 27v-11q1 -1 20 0v151zM445 435q-61 0 -121.5 -1t-121.5 -3q-28 -1 -46.5 -2t-26.5 -3q-26 -5 -27 -19q0 -15 23 -21q17 -3 77 -6q39 -2 84.5 -3.5t99.5 -3.5q3 4 8 11.5t12 18.5q10 18 39 32zM839 401h-43v-198h43v198zM480 293q9 7 9 17q0 19 -28 23q-36 7 -87 3
q-34 1 -53 -12q-6 -5 -6 -12q0 -20 23 -20q2 -2 56 -2q78 0 86 3zM506 253q0 23 -44 23h-96q-10 0 -18.5 -7.5t-8.5 -15.5q0 -12 14 -20q2 -1 15.5 -2t36.5 -2q43 -2 48 0q17 0 30 4q22 6 23 16v4zM522 197q-3 17 -31 17h-48h-26.5t-35.5 -1q-19 -1 -19 -20q0 -16 13 -20
q16 -5 63 -6q45 0 47 2q11 0 23 6q17 9 14 22z" />
    <glyph glyph-name="uni261E" unicode="&#x261e;" horiz-adv-x="940" 
d="M158 418v-31q55 1 59 5q49 44 124 55q27 3 116 3q97 0 166.5 -1.5t115.5 -3.5q16 -1 32 -1t33 -2q48 -5 50 -32q3 -33 -46 -40q-1 -1 -75 -4q-61 -3 -103 -5t-65 -3l-3 -8q81 -3 81 -39q-1 -12 -12.5 -22t-23.5 -10q11 -14 11 -28q0 -9 -6 -18q-10 -16 -32 -16
q16 -6 16 -26q0 -19 -19 -29q-17 -9 -36 -9q-3 -1 -77 -3q-81 -1 -112 3q-59 9 -115 32q-13 5 -25.5 11t-25.5 12h-26v-21h-75v231h73zM158 219q19 -1 20 0v11q2 -5 58 -27q37 -16 73 -25.5t72 -11.5q5 -1 10 -1h12q5 1 8 1h4q-14 14 -13 32q1 13 16 22q5 4 16 7
q-16 12 -16 26q0 9 11.5 20.5t20.5 11.5q-14 14 -14 28q0 5 3 13q2 8 33 17q7 2 14.5 3.5t15.5 3.5l-14 13q-18 -7 -42 -7q-6 0 -22 3l-26 -26q-32 -27 -72 -39q-25 -7 -55 -9q-31 -1 -31 5q0 4 26 9q40 5 65 12q31 10 55 31q6 5 11.5 10t10.5 10q-16 13 -14 23q0 1 2 1
q1 0 14 -7q7 -4 13.5 -6t11.5 -4q7 -2 24 0t17 4q-7 9 -4 15q1 1 3 1t19 -15q16 -14 25 -18q10 -3 18 -3q7 0 10.5 3t2.5 4q-9 6 -20 26q-10 19 -21 25q-23 15 -65 24q-3 1 -21 1q-116 0 -159 -28q-23 -14 -44 -35q-18 -19 -20 -19t-2 3q0 7 4 16h-10t-11 -1l-16.5 -1.5
t-6.5 -0.5v-151zM495 435q29 -14 39 -32q7 -11 12 -18.5t8 -11.5q54 2 99.5 3.5t84.5 3.5q60 3 77 6q23 6 23 21q-1 14 -27 19q-8 2 -26.5 3t-46.5 2q-61 2 -121.5 3t-121.5 1zM144 401h-43v-198h43v198zM460 293q7 -3 86 -3q54 0 56 2q23 0 23 20q0 7 -6 12q-19 13 -53 12
q-51 4 -87 -3q-28 -4 -28 -23q0 -10 9 -17zM434 249q1 -10 23 -16q13 -4 30 -4q4 -2 48 0q23 1 36.5 2t15.5 2q14 8 14 20q0 8 -8.5 15.5t-18.5 7.5h-96q-44 0 -44 -23v-4zM418 197q-3 -13 14 -22q12 -6 23 -6q2 -2 47 -2q46 1 63 6q13 4 13 20q0 19 -19 20q-20 1 -35.5 1
h-26.5h-48q-28 0 -31 -17z" />
    <glyph glyph-name="female" unicode="&#x2640;" horiz-adv-x="630" 
d="M531 496q0 -40 -15 -76.5t-41 -65t-60.5 -48t-72.5 -26.5v-134h184v-60h-184v-199h-54v199h-183v60h183v134q-39 6 -74 25t-60.5 48t-40.5 65.5t-15 77.5q0 46 17 86t46 69t68.5 46t84.5 17t85 -17t69 -46.5t46 -69.5t17 -85zM476 496q0 33 -13 62t-35.5 50.5t-51.5 34
t-62 12.5q-32 0 -61.5 -12t-51.5 -33t-35 -50.5t-13 -63.5q0 -36 13 -65.5t35.5 -50t51.5 -32t61 -11.5q33 0 62.5 12t51.5 33.5t35 50.5t13 63z" />
    <glyph glyph-name="male" unicode="&#x2642;" horiz-adv-x="630" 
d="M532 102q0 -47 -17 -86.5t-47 -69t-69.5 -46t-84.5 -16.5q-44 0 -83.5 17t-69 46t-46.5 69t-17 86q0 40 14.5 77t39.5 66t59.5 48t73.5 25v289l-148 -163l-37 34l213 240l200 -243l-39 -38l-134 167v-285q39 -6 74 -25t61.5 -48t41.5 -65.5t15 -78.5zM476 103
q0 33 -13 61.5t-35 50.5t-51 34.5t-62 12.5q-32 0 -61.5 -12.5t-51.5 -34t-35 -50.5t-13 -62q0 -34 13 -63t35 -50.5t51.5 -33.5t61.5 -12q33 0 62 12.5t51 34t35 50.5t13 62z" />
    <glyph glyph-name="spade" unicode="&#x2660;" horiz-adv-x="940" 
d="M347 -118v31q9 16 18 38t16.5 45t13.5 47t8 45q-45 -25 -76 -36t-53 -11q-29 0 -53.5 11t-42.5 31t-28 47t-10 59q0 41 21.5 96.5t63.5 122.5t103.5 144.5t141.5 163.5q79 -86 140.5 -163.5t103.5 -144.5t64 -122.5t22 -96.5q0 -32 -10 -59t-28 -47t-42.5 -31t-53.5 -11
q-22 0 -53 11t-76 36q2 -21 8 -45t13.5 -47t16.5 -45t18 -38v-31h-246z" />
    <glyph glyph-name="uni2661" unicode="&#x2661;" horiz-adv-x="940" 
d="M845 475q0 -62 -25.5 -133.5t-74 -144t-119 -142t-159.5 -126.5q-86 54 -155.5 122.5t-119 142t-76.5 146.5t-27 135q0 43 12.5 80t36.5 64t58.5 42.5t78.5 15.5q67 0 117.5 -42.5t73.5 -131.5q23 89 74 131.5t119 42.5q43 0 77.5 -15.5t58.5 -42.5t37 -64t13 -80z
M141 471q0 -46 15 -95.5t40 -97.5t58.5 -93t69.5 -84t73 -69t70 -48q33 18 70 48t73 69t69.5 84t58.5 93t40 97t15 96q0 75 -35 119t-103 44q-27 0 -49 -10t-39.5 -27.5t-30.5 -40t-21 -47.5q-7 -22 -18 -36t-29 -14q-20 0 -31 14t-18 36q-8 25 -21 47.5t-30.5 40
t-39.5 27.5t-49 10q-68 0 -103 -44t-35 -119z" />
    <glyph glyph-name="club" unicode="&#x2663;" horiz-adv-x="940" 
d="M348 -107v31q15 29 31 62t20 65q2 14 0 19t-9 7q-8 2 -16.5 -4t-16.5 -13q-27 -22 -55 -34t-65 -12q-38 0 -70 15.5t-55 41t-35.5 59.5t-12.5 72t13 71t36 57.5t53.5 38.5t65.5 14q26 0 56.5 -8t62.5 -25q8 -5 17.5 -6.5t15.5 9.5q5 9 0 15.5t-11 12.5q-21 19 -37.5 36.5
t-28 36.5t-17 41t-5.5 52q0 37 15.5 68t41.5 53.5t59 35t69 12.5t69 -12.5t59 -35t41.5 -53.5t15.5 -68q0 -30 -5.5 -52t-17 -41t-28 -36.5t-37.5 -36.5q-6 -6 -11 -12.5t0 -15.5q6 -11 15.5 -9.5t17.5 6.5q32 17 62.5 25t56.5 8q35 0 65.5 -14t53.5 -38.5t36 -57.5t13 -71
t-12.5 -72t-35.5 -59.5t-55 -41t-70 -15.5q-37 0 -65 12t-55 34q-8 7 -16.5 13t-16.5 4q-7 -2 -9 -7t0 -19q4 -32 20 -65t31 -62v-31h-244z" />
    <glyph glyph-name="uni2664" unicode="&#x2664;" horiz-adv-x="940" 
d="M347 -118v31q9 16 18 38t16.5 45t13.5 47t8 45q-45 -25 -76 -36t-53 -11q-29 0 -53.5 11t-42.5 31t-28 47t-10 59q0 41 21.5 96.5t63.5 122.5t103.5 144.5t141.5 163.5q79 -86 140.5 -163.5t103.5 -144.5t64 -122.5t22 -96.5q0 -32 -10 -59t-28 -47t-42.5 -31t-53.5 -11
q-22 0 -53 11t-76 36q2 -21 8 -45t13.5 -47t16.5 -45t18 -38v-31h-246zM528 -76v21q-8 18 -14 38t-10.5 41t-7 41t-2.5 37q0 24 8.5 31.5t18.5 7.5q8 0 17 -3.5t18 -8.5q44 -26 67.5 -34.5t42.5 -8.5q44 0 64 30t20 74q0 32 -15 73t-39.5 85.5t-55 90t-61.5 86t-59.5 73.5
t-49.5 53q-21 -20 -49.5 -53t-59.5 -73.5t-61.5 -86t-55 -90t-39.5 -85.5t-15 -73q0 -44 20 -74t64 -30q19 0 42.5 8.5t67.5 34.5q9 5 18 8.5t17 3.5q10 0 18.5 -7.5t8.5 -31.5q0 -17 -2.5 -37t-7 -41t-11 -41t-13.5 -38v-21h116z" />
    <glyph glyph-name="heart" unicode="&#x2665;" horiz-adv-x="940" 
d="M845 475q0 -62 -25.5 -133.5t-74 -144t-119 -142t-159.5 -126.5q-86 54 -155.5 122.5t-119 142t-76.5 146.5t-27 135q0 43 12.5 80t36.5 64t58.5 42.5t78.5 15.5q67 0 117.5 -42.5t73.5 -131.5q23 89 74 131.5t119 42.5q43 0 77.5 -15.5t58.5 -42.5t37 -64t13 -80z" />
    <glyph glyph-name="uni2667" unicode="&#x2667;" horiz-adv-x="940" 
d="M348 -107v31q15 29 31 62t20 65q2 14 0 19t-9 7q-8 2 -16.5 -4t-16.5 -13q-27 -22 -55 -34t-65 -12q-38 0 -70 15.5t-55 41t-35.5 59.5t-12.5 72t13 71t36 57.5t53.5 38.5t65.5 14q26 0 56.5 -8t62.5 -25q8 -5 17.5 -6.5t15.5 9.5q5 9 0 15.5t-11 12.5q-21 19 -37.5 36.5
t-28 36.5t-17 41t-5.5 52q0 37 15.5 68t41.5 53.5t59 35t69 12.5t69 -12.5t59 -35t41.5 -53.5t15.5 -68q0 -30 -5.5 -52t-17 -41t-28 -36.5t-37.5 -36.5q-6 -6 -11 -12.5t0 -15.5q6 -11 15.5 -9.5t17.5 6.5q32 17 62.5 25t56.5 8q35 0 65.5 -14t53.5 -38.5t36 -57.5t13 -71
t-12.5 -72t-35.5 -59.5t-55 -41t-70 -15.5q-37 0 -65 12t-55 34q-8 7 -16.5 13t-16.5 4q-7 -2 -9 -7t0 -19q4 -32 20 -65t31 -62v-31h-244zM528 -68v23q-8 18 -14 38t-10 41t-6.5 41t-2.5 37q0 16 6 25t15 11.5t20 -1.5t21 -13q32 -29 65 -50.5t80 -21.5q30 0 53.5 11.5
t40 31t25 45t8.5 53.5q0 27 -8.5 51.5t-24 44t-38.5 31t-51 11.5q-44 0 -91 -25q-13 -7 -31 -14.5t-35 -8.5q-12 -1 -23 4t-19 16q-15 23 -8 45.5t25 39.5q22 20 37.5 37t25.5 34t14.5 35.5t4.5 42.5q0 57 -38 91t-99 34t-99 -34t-38 -91q0 -24 4.5 -42.5t14.5 -35.5
t25.5 -34t37.5 -37q18 -17 25 -39.5t-8 -45.5q-8 -11 -19 -16t-23 -4q-17 1 -35 8.5t-31 14.5q-47 25 -91 25q-29 0 -51.5 -11.5t-38 -31t-24 -44t-8.5 -51.5q0 -28 8.5 -53.5t25 -45t40 -31t53.5 -11.5q47 0 80 21.5t65 50.5q10 9 21 13t20 1.5t15 -11.5t6 -25
q0 -17 -2.5 -37t-6.5 -41t-10.5 -41t-13.5 -38v-23h116z" />
    <glyph glyph-name="uni2668" unicode="&#x2668;" horiz-adv-x="940" 
d="M665 248q0 -45 -36 -114q-20 -39 -32 -67t-14 -45h-13q-8 32 -8 55q0 17 3 40t10 51q7 31 10.5 53.5t3.5 38.5q0 43 -22 109t-22 106q0 22 33 91q17 38 27.5 63t13.5 37h11q7 -14 7 -47q0 -12 -2 -30t-6 -42q-4 -23 -6 -41t-2 -31q0 -48 22 -115t22 -112zM538 260
q0 -51 -38 -125q-25 -48 -39.5 -77.5t-18.5 -43.5h-15q-2 10 -3.5 21.5t-1.5 25.5q0 38 19 95q19 58 19 97t-24 113q-24 73 -24 111q0 48 33 119q36 73 39 116h13q18 -38 18 -75q0 -27 -15 -79q-15 -51 -15 -76q0 -29 26 -109q27 -74 27 -113zM397 248q0 -44 -36 -113
q-20 -38 -32 -66.5t-14 -45.5h-12q-9 19 -9 56q0 39 13 90q7 28 10 51t3 41q0 38 -21 109q-20 78 -20 107q0 21 32 90q17 35 27.5 60t12.5 40h11q6 -20 6 -47q0 -13 -2 -31.5t-6 -43.5t-6 -43t-2 -31q0 -46 22 -113q23 -80 23 -110zM872 90q0 -42 -20.5 -73t-54.5 -54
t-77 -37.5t-89 -23.5t-90.5 -12.5t-80.5 -3.5q-33 0 -74.5 3.5t-85 12t-85.5 22.5t-74.5 35.5t-52.5 50.5t-20 68q0 34 22 62.5t54 50.5t69.5 36.5t69.5 20.5l4 -13q-19 -6 -44.5 -20t-49 -32.5t-39.5 -39.5t-16 -41q0 -27 17.5 -46.5t45 -33t63 -21.5t71 -12t68.5 -5.5
t57 -1.5q25 0 60.5 1.5t74 6t76.5 13t68.5 23t49.5 35.5t19 51q0 28 -29 58.5t-92 56.5l7 12q26 -5 57 -18.5t58 -33t45 -44.5t18 -53z" />
    <glyph glyph-name="uni2669" unicode="&#x2669;" horiz-adv-x="400" 
d="M285 73q0 -27 -13 -53.5t-34.5 -48.5t-48 -35.5t-53.5 -13.5q-57 0 -57 52q0 18 10 35t26.5 30.5t37.5 22t43 8.5q9 0 14.5 -0.5t8.5 -0.5q14 0 24.5 6t10.5 28v605h31v-635z" />
    <glyph glyph-name="musicalnote" unicode="&#x266a;" horiz-adv-x="600" 
d="M251 703q28 -51 66 -88t93 -78q30 -23 53 -44.5t38.5 -45.5t23.5 -52t7 -64q-2 -72 -39.5 -130t-97.5 -104l-4 4q53 60 79 114.5t26 91.5q0 23 -10 45t-27 41q-14 16 -36.5 33t-48.5 35q-27 19 -51 37t-49 48v-473q0 -27 -13 -53.5t-34.5 -48.5t-48 -35.5t-53.5 -13.5
q-57 0 -57 52q0 18 10 35t26.5 30.5t37.5 22t43 8.5q9 0 14.5 -0.5t8.5 -0.5q14 0 24.5 6t10.5 28v600h8z" />
    <glyph glyph-name="uni266C" unicode="&#x266c;" horiz-adv-x="840" 
d="M280 369v-296q0 -27 -13 -53.5t-34.5 -48.5t-48 -35.5t-53.5 -13.5q-57 0 -57 52q0 18 9.5 35t26 30.5t37.5 22t44 8.5q8 0 14 -0.5t9 -0.5q14 0 24.5 6t10.5 28v517l477 105v-544q0 -27 -13 -53.5t-34.5 -48.5t-48 -35.5t-53.5 -13.5q-57 0 -57 52q0 18 10 35t26.5 30.5
t37.5 22t44 8.5q8 0 14 -0.5t9 -0.5q14 0 24 6.5t10 27.5v250zM695 627l-415 -94v-78l415 99v73z" />
    <glyph glyph-name="uni266D" unicode="&#x266d;" horiz-adv-x="580" 
d="M469 302q0 -71 -30.5 -130t-81 -101.5t-115 -67.5t-132.5 -28v705h79v-317q30 35 68 53.5t80 18.5q63 0 97.5 -34.5t34.5 -98.5zM395 271q0 20 -3.5 38t-12.5 31.5t-25 21.5t-41 8q-23 0 -43.5 -10t-37 -26t-28.5 -37t-18 -42v-210q44 10 82.5 32t66.5 51.5t44 66
t16 76.5z" />
    <glyph glyph-name="uni3001" unicode="&#x3001;" horiz-adv-x="940" 
d="M70 40v67l220 -96v-109z" />
    <glyph glyph-name="uni3002" unicode="&#x3002;" horiz-adv-x="940" 
d="M193 -85q38 0 61.5 24.5t23.5 60.5t-23.5 61t-61.5 25t-61.5 -25t-23.5 -61t23.5 -60.5t61.5 -24.5zM193 -111q-22 0 -42 8.5t-35.5 23.5t-24.5 35t-9 44t9 44t24.5 35t35.5 23.5t42 8.5t42 -8.5t35.5 -23.5t24.5 -35t9 -44t-9 -44t-24.5 -35t-35.5 -23.5t-42 -8.5z" />
    <glyph glyph-name="uni3003" unicode="&#x3003;" horiz-adv-x="940" 
d="M336 131h-40l87 317h86zM510 131h-40l87 317h86z" />
    <glyph glyph-name="uni3008" unicode="&#x3008;" horiz-adv-x="550" 
d="M472 -79l-40 -32l-338 411l338 411l40 -32l-308 -379z" />
    <glyph glyph-name="uni3009" unicode="&#x3009;" horiz-adv-x="550" 
d="M76 -79l308 379l-308 379l40 32l338 -411l-338 -411z" />
    <glyph glyph-name="uni300A" unicode="&#x300a;" horiz-adv-x="600" 
d="M151 300l251 -389l-37 -23l-272 412l272 412l39 -23zM291 300l251 -389l-37 -23l-272 412l272 412l39 -23z" />
    <glyph glyph-name="uni300B" unicode="&#x300b;" horiz-adv-x="600" 
d="M203 689l39 23l272 -412l-272 -412l-37 23l251 389zM63 689l39 23l272 -412l-272 -412l-37 23l251 389z" />
    <glyph glyph-name="uni300C" unicode="&#x300c;" horiz-adv-x="450" 
d="M392 678h-221v-357h-63v413h284v-56z" />
    <glyph glyph-name="uni300D" unicode="&#x300d;" horiz-adv-x="450" 
d="M342 -133h-285v56h222v367h63v-423z" />
    <glyph glyph-name="uni300E" unicode="&#x300e;" horiz-adv-x="450" 
d="M395 613h-158v-293h-132v414h290v-121zM354 651v44h-208v-337h49v293h159z" />
    <glyph glyph-name="uni300F" unicode="&#x300f;" horiz-adv-x="450" 
d="M55 -13h158v304h132v-425h-290v121zM96 -51v-44h208v348h-49v-304h-159z" />
    <glyph glyph-name="uni3010" unicode="&#x3010;" horiz-adv-x="460" 
d="M119 -117v835h273q-38 -35 -68 -82t-51 -101t-32 -113.5t-11 -119.5t11 -120t31.5 -114.5t50.5 -102t69 -82.5h-273z" />
    <glyph glyph-name="uni3011" unicode="&#x3011;" horiz-adv-x="460" 
d="M69 -117q39 35 69 82.5t50.5 102t31.5 114.5t11 120t-11 119.5t-32 113.5t-51 101t-68 82h273v-835h-273z" />
    <glyph glyph-name="uni3013" unicode="&#x3013;" horiz-adv-x="940" 
d="M60 386v54h820v-54h-820zM60 147v54h820v-54h-820z" />
    <glyph glyph-name="uni3014" unicode="&#x3014;" horiz-adv-x="500" 
d="M197 -24l183 -83l-20 -48l-221 100v712l221 100l20 -48l-183 -83v-650z" />
    <glyph glyph-name="uni3015" unicode="&#x3015;" horiz-adv-x="500" 
d="M313 626l-183 83l20 48l221 -100v-712l-221 -100l-20 48l183 83v650z" />
    <glyph glyph-name="uni3041" unicode="&#x3041;" horiz-adv-x="760" 
d="M317 -91q-4 11 -7 21.5t-6 21.5q-26 -15 -56 -25t-56 -10q-21 0 -42 6.5t-37.5 21.5t-27 39t-10.5 59q0 38 14 71t38.5 60.5t57 49.5t70.5 37q-2 29 -3 59.5t-1 60.5q-37 -1 -74 -1t-75 2v60q38 -2 75.5 -2t75.5 1q1 28 3 55.5t5 56.5h60q-4 -28 -6 -55.5t-4 -55.5
q63 3 125 9t127 14v-61q-126 -16 -254 -21q-1 -26 -0.5 -52t2.5 -52q32 9 64.5 14t64.5 5q50 0 97 -10.5t83.5 -34t58.5 -62t22 -93.5q0 -49 -19 -85.5t-51 -62t-73 -41t-85 -23.5l-15 58q29 6 61 17t59 29.5t45 45t18 62.5q0 46 -23.5 76.5t-78.5 56.5q-13 -30 -32.5 -63
t-43.5 -65t-52 -62t-57 -54q5 -26 15 -56zM135 46q0 -35 18 -51t43 -16q23 0 46.5 9t46.5 24q-21 91 -30 188q-53 -24 -88.5 -62.5t-35.5 -91.5zM482 242q-38 2 -81.5 -3.5t-85.5 -18.5q8 -86 24 -169q26 24 49 51t41.5 53t32 49t20.5 38z" />
    <glyph glyph-name="uni3042" unicode="&#x3042;" 
d="M369 -98q-5 17 -8.5 33t-7.5 33q-32 -19 -64.5 -29.5t-65.5 -10.5q-69 0 -108.5 45.5t-39.5 120.5q0 48 18 89t49 74t72.5 59t89.5 44q-2 35 -2.5 71t0.5 72q-44 -1 -87.5 -0.5t-87.5 2.5v60q44 -1 88 -1.5t89 0.5q4 72 12 148h64q-5 -37 -8 -73t-5 -73q77 2 154 7.5
t156 14.5v-61q-78 -10 -155.5 -15.5t-156.5 -7.5q-2 -62 0 -124q39 11 79.5 16t79.5 5q56 0 113.5 -12.5t104.5 -41t77 -75t30 -113.5q0 -59 -21 -103t-57.5 -75.5t-85 -51.5t-102.5 -30l-16 59q38 8 76.5 22.5t69.5 38.5t50.5 58t19.5 82q0 32 -12 59.5t-33 49t-49 37.5
t-61 24q-12 -37 -33.5 -80t-50 -86.5t-63 -84t-73.5 -72.5q9 -46 21 -89zM229 -4q28 0 56 10t55 28q-24 129 -33 261q-36 -15 -67 -35.5t-54 -45.5t-36 -55t-13 -64q0 -41 23 -70t69 -29zM564 338q-45 4 -95.5 -1.5t-101.5 -19.5q4 -60 10.5 -119.5t17.5 -119.5
q52 50 96 119t73 141z" />
    <glyph glyph-name="uni3043" unicode="&#x3043;" horiz-adv-x="720" 
d="M230 0q26 0 51 34.5t51 92.5l56 -29q-22 -49 -42.5 -81t-40 -51t-38.5 -27t-37 -8q-45 0 -73 26t-44.5 67.5t-22.5 93.5t-6 105q0 63 6 118.5t11 87.5l66 -7q-2 -17 -5 -41.5t-5.5 -53t-4.5 -59.5t-2 -61q0 -38 4 -75.5t13 -66.5t24.5 -47t38.5 -18zM585 15
q-6 39 -13.5 82.5t-19.5 88.5t-28.5 89.5t-39.5 86.5l60 29q49 -82 73.5 -175t32.5 -177z" />
    <glyph glyph-name="uni3044" unicode="&#x3044;" horiz-adv-x="800" 
d="M248 14q14 0 28.5 13t28.5 36t27 54.5t25 69.5l66 -22q-37 -115 -82.5 -171t-91.5 -56q-50 0 -82 36t-50 93.5t-24.5 129.5t-6.5 144q0 69 3 136.5t11 136.5l73 -7q-2 -17 -4.5 -46t-5 -66.5t-4 -81t-1.5 -87.5q0 -56 4 -111.5t14 -100t27.5 -72.5t44.5 -28zM657 59
q-8 123 -34 241t-84 234l64 24q67 -115 96 -238t34 -241z" />
    <glyph glyph-name="uni3045" unicode="&#x3045;" horiz-adv-x="600" 
d="M204 -47q42 11 87.5 26t82.5 39t61 59t24 85q0 36 -11 60.5t-29.5 39.5t-44 21t-53.5 6q-29 0 -60.5 -5.5t-62 -14.5t-58.5 -19.5t-50 -20.5l-20 66q51 25 117 43t133 18q42 0 79 -9.5t65.5 -32t45 -60t16.5 -92.5q0 -62 -26 -107t-69 -77t-97 -53t-109 -34zM428 444
q-34 4 -71 9t-74 11.5t-72.5 14.5t-65.5 17l17 62q27 -8 62.5 -15.5t72.5 -13.5t74 -11t67 -8z" />
    <glyph glyph-name="uni3046" unicode="&#x3046;" horiz-adv-x="700" 
d="M231 -52q54 10 111.5 27.5t105 48.5t78.5 78.5t31 118.5q0 45 -14.5 75.5t-39 48.5t-58 26t-70.5 8q-36 0 -74.5 -6t-75.5 -15t-70 -20t-60 -21l-22 72q30 12 66 23t74 20t77.5 14t77.5 5q55 0 102.5 -11.5t82.5 -38t55 -70.5t20 -110q0 -83 -30.5 -142.5t-83 -100
t-121.5 -65t-145 -36.5zM511 557q-41 4 -84.5 10t-87 13.5t-85 16.5t-77.5 20l22 69q32 -10 72.5 -18.5t84 -15.5t87 -12.5t79.5 -9.5z" />
    <glyph glyph-name="uni3047" unicode="&#x3047;" horiz-adv-x="670" 
d="M76 -34q91 75 173 158.5t158 174.5q-68 -11 -140.5 -16.5t-144.5 -6.5l-3 64q72 1 157 5.5t173 13.5l43 -50q-80 -99 -163 -190q30 12 57 12q23 0 39 -17.5t21 -57.5q2 -22 4.5 -37.5t9.5 -25.5t20 -14.5t37 -4.5q31 0 60.5 2t57.5 5v-65q-26 -3 -57.5 -4t-62.5 -1
q-40 0 -62.5 8.5t-34.5 24t-16.5 38t-8.5 49.5q-1 7 -3 15.5t-7 16t-14.5 12t-24.5 4.5q-11 0 -29 -4.5t-41 -13.5q-37 -38 -74.5 -74t-75.5 -71zM455 444q-34 4 -71 9t-74 11.5t-72.5 14.5t-65.5 17l17 62q27 -8 62.5 -15.5t72.5 -13.5t74 -11t67 -8z" />
    <glyph glyph-name="uni3048" unicode="&#x3048;" horiz-adv-x="820" 
d="M599 415q-47 -63 -95.5 -122t-99.5 -117q32 8 54 8q32 0 55.5 -21.5t30.5 -78.5q3 -28 6.5 -49t12 -35t25.5 -21t47 -7q40 0 80 2t77 7v-69q-35 -4 -77.5 -5.5t-85.5 -1.5q-52 0 -81 12t-44.5 33.5t-22 51.5t-12.5 66q-2 10 -4.5 21t-8.5 20t-18 15t-31 6q-20 0 -53 -10
q-53 -57 -107.5 -112t-111.5 -109l-50 49q122 105 223.5 219.5t189.5 234.5q-96 -14 -186.5 -20.5t-173.5 -6.5v72q96 0 197 7.5t216 22.5zM537 557q-41 4 -84.5 10t-87 13.5t-85 16.5t-77.5 20l22 69q32 -10 72.5 -18.5t84 -15.5t87 -12.5t79.5 -9.5z" />
    <glyph glyph-name="uni3049" unicode="&#x3049;" horiz-adv-x="760" 
d="M268 357q-42 -1 -82.5 -1t-81.5 2v60q41 -2 81.5 -2t82.5 1v128h58v-126q35 2 69.5 4t70.5 6v-60q-35 -4 -70 -6l-70 -4v-115q38 10 70 14.5t52 4.5q43 0 84 -11t72 -33.5t50 -57t19 -82.5q0 -36 -9.5 -66.5t-28.5 -53t-47.5 -35t-65.5 -12.5q-26 0 -55.5 7.5t-54.5 20.5
l20 51q23 -9 45.5 -15t46.5 -5q42 2 66.5 31.5t24.5 77.5q0 33 -13.5 56.5t-37 39t-53.5 23t-63 7.5q-25 0 -54.5 -4t-67.5 -17v-182q0 -56 -36 -82t-90 -26q-29 0 -52 10.5t-39.5 28.5t-25 42.5t-8.5 53.5q0 37 17 69t44 57.5t61.5 44t70.5 29.5v127zM268 170
q-24 -9 -48.5 -22t-43.5 -30t-31 -38.5t-12 -47.5q0 -34 16 -55t51 -21q33 0 50.5 15t17.5 50v149zM659 276q-8 18 -20.5 42.5t-26.5 49t-28.5 46.5t-25.5 36l49 32q13 -16 27.5 -38t28.5 -45.5t26.5 -47t21.5 -42.5z" />
    <glyph glyph-name="uni304A" unicode="&#x304a;" horiz-adv-x="880" 
d="M547 477q-93 -9 -187 -12v-138q97 23 174 23q51 0 99.5 -12.5t85.5 -39t59.5 -67.5t22.5 -98q0 -47 -14 -86t-41 -67.5t-67.5 -44t-93.5 -15.5q-29 0 -59.5 4.5t-58.5 15.5l14 63q54 -18 102 -18q67 0 109 38t42 110q0 39 -17.5 67.5t-46 47t-64.5 27.5t-72 9
q-38 0 -81 -7t-93 -21v-227q0 -35 -11 -59t-30 -39t-44 -22t-52 -7q-72 0 -109.5 40.5t-37.5 114.5q0 45 19.5 85t51 73t71 57.5t78.5 38.5v153q-44 -1 -87 -0.5t-87 2.5v66q44 -1 87 -1.5t87 0.5v165h64v-164q46 2 92.5 4t94.5 7v-66zM296 242q-29 -11 -57 -28.5t-50 -41
t-35.5 -52t-13.5 -61.5q0 -37 18.5 -64t65.5 -27q30 0 51 13.5t21 53.5v207zM743 406q-9 21 -22 45.5t-27.5 49.5t-29 48t-26.5 40l57 30q13 -16 28.5 -39t30.5 -47.5t28 -49.5t22 -44z" />
    <glyph glyph-name="uni304B" unicode="&#x304b;" horiz-adv-x="870" 
d="M345 686q-5 -47 -11.5 -92.5t-14.5 -90.5q8 1 16 1t16 1q69 4 115 -7t73 -39.5t38 -75t11 -113.5q0 -27 -1 -63.5t-6.5 -75.5t-17 -77.5t-32 -68.5t-53 -48.5t-78.5 -18.5q-26 0 -59 4t-58 12l13 66q23 -6 47.5 -8.5t53.5 -2.5q30 0 51 14.5t34.5 38.5t21 54t11 61.5
t4.5 61t1 51.5q0 46 -5.5 79t-23 53t-49.5 28.5t-85 6.5l-51 -3q-26 -131 -66 -255t-97 -244l-64 27q56 114 95 229t65 236q-45 -5 -88 -12t-84 -14l-8 69q45 8 94.5 15t98.5 12q9 48 15.5 96t11.5 97zM742 170q-6 39 -14.5 83.5t-20.5 90t-29 91t-39 87.5l60 28
q24 -41 43 -86t32 -91.5t21.5 -92t11.5 -87.5z" />
    <glyph glyph-name="uni304C" unicode="&#x304c;" horiz-adv-x="940" 
d="M345 686q-5 -47 -11.5 -92.5t-14.5 -90.5q8 1 16 1t16 1q69 4 115 -7t73 -39.5t38 -75t11 -113.5q0 -27 -1 -63.5t-6.5 -75.5t-17 -77.5t-32 -68.5t-53 -48.5t-78.5 -18.5q-26 0 -59 4t-58 12l13 66q23 -6 47.5 -8.5t53.5 -2.5q30 0 51 14.5t34.5 38.5t21 54t11 61.5
t4.5 61t1 51.5q0 46 -5.5 79t-23 53t-49.5 28.5t-85 6.5l-51 -3q-26 -131 -66 -255t-97 -244l-64 27q56 114 95 229t65 236q-45 -5 -88 -12t-84 -14l-8 69q45 8 94.5 15t98.5 12q9 48 15.5 96t11.5 97zM722 170q-6 39 -14.5 83.5t-20.5 90t-29 91t-39 87.5l60 28
q24 -41 43 -86t32 -91.5t21.5 -92t11.5 -87.5zM752 545q-5 16 -11.5 36.5t-14.5 41.5t-16.5 40.5t-15.5 34.5l48 17q8 -14 17 -33.5t17.5 -41t15.5 -42.5t11 -38zM865 545q-5 16 -11.5 36.5t-14.5 41.5t-16.5 40.5t-15.5 34.5l48 17q8 -14 17 -33.5t17.5 -41t15.5 -42.5
t11 -38z" />
    </font>
</defs>
</svg>
